<svg width="60" height="60" viewBox="0 0 60 60" fill="none" xmlns="http://www.w3.org/2000/svg">
<g filter="url(#filter0_b_493_483)">
<path d="M43.2 0H16.8C7.52162 0 0 7.52162 0 16.8V43.2C0 52.4784 7.52162 60 16.8 60H43.2C52.4784 60 60 52.4784 60 43.2V16.8C60 7.52162 52.4784 0 43.2 0Z" fill="url(#paint0_linear_493_483)" fill-opacity="0.05"/>
</g>
<path d="M38.75 33.75V37.2439C38.75 38.6369 38.605 39.142 38.3326 39.6513C38.0603 40.1606 37.6606 40.5602 37.1513 40.8326C36.6421 41.1049 36.1369 41.25 34.7439 41.25H31.25V33.75H38.75ZM28.75 33.75V41.25H25.2561C23.8631 41.25 23.3579 41.1049 22.8487 40.8326C22.3394 40.5602 21.9397 40.1606 21.6674 39.6513C21.4132 39.176 21.2699 38.7043 21.2519 37.5109L21.25 37.2439V33.75H28.75ZM38.3551 25C39.0976 25 39.5636 25.116 39.9711 25.3339C40.3785 25.5518 40.6982 25.8715 40.9161 26.2789C41.134 26.6863 41.25 27.1524 41.25 27.8949V29.6475C41.25 30.2047 41.192 30.4068 41.083 30.6105C40.9741 30.8142 40.8142 30.9741 40.6105 31.083C40.4068 31.192 40.2048 31.25 39.6476 31.25H31.25V25H38.3551ZM28.75 25V31.25H20.3524C19.7952 31.25 19.5932 31.192 19.3895 31.083C19.1858 30.9741 19.0259 30.8142 18.917 30.6105C18.8216 30.4323 18.7653 30.2553 18.7527 29.8405L18.75 29.6475V27.8949C18.75 27.1524 18.866 26.6863 19.0839 26.2789C19.3018 25.8715 19.6215 25.5518 20.0289 25.3339C20.3854 25.1432 20.7868 25.0306 21.379 25.0054L21.6449 25H28.75ZM36.625 18.375C38.5893 20.3393 36.9363 24.9562 30.3634 25.0021L30 25C23.125 25.125 21.375 20.375 23.375 18.375C25.3274 16.4226 29.9006 18.0438 30.0007 24.518C30.0994 18.0438 34.6726 16.4226 36.625 18.375Z" fill="#F1AC44"/>
<defs>
<filter id="filter0_b_493_483" x="-15" y="-15" width="90" height="90" filterUnits="userSpaceOnUse" color-interpolation-filters="sRGB">
<feFlood flood-opacity="0" result="BackgroundImageFix"/>
<feGaussianBlur in="BackgroundImageFix" stdDeviation="7.5"/>
<feComposite in2="SourceAlpha" operator="in" result="effect1_backgroundBlur_493_483"/>
<feBlend mode="normal" in="SourceGraphic" in2="effect1_backgroundBlur_493_483" result="shape"/>
</filter>
<linearGradient id="paint0_linear_493_483" x1="30" y1="0" x2="30" y2="60" gradientUnits="userSpaceOnUse">
<stop stop-color="white" stop-opacity="0.31"/>
<stop offset="1" stop-color="white" stop-opacity="0.59"/>
</linearGradient>
</defs>
</svg>
