<svg width="40" height="40" viewBox="0 0 40 40" fill="none" xmlns="http://www.w3.org/2000/svg">
<path d="M21.9111 10.0615C20.7071 10.23 19.8248 10.555 17.8578 11.5419C16.6775 12.1317 15.235 12.7695 14.6389 12.9501C13.6613 13.2389 13.3871 13.275 11.5989 13.275C9.73907 13.2871 9.58408 13.263 8.83302 12.9621C8.39191 12.7816 7.83158 12.5048 7.58123 12.3242L7.1282 12.0233L7.08051 12.2881C7.0209 12.7094 7.29511 13.8166 7.62891 14.4786C8.04617 15.309 9.08337 16.3802 9.91789 16.8255C11.7538 17.8124 13.6613 17.7884 15.5092 16.7774C15.9145 16.5487 16.2483 16.4043 16.2483 16.4644C16.2483 16.6691 15.2827 17.8124 14.8297 18.1374C14.5793 18.3179 14.162 18.5707 13.8878 18.691C13.4825 18.8836 13.3752 18.9919 13.3156 19.341C13.2441 19.7261 13.3156 20.9417 13.4586 21.8925L13.5302 22.3258L12.636 22.7711C11.3127 23.4451 10.0133 23.7339 8.6661 23.6738C7.71237 23.6376 7.46201 23.5774 6.73478 23.2044C5.9241 22.8072 5.90026 22.7951 6.11485 23.096C6.52019 23.6738 7.85543 24.8773 8.67803 25.4069C9.79867 26.1411 10.8716 26.5502 12.2784 26.7909C13.3156 26.9715 13.7328 26.9715 16.0099 26.8511C18.8473 26.6826 19.6818 26.7549 20.7547 27.2483C21.0886 27.4048 21.3747 27.5613 21.3747 27.5973C21.3747 27.6215 20.9694 27.6575 20.4686 27.6575C19.5626 27.6575 17.679 28.0787 17.679 28.2834C17.679 28.476 19.8845 29.4748 20.8978 29.7397C22.2688 30.0888 24.2479 30.0888 25.607 29.7276C29.6364 28.6565 32.5215 25.3707 33.0699 21.2426C33.1892 20.2677 33.1652 19.2567 32.9745 18.005L32.9031 17.5597H27.3236L21.7323 20.0187V20.027V20.0353L27.5859 22.4943L27.3714 22.8674C27.0375 23.4451 26.1672 24.1793 25.3089 24.5885C24.5816 24.9375 24.4386 24.9616 23.2226 24.9616C22.0423 24.9616 21.8397 24.9255 21.2197 24.6366C20.3256 24.2153 19.7056 23.7098 19.193 22.9998C17.7505 20.9898 17.9055 18.342 19.5864 16.5487C21.1363 14.8878 23.6159 14.4545 25.5354 15.5136L26.1792 15.8747H29.2192C32.6526 15.8747 32.4023 15.983 31.7109 14.8156C29.9703 11.8789 26.5487 9.94119 23.2226 10.0014C22.698 10.0014 22.1138 10.0375 21.9111 10.0615Z" fill="#526184"/>
</svg>
