<svg width="512" height="512" viewBox="0 0 512 512" fill="none" xmlns="http://www.w3.org/2000/svg">
<g clip-path="url(#clip0_197_16)">
<path d="M0 0H512V512H0V0Z" fill="#2B2F3C"/>
<path opacity="0.4" d="M406 186.079L383.942 244.799H334.886L312.828 186.079H406Z" fill="#96A0AF"/>
<path d="M142.778 332.878H200.842L178.774 391.617H120.217L142.778 332.878ZM176.605 244.798H233.933L222.903 274.158H165.33L176.605 244.798ZM391.73 391.617L333.2 391.59L278.049 244.798L255.991 186.079H199.153L224.522 120H287.447L312.829 186.079L335.377 244.798L391.73 391.617Z" fill="#96A0AF"/>
<path opacity="0.4" d="M255.99 186.079L233.932 244.799H128.058L106 186.079H255.99ZM289.076 274.158L311.134 332.878H128.058L106 274.158H289.076ZM406 274.158L383.942 332.878H369.198L346.651 274.158H406Z" fill="#96A0AF"/>
<path d="M0 0H512V512H0V0Z" fill="#11161F"/>
<path d="M406 186.079L383.942 244.799H334.886L312.828 186.079H406Z" fill="#00AF7E"/>
<path d="M142.778 332.878H200.842L178.774 391.617H120.217L142.778 332.878ZM176.605 244.798H233.933L222.903 274.158H165.33L176.605 244.798ZM391.73 391.617L333.2 391.59L278.049 244.798L255.991 186.079H199.153L224.522 120H287.447L312.829 186.079L335.377 244.798L391.73 391.617Z" fill="white"/>
<path d="M255.99 186.079L233.932 244.799H128.058L106 186.079H255.99ZM289.076 274.158L311.134 332.878H128.058L106 274.158H289.076ZM406 274.158L383.942 332.878H369.198L346.651 274.158H406Z" fill="#00AF7E"/>
</g>
<defs>
<clipPath id="clip0_197_16">
<rect width="512" height="512" fill="white"/>
</clipPath>
</defs>
</svg>
