<svg width="512" height="512" viewBox="0 0 512 512" fill="none" xmlns="http://www.w3.org/2000/svg">
<g clip-path="url(#clip0_111_3485)">
<path d="M0 0H512V512H0V0Z" fill="#2B2F3C"/>
<path d="M197.746 232.063L255.992 173.801L314.287 232.096L348.188 198.196L255.992 106L163.846 198.163L197.746 232.063ZM106 255.992L139.9 222.091L173.801 255.992L139.9 289.892L106 255.992ZM197.746 279.937L255.992 338.199L314.287 279.904L348.204 313.787L348.188 313.804L255.992 406L163.829 313.837L163.796 313.787L197.746 279.937ZM338.199 256.008L372.1 222.108L406 256.008L372.1 289.909L338.199 256.008Z" fill="#96A0AF"/>
<path d="M290.376 255.976H290.392L255.992 221.575L230.579 247.005L227.661 249.923L221.624 255.959L221.574 255.992L221.624 256.042L255.992 290.426L290.392 256.026L290.409 255.992H290.376" fill="#96A0AF"/>
<path d="M0 0H512V512H0V0Z" fill="#EEB312"/>
<path d="M197.746 232.063L255.992 173.801L314.287 232.096L348.188 198.196L255.992 106L163.846 198.163L197.746 232.063ZM106 255.992L139.9 222.091L173.801 255.992L139.9 289.892L106 255.992ZM197.746 279.937L255.992 338.199L314.287 279.904L348.204 313.787L348.188 313.804L255.992 406L163.829 313.837L163.796 313.787L197.746 279.937ZM338.199 256.008L372.1 222.108L406 256.008L372.1 289.909L338.199 256.008Z" fill="white"/>
<path d="M290.376 255.976H290.392L255.992 221.575L230.579 247.005L227.661 249.923L221.624 255.959L221.574 255.992L221.624 256.042L255.992 290.426L290.392 256.026L290.409 255.992H290.376" fill="white"/>
</g>
<defs>
<clipPath id="clip0_111_3485">
<rect width="512" height="512" fill="white"/>
</clipPath>
</defs>
</svg>
