<svg width="512" height="512" viewBox="0 0 512 512" fill="none" xmlns="http://www.w3.org/2000/svg">
<g clip-path="url(#clip0_111_3426)">
<path d="M0 0H512V512H0V0Z" fill="#2B2F3C"/>
<path d="M375.373 224.714C380.366 191.333 354.95 173.389 320.199 161.418L331.471 116.199L303.946 109.34L292.971 153.366C285.735 151.563 278.304 149.862 270.919 148.177L281.972 103.86L254.464 97L243.182 142.203C237.193 140.839 231.313 139.491 225.607 138.072L225.636 137.93L187.678 128.452L180.356 157.85C180.356 157.85 200.778 162.531 200.347 162.821C211.495 165.604 213.509 172.981 213.173 178.829L200.33 230.343C201.1 230.54 202.096 230.82 203.192 231.261C202.276 231.032 201.295 230.781 200.284 230.54L182.285 302.702C180.921 306.088 177.463 311.168 169.671 309.24C169.945 309.639 149.664 304.246 149.664 304.246L136 335.753L171.819 344.683C178.483 346.353 185.013 348.1 191.441 349.746L180.051 395.482L207.544 402.343L218.824 357.092C226.115 359.069 233.427 360.966 240.759 362.784L229.518 407.821L257.043 414.682L268.433 369.032C315.369 377.914 350.661 374.331 365.518 331.881C377.489 297.7 364.922 277.983 340.227 265.128C358.212 260.98 371.759 249.15 375.373 224.714ZM312.483 312.9C303.978 347.082 246.427 328.603 227.77 323.97L242.885 263.379C261.542 268.036 321.373 277.255 312.483 312.9ZM320.998 224.22C313.236 255.312 265.337 239.515 249.8 235.642L263.503 180.687C279.04 184.56 329.079 191.788 320.998 224.22Z" fill="#96A0AF"/>
<path d="M0 0H512V512H0V0Z" fill="#FF9E08"/>
<path d="M375.373 224.714C380.366 191.333 354.95 173.389 320.199 161.418L331.471 116.199L303.946 109.34L292.971 153.366C285.735 151.563 278.304 149.862 270.919 148.177L281.972 103.86L254.464 97L243.182 142.203C237.193 140.839 231.313 139.491 225.607 138.072L225.636 137.93L187.678 128.452L180.356 157.85C180.356 157.85 200.778 162.531 200.347 162.821C211.495 165.604 213.509 172.981 213.173 178.829L200.33 230.343C201.1 230.54 202.096 230.82 203.192 231.261C202.276 231.032 201.295 230.781 200.284 230.54L182.285 302.702C180.921 306.088 177.463 311.168 169.671 309.24C169.945 309.639 149.664 304.246 149.664 304.246L136 335.753L171.819 344.683C178.483 346.353 185.013 348.1 191.441 349.746L180.051 395.482L207.544 402.343L218.824 357.092C226.115 359.069 233.427 360.966 240.759 362.784L229.518 407.821L257.043 414.682L268.433 369.032C315.369 377.914 350.661 374.331 365.518 331.881C377.489 297.7 364.922 277.983 340.227 265.128C358.212 260.98 371.759 249.15 375.373 224.714ZM312.483 312.9C303.978 347.082 246.427 328.603 227.77 323.97L242.885 263.379C261.542 268.036 321.373 277.255 312.483 312.9ZM320.998 224.22C313.236 255.312 265.337 239.515 249.8 235.642L263.503 180.687C279.04 184.56 329.079 191.788 320.998 224.22Z" fill="white"/>
</g>
<defs>
<clipPath id="clip0_111_3426">
<rect width="512" height="512" fill="white"/>
</clipPath>
</defs>
</svg>
