<svg width="512" height="512" viewBox="0 0 512 512" fill="none" xmlns="http://www.w3.org/2000/svg">
<g clip-path="url(#clip0_111_3477)">
<path d="M0 0H512V512H0V0Z" fill="#2B2F3C"/>
<path fill-rule="evenodd" clip-rule="evenodd" d="M365.548 312.285C352.639 327.616 336.201 334.143 328.953 337.142C325.376 338.617 319.17 340.83 312.467 343.043L323.933 385.829L297.601 392.885L286.327 350.789L266.282 356.161L277.539 398.257L251.207 405.313L239.933 363.217L188.135 377.105L185.088 344.021L200.82 339.804C206.112 338.392 208.197 337.302 209.849 334.624C211.5 331.93 211.132 328.61 210.442 326.012L181.255 217.059C179.427 210.228 178.369 208.544 174.295 205.866C170.222 203.204 162.717 204.711 158.547 205.834L143.329 209.907L136 182.565L187.798 168.693L176.492 126.484L202.825 119.428L214.146 161.637L234.192 156.265L222.886 114.056L249.219 107L260.669 149.706C280.618 145.664 296.238 145.488 311.505 151.502C331.278 159.263 336.073 180.656 337.067 185.804C338.045 190.936 338.43 201.263 335.688 208.72C332.946 216.177 323.789 225.366 323.789 225.366C323.789 225.366 337.308 224.629 348.116 228.991C358.909 233.353 368.756 243.504 373.053 261.08C377.383 278.656 378.458 296.97 365.548 312.285ZM272.536 260.454C259.257 263.084 242.756 268.441 242.756 268.441L257.894 324.906C257.894 324.906 275.47 320.608 286.921 316.615C298.387 312.606 309.645 306.431 314.792 301.492C319.924 296.553 325.793 289.433 322.33 276.523C318.882 263.598 308.811 260.487 303.23 259.364C297.649 258.209 285.814 257.824 272.536 260.454ZM257.638 236.351C267.147 233.417 276.753 228.461 283.04 222.432C289.342 216.386 291.812 208.881 289.005 199.339C286.183 189.813 277.619 183.398 265.897 182.982C254.174 182.549 246.845 184.264 238.57 186.349C230.295 188.434 222.117 191.417 222.117 191.417L235.748 242.221C235.748 242.221 248.144 239.302 257.638 236.351Z" fill="#96A0AF"/>
<path d="M0 0H512V512H0V0Z" fill="#7FB14E"/>
<path fill-rule="evenodd" clip-rule="evenodd" d="M365.548 312.285C352.639 327.616 336.201 334.143 328.953 337.142C325.376 338.617 319.17 340.83 312.467 343.043L323.933 385.829L297.601 392.885L286.327 350.789L266.282 356.161L277.539 398.257L251.207 405.313L239.933 363.217L188.135 377.105L185.088 344.021L200.82 339.804C206.112 338.392 208.197 337.302 209.849 334.624C211.5 331.93 211.132 328.61 210.442 326.012L181.255 217.059C179.427 210.228 178.369 208.544 174.295 205.866C170.222 203.204 162.717 204.711 158.547 205.834L143.329 209.907L136 182.565L187.798 168.693L176.492 126.484L202.825 119.428L214.146 161.637L234.192 156.265L222.886 114.056L249.219 107L260.669 149.706C280.618 145.664 296.238 145.488 311.505 151.502C331.278 159.263 336.073 180.656 337.067 185.804C338.045 190.936 338.43 201.263 335.688 208.72C332.946 216.177 323.789 225.366 323.789 225.366C323.789 225.366 337.308 224.629 348.116 228.991C358.909 233.353 368.756 243.504 373.053 261.08C377.383 278.656 378.458 296.97 365.548 312.285ZM272.536 260.454C259.257 263.084 242.756 268.441 242.756 268.441L257.894 324.906C257.894 324.906 275.47 320.608 286.921 316.615C298.387 312.606 309.645 306.431 314.792 301.492C319.924 296.553 325.793 289.433 322.33 276.523C318.882 263.598 308.811 260.487 303.23 259.364C297.649 258.209 285.814 257.824 272.536 260.454ZM257.638 236.351C267.147 233.417 276.753 228.461 283.04 222.432C289.342 216.386 291.812 208.881 289.005 199.339C286.183 189.813 277.619 183.398 265.897 182.982C254.174 182.549 246.845 184.264 238.57 186.349C230.295 188.434 222.117 191.417 222.117 191.417L235.748 242.221C235.748 242.221 248.144 239.302 257.638 236.351Z" fill="white"/>
</g>
<defs>
<clipPath id="clip0_111_3477">
<rect width="512" height="512" fill="white"/>
</clipPath>
</defs>
</svg>
