<svg width="512" height="512" viewBox="0 0 512 512" fill="none" xmlns="http://www.w3.org/2000/svg">
<g clip-path="url(#clip0_111_3282)">
<path d="M0 0H512V512H0V0Z" fill="#2B2F3C"/>
<path d="M387.25 146H124.75C108.897 146 96 158.885 96 174.721V337.059C96 352.896 108.897 365.78 124.75 365.78H387.25C403.103 365.78 416 352.896 416 337.059V174.721C416 158.885 403.103 146 387.25 146ZM196 233.413C196 245.807 185.907 255.89 173.5 255.89H158.5C146.093 255.89 136 245.807 136 233.413V218.428C136 206.033 146.093 195.95 158.5 195.95H173.5C185.907 195.95 196 206.033 196 218.428V233.413ZM324.562 284.43C322.394 284.43 320.212 283.73 318.377 282.286C314.041 278.87 313.296 272.588 316.715 268.255C319.519 264.704 321 260.427 321 255.89C321 251.353 319.519 247.076 316.716 243.524C313.296 239.192 314.041 232.91 318.378 229.494C322.715 226.079 329.003 226.822 332.423 231.155C337.969 238.208 340.989 246.918 341 255.89C340.989 264.863 337.969 273.572 332.422 280.625C331.486 281.813 330.292 282.773 328.93 283.432C327.568 284.091 326.075 284.432 324.562 284.43ZM356.836 305.913C355.898 306.959 354.751 307.795 353.468 308.367C352.185 308.939 350.796 309.233 349.391 309.231C346.926 309.234 344.547 308.324 342.714 306.676C338.604 302.991 338.262 296.674 341.951 292.568C351.005 282.498 356.01 269.432 356 255.89C356.009 242.348 351.005 229.282 341.951 219.212C338.262 215.105 338.604 208.789 342.714 205.105C346.825 201.42 353.147 201.761 356.836 205.868C369.185 219.601 376.012 237.421 376 255.89C376 274.39 369.194 292.155 356.836 305.913Z" fill="#96A0AF"/>
<path d="M0 0H512V512H0V0Z" fill="#5558FF"/>
<path d="M387.25 146H124.75C108.897 146 96 158.885 96 174.721V337.059C96 352.896 108.897 365.78 124.75 365.78H387.25C403.103 365.78 416 352.896 416 337.059V174.721C416 158.885 403.103 146 387.25 146ZM196 233.413C196 245.807 185.907 255.89 173.5 255.89H158.5C146.093 255.89 136 245.807 136 233.413V218.428C136 206.033 146.093 195.95 158.5 195.95H173.5C185.907 195.95 196 206.033 196 218.428V233.413ZM324.562 284.43C322.394 284.43 320.212 283.73 318.377 282.286C314.041 278.87 313.296 272.588 316.715 268.255C319.519 264.704 321 260.427 321 255.89C321 251.353 319.519 247.076 316.716 243.524C313.296 239.192 314.041 232.91 318.378 229.494C322.715 226.079 329.003 226.822 332.423 231.155C337.969 238.208 340.989 246.918 341 255.89C340.989 264.863 337.969 273.572 332.422 280.625C331.486 281.813 330.292 282.773 328.93 283.432C327.568 284.091 326.075 284.432 324.562 284.43ZM356.836 305.913C355.898 306.959 354.751 307.795 353.468 308.367C352.185 308.939 350.796 309.233 349.391 309.231C346.926 309.234 344.547 308.324 342.714 306.676C338.604 302.991 338.262 296.674 341.951 292.568C351.005 282.498 356.01 269.432 356 255.89C356.009 242.348 351.005 229.282 341.951 219.212C338.262 215.105 338.604 208.789 342.714 205.105C346.825 201.42 353.147 201.761 356.836 205.868C369.185 219.601 376.012 237.421 376 255.89C376 274.39 369.194 292.155 356.836 305.913Z" fill="white"/>
</g>
<defs>
<clipPath id="clip0_111_3282">
<rect width="512" height="512" fill="white"/>
</clipPath>
</defs>
</svg>
