<svg width="512" height="512" viewBox="0 0 512 512" fill="none" xmlns="http://www.w3.org/2000/svg">
<g clip-path="url(#clip0_111_3497)">
<path d="M0 0H512V512H0V0Z" fill="#2B2F3C"/>
<path d="M299.418 142H197.434L188.99 189.237L280.988 189.346C326.309 189.346 339.707 205.798 339.318 233.109C339.131 247.1 333.055 270.75 330.437 278.415C323.458 298.855 309.109 322.178 255.344 322.084L165.901 322.038L157.426 369.291H259.161C295.041 369.291 310.324 365.115 326.465 357.653C362.298 341.107 383.611 305.741 392.148 259.595C404.877 190.889 389.032 142 299.403 142H299.418Z" fill="#96A0AF"/>
<path d="M153.453 231.925C126.75 231.925 122.917 249.328 120.393 259.844C117.091 273.616 116 279.194 116 279.194H220.383C247.102 279.194 250.919 261.791 253.459 251.275C256.762 237.503 257.852 231.925 257.852 231.925H153.453Z" fill="#96A0AF"/>
<path d="M0 0H512V512H0V0Z" fill="#31A0F5"/>
<path d="M299.418 142H197.434L188.99 189.237L280.988 189.346C326.309 189.346 339.707 205.798 339.318 233.109C339.131 247.1 333.055 270.75 330.437 278.415C323.458 298.855 309.109 322.178 255.344 322.084L165.901 322.038L157.426 369.291H259.161C295.041 369.291 310.324 365.115 326.465 357.653C362.298 341.107 383.611 305.741 392.148 259.595C404.877 190.889 389.032 142 299.403 142H299.418Z" fill="white"/>
<path d="M153.453 231.925C126.75 231.925 122.917 249.328 120.393 259.844C117.091 273.616 116 279.194 116 279.194H220.383C247.102 279.194 250.919 261.791 253.459 251.275C256.762 237.503 257.852 231.925 257.852 231.925H153.453Z" fill="white"/>
</g>
<defs>
<clipPath id="clip0_111_3497">
<rect width="512" height="512" fill="white"/>
</clipPath>
</defs>
</svg>
