<svg width="512" height="512" viewBox="0 0 512 512" fill="none" xmlns="http://www.w3.org/2000/svg">
<g clip-path="url(#clip0_111_3549)">
<path d="M0 0H512V512H0V0Z" fill="#2B2F3C"/>
<path d="M161 138C141 138 131.5 145.513 131.5 163.044V233.168L146 218.642L161 203.115V180.575C161 170.557 168.5 168.053 176 168.053H290.999L300.999 153.027L311.499 138L242.5 138.501C204.5 138.501 178.5 138 161 138ZM326 164.046C316.501 178.572 294.501 209.626 277.501 233.669L246.001 277.747V373.416H275.501V322.826L276 278.247L313.5 325.831L351.001 373.416H381C368.501 355.885 336.001 313.309 323.501 295.778L296 258.212L336.001 198.106C357.001 167.552 376 139.503 376 138H343.5C326 164.046 341 141.506 326 164.046ZM161 238.178L131 268.231V373.417H161V268.231H216V238.178H161Z" fill="#96A0AF"/>
<path d="M0 0H512V512H0V0Z" fill="#6330F5"/>
<path d="M161 138C141 138 131.5 145.513 131.5 163.044V233.168L146 218.642L161 203.115V180.575C161 170.557 168.5 168.053 176 168.053H290.999L300.999 153.027L311.499 138L242.5 138.501C204.5 138.501 178.5 138 161 138ZM326 164.046C316.501 178.572 294.501 209.626 277.501 233.669L246.001 277.747V373.416H275.501V322.826L276 278.247L313.5 325.831L351.001 373.416H381C368.501 355.885 336.001 313.309 323.501 295.778L296 258.212L336.001 198.106C357.001 167.552 376 139.503 376 138H343.5C326 164.046 341 141.506 326 164.046ZM161 238.178L131 268.231V373.417H161V268.231H216V238.178H161Z" fill="white"/>
</g>
<defs>
<clipPath id="clip0_111_3549">
<rect width="512" height="512" fill="white"/>
</clipPath>
</defs>
</svg>
