<svg width="512" height="512" viewBox="0 0 512 512" fill="none" xmlns="http://www.w3.org/2000/svg">
<g clip-path="url(#clip0_111_3434)">
<path d="M0 0H512V512H0V0Z" fill="#2B2F3C"/>
<path fill-rule="evenodd" clip-rule="evenodd" d="M255.498 271.01L233.98 343.504H348.995C352.481 343.504 354.996 346.004 354.996 349.505V351.005L344.995 385.51C344.54 387.133 343.554 388.556 342.194 389.55C340.833 390.545 339.178 391.054 337.494 390.995H161.5L190.989 290.512L158 300.513L165.501 277.51L198.49 267.509L239.996 126.505C240.447 124.879 241.433 123.453 242.793 122.455C244.154 121.457 245.811 120.946 247.497 121.004H291.988C295.488 121.004 297.989 123.505 297.989 127.005V128.521L262.984 247.506L295.988 237.505L288.987 261.508L255.498 271.01Z" fill="#96A0AF"/>
<path d="M0 0H512V512H0V0Z" fill="#A5A5A5"/>
<path fill-rule="evenodd" clip-rule="evenodd" d="M255.498 271.01L233.98 343.504H348.995C352.481 343.504 354.996 346.004 354.996 349.505V351.005L344.995 385.51C344.54 387.133 343.554 388.556 342.194 389.55C340.833 390.545 339.178 391.054 337.494 390.995H161.5L190.989 290.512L158 300.513L165.501 277.51L198.49 267.509L239.996 126.505C240.447 124.879 241.433 123.453 242.793 122.455C244.154 121.457 245.811 120.946 247.497 121.004H291.988C295.488 121.004 297.989 123.505 297.989 127.005V128.521L262.984 247.506L295.988 237.505L288.987 261.508L255.498 271.01Z" fill="white"/>
</g>
<defs>
<clipPath id="clip0_111_3434">
<rect width="512" height="512" fill="white"/>
</clipPath>
</defs>
</svg>
