<svg width="512" height="512" viewBox="0 0 512 512" fill="none" xmlns="http://www.w3.org/2000/svg">
<g clip-path="url(#clip0_111_3365)">
<path d="M0 0H512V512H0V0Z" fill="#2B2F3C"/>
<path opacity="0.7" fill-rule="evenodd" clip-rule="evenodd" d="M256 338.468C280.363 319.239 296 289.446 296 256C296 222.554 280.363 192.761 256 173.532C231.637 192.761 216 222.554 216 256C216 289.446 231.637 319.239 256 338.468Z" fill="#96A0AF"/>
<path opacity="0.4" d="M215.865 256C215.85 240.099 219.455 224.403 226.408 210.102C233.362 195.798 243.479 183.264 255.993 173.449C240.491 161.273 221.878 153.701 202.278 151.6C182.677 149.497 162.88 152.948 145.147 161.559C127.418 170.168 112.468 183.59 102.006 200.293C91.5477 216.991 86.0012 236.297 86.0012 256C86.0012 275.703 91.5477 295.009 102.006 311.707C112.468 328.41 127.418 341.832 145.147 350.441C162.88 359.052 182.677 362.503 202.278 360.4C221.878 358.299 240.491 350.727 255.993 338.551C243.479 328.736 233.362 316.202 226.408 301.898C219.456 287.597 215.851 271.901 215.865 256Z" fill="#96A0AF"/>
<path d="M426 256C426.001 275.703 420.455 295.008 409.996 311.706C399.535 328.409 384.586 341.832 366.857 350.441C349.125 359.051 329.329 362.502 309.729 360.399C290.129 358.297 271.515 350.726 256.012 338.551C268.516 328.726 278.625 316.19 285.577 301.888C292.529 287.59 296.141 271.899 296.141 256C296.141 240.101 292.529 224.41 285.577 210.112C278.625 195.81 268.516 183.274 256.012 173.449C271.515 161.274 290.129 153.703 309.729 151.601C329.329 149.498 349.125 152.949 366.857 161.559C384.586 170.168 399.535 183.591 409.996 200.294C420.455 216.992 426.001 236.297 426 256Z" fill="#96A0AF"/>
<path d="M0 0H512V512H0V0Z" fill="white"/>
<path d="M301.974 173.456H210.041V338.558H301.974V173.456Z" fill="#FF5F00"/>
<path d="M215.865 256C215.85 240.099 219.455 224.403 226.408 210.102C233.362 195.798 243.479 183.264 255.993 173.449C240.491 161.273 221.878 153.701 202.278 151.6C182.677 149.497 162.88 152.948 145.147 161.559C127.418 170.168 112.468 183.59 102.006 200.293C91.5477 216.991 86.0012 236.297 86.0012 256C86.0012 275.703 91.5477 295.009 102.006 311.707C112.468 328.41 127.418 341.832 145.147 350.441C162.88 359.052 182.677 362.503 202.278 360.4C221.878 358.299 240.491 350.727 255.993 338.551C243.479 328.736 233.362 316.202 226.408 301.898C219.456 287.597 215.851 271.901 215.865 256Z" fill="#EB001B"/>
<path d="M426 256C426.001 275.703 420.455 295.008 409.996 311.706C399.535 328.409 384.586 341.832 366.857 350.441C349.125 359.051 329.329 362.502 309.729 360.399C290.129 358.297 271.515 350.726 256.012 338.551C268.516 328.726 278.625 316.19 285.577 301.888C292.529 287.59 296.141 271.899 296.141 256C296.141 240.101 292.529 224.41 285.577 210.112C278.625 195.81 268.516 183.274 256.012 173.449C271.515 161.274 290.129 153.703 309.729 151.601C329.329 149.498 349.125 152.949 366.857 161.559C384.586 170.168 399.535 183.591 409.996 200.294C420.455 216.992 426.001 236.297 426 256Z" fill="#F79E1B"/>
</g>
<defs>
<clipPath id="clip0_111_3365">
<rect width="512" height="512" fill="white"/>
</clipPath>
</defs>
</svg>
