<svg width="512" height="512" viewBox="0 0 512 512" fill="none" xmlns="http://www.w3.org/2000/svg">
<g clip-path="url(#clip0_111_3385)">
<path d="M0 0H512V512H0V0Z" fill="#0F754E"/>
<path fill-rule="evenodd" clip-rule="evenodd" d="M117.441 210.016C120.478 209.998 129.506 209.185 133.33 222.09C135.905 230.783 140.008 245.023 145.639 264.809H147.932C153.97 243.949 158.117 229.709 160.375 222.09C164.239 209.05 173.898 210.016 177.761 210.016L207.57 210.016V302.743H177.188V248.098H175.151L158.214 302.743H135.356L118.419 248.057H116.382V302.743H86V210.016L117.441 210.016ZM251.198 210.016V264.702H253.622L274.224 219.734C278.223 210.785 286.746 210.016 286.746 210.016H316.147V302.743H285.13V248.057H282.707L262.509 293.025C258.51 301.934 249.582 302.743 249.582 302.743H220.182V210.016H251.198ZM423.354 254.081C419.027 266.341 405.441 275.121 390.398 275.121H357.871V302.743H328.376V254.081H423.354Z" fill="white"/>
<path fill-rule="evenodd" clip-rule="evenodd" d="M391.82 210.016H326.829C328.376 230.66 346.154 248.333 364.558 248.333H425.403C428.914 231.175 416.827 210.016 391.82 210.016Z" fill="white"/>
</g>
<defs>
<clipPath id="clip0_111_3385">
<rect width="512" height="512" fill="white"/>
</clipPath>
</defs>
</svg>
