<svg width="512" height="512" viewBox="0 0 512 512" fill="none" xmlns="http://www.w3.org/2000/svg">
<g clip-path="url(#clip0_111_3521)">
<path d="M0 0H512V512H0V0Z" fill="#2B2F3C"/>
<path d="M255.981 106C232.223 105.999 208.805 111.643 187.656 122.465C166.506 133.288 148.231 148.981 134.335 168.251C120.438 187.52 111.318 209.815 107.725 233.299C104.132 256.784 106.17 280.785 113.67 303.328H158.517V177.139L255.981 274.635L353.477 177.139V303.344H398.325C409.647 269.325 408.408 232.375 394.832 199.191C381.256 166.007 356.242 138.784 324.322 122.455C303.167 111.634 279.743 105.994 255.981 106Z" fill="#96A0AF"/>
<path d="M233.574 297.059L191.027 254.496V333.904H127.824C141.202 355.906 160.021 374.091 182.467 386.709C204.914 399.326 230.232 405.95 255.981 405.943C281.73 405.958 307.048 399.337 329.493 386.719C351.938 374.101 370.752 355.911 384.12 333.904H320.934V254.496L278.387 297.059L255.981 319.466L233.59 297.059H233.574Z" fill="#96A0AF"/>
<path d="M0 0H512V512H0V0Z" fill="#DC5C01"/>
<path d="M255.981 106C232.223 105.999 208.805 111.643 187.656 122.465C166.506 133.288 148.231 148.981 134.335 168.251C120.438 187.52 111.318 209.815 107.725 233.299C104.132 256.784 106.17 280.785 113.67 303.328H158.517V177.139L255.981 274.635L353.477 177.139V303.344H398.325C409.647 269.325 408.408 232.375 394.832 199.191C381.256 166.007 356.242 138.784 324.322 122.455C303.167 111.634 279.743 105.994 255.981 106Z" fill="white"/>
<path d="M233.574 297.059L191.027 254.496V333.904H127.824C141.202 355.906 160.021 374.091 182.467 386.709C204.914 399.326 230.232 405.95 255.981 405.943C281.73 405.958 307.048 399.337 329.493 386.719C351.938 374.101 370.752 355.911 384.12 333.904H320.934V254.496L278.387 297.059L255.981 319.466L233.59 297.059H233.574Z" fill="white"/>
</g>
<defs>
<clipPath id="clip0_111_3521">
<rect width="512" height="512" fill="white"/>
</clipPath>
</defs>
</svg>
