<svg width="512" height="512" viewBox="0 0 512 512" fill="none" xmlns="http://www.w3.org/2000/svg">
<g clip-path="url(#clip0_197_30)">
<path d="M0 0H512V512H0V0Z" fill="#2B2F3C"/>
<path fill-rule="evenodd" clip-rule="evenodd" d="M90.704 268.386L91.651 268.396C94.518 268.43 102.904 268.529 107.025 268.359C114.504 268.075 120.888 265.286 125.686 259.513C130.422 253.825 131.806 247.137 131.49 239.943C130.884 226.431 120.683 216.394 106.966 216.106C100.25 215.964 93.535 215.995 86.819 216.026H86.809C83.998 216.038 81.183 216.051 78.368 216.051C76.723 216.051 76 216.761 76 218.385V293.758C76 295.437 76.751 296.234 78.427 296.234C81.692 296.262 84.984 296.262 88.249 296.234C89.894 296.206 90.704 295.41 90.704 293.758C90.72 291.955 90.714 284.291 90.707 277.535L90.704 268.386ZM90.76 256.413C90.76 246.884 90.76 237.525 90.791 227.997H103.5C109.855 227.997 114.535 231.409 116.18 237.498C117.623 242.849 116.699 247.851 113.117 252.204C110.808 255.017 107.773 256.443 104.049 256.413C101.143 256.394 98.253 256.4 95.316 256.406L90.76 256.413ZM185.725 296.262C183.59 296.432 182.405 295.41 181.654 293.588L181.657 293.585L180.214 290.191L180.13 289.991L180.099 289.923C178.982 287.301 177.864 284.677 176.8 282.04C176.396 281.015 175.847 280.762 174.783 280.762H173.791C163.808 280.79 153.856 280.817 143.872 280.762C142.687 280.762 142.196 281.188 141.793 282.182C140.665 284.945 139.512 287.697 138.333 290.438L137.054 293.446C136.101 295.721 135.294 296.234 132.781 296.234H124.401C121.891 296.234 120.994 294.925 122.061 292.652C123.548 289.426 130.059 275.426 137.265 259.932L138.302 257.7L138.342 257.614L139.015 256.162C144.907 243.506 150.791 230.847 156.668 218.184C157.217 217.017 157.853 216.224 159.296 216.193C160.798 216.165 161.667 216.678 162.301 218.07C173.712 242.901 185.133 267.723 196.559 292.535C197.686 294.98 196.82 296.262 194.105 296.262C192.658 296.234 187.057 296.148 185.725 296.262ZM170.621 268.671H148.031C151.738 260.405 155.464 252.147 159.21 243.898C162.999 252.162 166.803 260.42 170.621 268.671Z" fill="#96A0AF"/>
<path d="M221.511 243.472C227.402 234.967 233.266 226.443 239.101 217.9H239.105C239.942 216.65 240.923 216.134 242.425 216.165C244.753 216.224 247.093 216.214 249.427 216.202L250.687 216.193H252.248C253.315 216.193 254.414 216.193 254.991 217.329C255.568 218.441 255.05 219.321 254.414 220.231C246.207 232.209 237.983 244.175 229.741 256.129C229.033 257.123 228.669 258.32 228.702 259.54C228.73 270.776 228.739 282 228.73 293.217C228.73 295.579 228.066 296.234 225.639 296.234H216.828C214.69 296.234 213.998 295.524 213.998 293.418C213.998 281.957 213.988 270.492 213.97 259.028C213.961 258.188 213.71 257.368 213.247 256.666C210.647 252.792 207.116 247.561 203.525 242.241L202.465 240.672L202.437 240.632C195.278 230.026 188.217 219.565 188.087 219.234C187.454 217.786 188.261 216.279 189.85 216.248C193.799 216.14 197.751 216.159 201.699 216.307C202.419 216.335 203.285 217.159 203.747 217.814C207.978 223.906 212.201 230.004 216.415 236.108L218.252 238.767C220.103 241.445 221.373 243.283 221.511 243.472Z" fill="#96A0AF"/>
<path fill-rule="evenodd" clip-rule="evenodd" d="M419.834 265.229C419.665 264.903 419.49 264.565 419.303 264.209C419.85 263.919 420.409 263.652 420.979 263.409C432.71 257.845 437.709 246.838 435.484 234.913C433.402 223.705 423.781 216.091 411.994 216.029C404.964 215.992 397.936 216.004 390.906 216.017C387.39 216.023 383.874 216.029 380.358 216.029C378.365 216.029 377.701 216.715 377.701 218.685V293.273C377.701 295.468 378.306 296.039 380.532 296.039H388.911C391.654 296.039 392.061 295.638 392.061 292.902C392.061 284.146 392.061 275.417 392.03 266.66C392.03 265.407 392.405 264.975 393.675 265.006C396.757 265.091 399.841 265.091 402.923 265.006C404.251 264.978 404.887 265.462 405.437 266.605C408.93 273.812 412.477 281.004 416.021 288.192C417.021 290.218 418.02 292.244 419.017 294.27L419.068 294.378C419.454 295.201 419.847 296.039 421.01 296.039C422.02 296.039 423.031 296.041 424.043 296.043C427.076 296.048 430.111 296.053 433.144 296.012C434.5 295.984 435.282 294.841 434.935 293.529C434.784 293.023 434.562 292.542 434.274 292.1C429.65 283.497 425.026 274.901 420.401 266.318C420.215 265.965 420.029 265.605 419.834 265.229ZM393.257 253.397L392.29 253.399V227.812H409.279C415.262 227.812 419.477 231.007 421.066 236.741C422.571 242.129 420.547 248.233 416.215 251.429C414.521 252.719 412.448 253.412 410.318 253.399C405.641 253.373 396.311 253.391 393.257 253.397Z" fill="#96A0AF"/>
<path d="M276.796 250.259V227.809C277.547 227.809 299.1 227.809 309.301 227.839C311.61 227.839 312.219 227.24 312.219 225.017V219.314C312.219 216.548 311.728 216.063 308.982 216.063H265.527C262.697 216.063 262.207 216.52 262.207 219.367C262.207 243.898 262.234 294.338 262.266 294.52C262.473 295.703 263.206 296.243 264.633 296.268C265.473 296.289 279.409 296.281 292.572 296.275C298.871 296.271 304.992 296.268 309.416 296.268C311.582 296.268 312.246 295.61 312.246 293.474V287.484C312.246 285.029 311.697 284.489 309.214 284.489H276.824V262.041H304.041C306.036 262.041 306.729 261.356 306.729 259.386V253.112C306.729 250.917 306.064 250.259 303.78 250.259H276.796ZM320.244 218.857V256.082C320.235 268.498 320.244 280.895 320.275 293.276C320.275 295.786 320.734 296.243 323.307 296.243H367.509C369.533 296.243 370.141 295.613 370.141 293.591V287.601C370.141 284.862 369.738 284.464 367.022 284.464C356.706 284.464 346.422 284.464 336.106 284.489C335.01 284.489 334.576 284.26 334.576 283.093C334.632 276.535 334.632 269.974 334.576 263.412C334.576 262.214 335.038 262.014 336.106 262.014C340.41 262.044 357.718 262.044 362.109 262.014C363.987 262.014 364.651 261.331 364.651 259.531V253.541C364.651 250.632 364.248 250.231 361.213 250.231L355.337 250.228C348.966 250.224 342.585 250.219 336.224 250.262C334.951 250.262 334.573 249.919 334.573 248.666C334.619 243.958 334.613 239.252 334.608 234.546C334.606 232.978 334.604 231.409 334.604 229.84C334.604 228.821 334.604 228.307 334.862 228.049C335.123 227.787 335.65 227.787 336.711 227.787H367.482C369.564 227.787 370.141 227.188 370.141 225.162V218.746C370.141 216.579 369.564 216.004 367.311 216.004H323.105C320.765 216.004 320.244 216.52 320.244 218.857Z" fill="#96A0AF"/>
<path d="M0 0H512V512H0V0Z" fill="#3D92D7"/>
<path fill-rule="evenodd" clip-rule="evenodd" d="M90.704 268.386L91.651 268.396C94.518 268.43 102.904 268.529 107.025 268.359C114.504 268.075 120.888 265.286 125.686 259.513C130.422 253.825 131.806 247.137 131.49 239.943C130.884 226.431 120.683 216.394 106.966 216.106C100.25 215.964 93.535 215.995 86.819 216.026H86.809C83.998 216.038 81.183 216.051 78.368 216.051C76.723 216.051 76 216.761 76 218.385V293.758C76 295.437 76.751 296.234 78.427 296.234C81.692 296.262 84.984 296.262 88.249 296.234C89.894 296.206 90.704 295.41 90.704 293.758C90.72 291.955 90.714 284.291 90.707 277.535L90.704 268.386ZM90.76 256.413C90.76 246.884 90.76 237.525 90.791 227.997H103.5C109.855 227.997 114.535 231.409 116.18 237.498C117.623 242.849 116.699 247.851 113.117 252.204C110.808 255.017 107.773 256.443 104.049 256.413C101.143 256.394 98.253 256.4 95.316 256.406L90.76 256.413ZM185.725 296.262C183.59 296.432 182.405 295.41 181.654 293.588L181.657 293.585L180.214 290.191L180.13 289.991L180.099 289.923C178.982 287.301 177.864 284.677 176.8 282.04C176.396 281.015 175.847 280.762 174.783 280.762H173.791C163.808 280.79 153.856 280.817 143.872 280.762C142.687 280.762 142.196 281.188 141.793 282.182C140.665 284.945 139.512 287.697 138.333 290.438L137.054 293.446C136.101 295.721 135.294 296.234 132.781 296.234H124.401C121.891 296.234 120.994 294.925 122.061 292.652C123.548 289.426 130.059 275.426 137.265 259.932L138.302 257.7L138.342 257.614L139.015 256.162C144.907 243.506 150.791 230.847 156.668 218.184C157.217 217.017 157.853 216.224 159.296 216.193C160.798 216.165 161.667 216.678 162.301 218.07C173.712 242.901 185.133 267.723 196.559 292.535C197.686 294.98 196.82 296.262 194.105 296.262C192.658 296.234 187.057 296.148 185.725 296.262ZM170.621 268.671H148.031C151.738 260.405 155.464 252.147 159.21 243.898C162.999 252.162 166.803 260.42 170.621 268.671Z" fill="white"/>
<path d="M221.511 243.472C227.402 234.967 233.266 226.443 239.101 217.9H239.105C239.942 216.65 240.923 216.134 242.425 216.165C244.753 216.224 247.093 216.214 249.427 216.202L250.687 216.193H252.248C253.315 216.193 254.414 216.193 254.991 217.329C255.568 218.441 255.05 219.321 254.414 220.231C246.207 232.209 237.983 244.175 229.741 256.129C229.033 257.123 228.669 258.32 228.702 259.54C228.73 270.776 228.739 282 228.73 293.217C228.73 295.579 228.066 296.234 225.639 296.234H216.828C214.69 296.234 213.998 295.524 213.998 293.418C213.998 281.957 213.988 270.492 213.97 259.028C213.961 258.188 213.71 257.368 213.247 256.666C210.647 252.792 207.116 247.561 203.525 242.241L202.465 240.672L202.437 240.632C195.278 230.026 188.217 219.565 188.087 219.234C187.454 217.786 188.261 216.279 189.85 216.248C193.799 216.14 197.751 216.159 201.699 216.307C202.419 216.335 203.285 217.159 203.747 217.814C207.978 223.906 212.201 230.004 216.415 236.108L218.252 238.767C220.103 241.445 221.373 243.283 221.511 243.472Z" fill="white"/>
<path fill-rule="evenodd" clip-rule="evenodd" d="M419.834 265.229C419.665 264.903 419.49 264.565 419.303 264.209C419.85 263.919 420.409 263.652 420.979 263.409C432.71 257.845 437.709 246.838 435.484 234.913C433.402 223.705 423.781 216.091 411.994 216.029C404.964 215.992 397.936 216.004 390.906 216.017C387.39 216.023 383.874 216.029 380.358 216.029C378.365 216.029 377.701 216.715 377.701 218.685V293.273C377.701 295.468 378.306 296.039 380.532 296.039H388.911C391.654 296.039 392.061 295.638 392.061 292.902C392.061 284.146 392.061 275.417 392.03 266.66C392.03 265.407 392.405 264.975 393.675 265.006C396.757 265.091 399.841 265.091 402.923 265.006C404.251 264.978 404.887 265.462 405.437 266.605C408.93 273.812 412.477 281.004 416.021 288.192C417.021 290.218 418.02 292.244 419.017 294.27L419.068 294.378C419.454 295.201 419.847 296.039 421.01 296.039C422.02 296.039 423.031 296.041 424.043 296.043C427.076 296.048 430.111 296.053 433.144 296.012C434.5 295.984 435.282 294.841 434.935 293.529C434.784 293.023 434.562 292.542 434.274 292.1C429.65 283.497 425.026 274.901 420.401 266.318C420.215 265.965 420.029 265.605 419.834 265.229ZM393.257 253.397L392.29 253.399V227.812H409.279C415.262 227.812 419.477 231.007 421.066 236.741C422.571 242.129 420.547 248.233 416.215 251.429C414.521 252.719 412.448 253.412 410.318 253.399C405.641 253.373 396.311 253.391 393.257 253.397Z" fill="white"/>
<path d="M276.796 250.259V227.809C277.547 227.809 299.1 227.809 309.301 227.839C311.61 227.839 312.219 227.24 312.219 225.017V219.314C312.219 216.548 311.728 216.063 308.982 216.063H265.527C262.697 216.063 262.207 216.52 262.207 219.367C262.207 243.898 262.234 294.338 262.266 294.52C262.473 295.703 263.206 296.243 264.633 296.268C265.473 296.289 279.409 296.281 292.572 296.275C298.871 296.271 304.992 296.268 309.416 296.268C311.582 296.268 312.246 295.61 312.246 293.474V287.484C312.246 285.029 311.697 284.489 309.214 284.489H276.824V262.041H304.041C306.036 262.041 306.729 261.356 306.729 259.386V253.112C306.729 250.917 306.064 250.259 303.78 250.259H276.796ZM320.244 218.857V256.082C320.235 268.498 320.244 280.895 320.275 293.276C320.275 295.786 320.734 296.243 323.307 296.243H367.509C369.533 296.243 370.141 295.613 370.141 293.591V287.601C370.141 284.862 369.738 284.464 367.022 284.464C356.706 284.464 346.422 284.464 336.106 284.489C335.01 284.489 334.576 284.26 334.576 283.093C334.632 276.535 334.632 269.974 334.576 263.412C334.576 262.214 335.038 262.014 336.106 262.014C340.41 262.044 357.718 262.044 362.109 262.014C363.987 262.014 364.651 261.331 364.651 259.531V253.541C364.651 250.632 364.248 250.231 361.213 250.231L355.337 250.228C348.966 250.224 342.585 250.219 336.224 250.262C334.951 250.262 334.573 249.919 334.573 248.666C334.619 243.958 334.613 239.252 334.608 234.546C334.606 232.978 334.604 231.409 334.604 229.84C334.604 228.821 334.604 228.307 334.862 228.049C335.123 227.787 335.65 227.787 336.711 227.787H367.482C369.564 227.787 370.141 227.188 370.141 225.162V218.746C370.141 216.579 369.564 216.004 367.311 216.004H323.105C320.765 216.004 320.244 216.52 320.244 218.857Z" fill="white"/>
</g>
<defs>
<clipPath id="clip0_197_30">
<rect width="512" height="512" fill="white"/>
</clipPath>
</defs>
</svg>
