<svg width="512" height="512" viewBox="0 0 512 512" fill="none" xmlns="http://www.w3.org/2000/svg">
<g clip-path="url(#clip0_112_3569)">
<path d="M0 0H512V512H0V0Z" fill="#2B2F3C"/>
<path d="M281.528 284.387C291.7 300.419 297.616 317.069 299.284 334.309C314.069 346.309 337.628 352.216 369.991 352C370.791 338.885 368.827 325.748 364.225 313.441H364.544C361.188 305.526 356.512 298.237 350.716 291.887C350.695 291.637 350.578 291.405 350.388 291.241C348.337 289 346.076 286.959 343.637 285.147C329.397 274.244 312.541 267.484 293.05 264.887C291.254 272.396 287.239 279.191 281.528 284.387ZM343.647 208.628H343.966C353.181 194.697 359.088 174.766 361.656 148.834C347.481 146.678 334.412 147.334 322.441 150.756C312.124 153.844 302.588 159.106 294.475 166.188V166.516L292.553 168.447H292.197C279.381 181.984 270.841 198.869 266.575 219.053C272.432 220.795 277.788 223.913 282.194 228.147C301.834 215.331 322.338 208.825 343.647 208.619V208.628ZM350.078 277.084C352.206 278.798 354.243 280.623 356.181 282.55C371.181 278.491 387.775 269.162 406 254.584C398.561 243.679 388.787 234.568 377.387 227.912C367.956 222.529 357.39 219.443 346.544 218.903H343.647C324.466 219.091 306.128 224.847 288.616 236.181C291.973 241.747 293.851 248.079 294.072 254.575C315.513 257.444 334.178 264.944 350.078 277.084ZM248.547 293.828C256.921 295.409 265.583 294.134 273.147 290.209C282.653 305.303 288.034 320.866 289.319 336.869V337.525C289.541 339.548 289.647 341.583 289.637 343.619C289.506 355.492 286.295 367.127 280.319 377.387C274.319 388.122 265.441 397.666 253.638 406H253.562C241.806 397.619 232.937 388.094 226.966 377.397C221.666 368.311 218.535 358.125 217.816 347.631C220.511 345.119 222.916 342.315 224.988 339.269L225.297 338.959C235.3 325.778 243.053 310.731 248.547 293.828ZM221.509 174.878V175.188C223.506 190.984 229.056 206.481 238.159 221.659C243.571 218.877 249.568 217.424 255.653 217.422H256.403C261.091 195.269 270.559 176.669 284.828 161.688C284.872 161.693 284.916 161.689 284.958 161.676C285 161.663 285.039 161.642 285.072 161.613C285.101 161.58 285.122 161.541 285.136 161.499C285.149 161.457 285.152 161.413 285.147 161.369C285.144 161.325 285.15 161.28 285.164 161.239C285.179 161.197 285.201 161.158 285.231 161.125C285.261 161.091 285.299 161.064 285.341 161.048C285.384 161.031 285.43 161.026 285.475 161.031C282.25 144.531 272.294 126.203 255.578 106C244.846 113.671 235.864 123.532 229.225 134.931C224.516 143.242 221.564 152.432 220.553 161.931C220.943 162.501 221.162 163.172 221.181 163.862C220.743 167.527 220.851 171.236 221.5 174.869H221.509V174.878ZM163.375 219.269L163.159 219.025C146.566 220.919 127.525 229.216 106 243.906C113.463 256.15 122.359 265.75 132.681 272.706C141.676 278.632 151.84 282.555 162.484 284.209L162.728 284.003L165.447 284.247L165.662 284.519C184.281 285.616 202.694 281.322 220.9 271.628C218.475 266.019 217.421 259.913 217.825 253.816C195.372 246.981 177.222 235.478 163.375 219.269ZM211.694 170.331C211.626 167.6 211.711 164.868 211.947 162.147C199.187 153.25 181.366 146.528 158.5 141.953C154.923 154.664 154.225 168.013 156.456 181.028C158.382 191.716 162.816 201.796 169.394 210.438L171.241 212.659C183.709 227.228 199.919 237.588 219.841 243.709C221.95 237.564 225.593 232.059 230.425 227.716C218.828 209.444 212.584 190.328 211.675 170.341L211.694 170.331ZM216.025 334.544L216.278 334.328C227.087 322.656 235.384 308.453 241.169 291.719C235.556 289.352 230.587 285.682 226.675 281.012L226.187 280.45C206.2 291.109 185.875 295.797 165.241 294.512C165.194 294.419 165.119 294.391 165.016 294.381C164.971 294.375 164.926 294.379 164.884 294.394C164.841 294.408 164.803 294.433 164.772 294.466C164.743 294.501 164.705 294.528 164.662 294.545C164.619 294.561 164.573 294.566 164.528 294.559C164.444 294.559 164.369 294.503 164.322 294.428C153.747 307.497 146.106 326.922 141.381 352.694C154.152 355.99 167.478 356.533 180.475 354.287C189.871 352.561 198.812 348.924 206.744 343.6C206.916 342.927 207.288 342.322 207.812 341.866C210.897 339.846 213.665 337.378 216.025 334.544Z" fill="#96A0AF"/>
<path opacity="0.5" d="M265.535 283.001C266.023 282.832 266.538 282.701 267.007 282.494C272.993 280.053 277.955 275.622 281.056 269.95C284.158 264.277 285.208 257.708 284.032 251.351C283.89 250.51 283.718 249.675 283.516 248.847C283.297 248.002 283.041 247.167 282.748 246.344C280.707 240.741 277.025 235.883 272.182 232.404C271.779 232.132 271.376 231.851 270.944 231.597C270.033 231.025 269.088 230.512 268.113 230.06C267.435 229.707 266.741 229.388 266.032 229.104C262.695 227.769 259.135 227.079 255.541 227.069C255.204 227.069 254.885 227.154 254.566 227.163V227.257C250.758 227.424 247.012 228.271 243.504 229.76C236.981 232.595 231.74 237.746 228.792 244.219C225.845 250.692 225.401 258.028 227.546 264.809C229.689 271.591 234.269 277.339 240.403 280.941C246.536 284.543 253.786 285.744 260.754 284.313L262.001 284.069C263.202 283.791 264.383 283.431 265.535 282.991V283.001Z" fill="#96A0AF"/>
<path d="M0 0H512V512H0V0Z" fill="#E25282"/>
<path d="M281.528 284.387C291.7 300.419 297.616 317.069 299.284 334.309C314.069 346.309 337.628 352.216 369.991 352C370.791 338.885 368.827 325.748 364.225 313.441H364.544C361.188 305.526 356.512 298.237 350.716 291.887C350.695 291.637 350.578 291.405 350.388 291.241C348.337 289 346.076 286.959 343.637 285.147C329.397 274.244 312.541 267.484 293.05 264.887C291.254 272.396 287.239 279.191 281.528 284.387ZM343.647 208.628H343.966C353.181 194.697 359.088 174.766 361.656 148.834C347.481 146.678 334.412 147.334 322.441 150.756C312.124 153.844 302.588 159.106 294.475 166.188V166.516L292.553 168.447H292.197C279.381 181.984 270.841 198.869 266.575 219.053C272.432 220.795 277.788 223.913 282.194 228.147C301.834 215.331 322.338 208.825 343.647 208.619V208.628ZM350.078 277.084C352.206 278.798 354.243 280.623 356.181 282.55C371.181 278.491 387.775 269.162 406 254.584C398.561 243.679 388.787 234.568 377.387 227.912C367.956 222.529 357.39 219.443 346.544 218.903H343.647C324.466 219.091 306.128 224.847 288.616 236.181C291.973 241.747 293.851 248.079 294.072 254.575C315.513 257.444 334.178 264.944 350.078 277.084ZM248.547 293.828C256.921 295.409 265.583 294.134 273.147 290.209C282.653 305.303 288.034 320.866 289.319 336.869V337.525C289.541 339.548 289.647 341.583 289.637 343.619C289.506 355.492 286.295 367.127 280.319 377.387C274.319 388.122 265.441 397.666 253.638 406H253.562C241.806 397.619 232.937 388.094 226.966 377.397C221.666 368.311 218.535 358.125 217.816 347.631C220.511 345.119 222.916 342.315 224.988 339.269L225.297 338.959C235.3 325.778 243.053 310.731 248.547 293.828ZM221.509 174.878V175.188C223.506 190.984 229.056 206.481 238.159 221.659C243.571 218.877 249.568 217.424 255.653 217.422H256.403C261.091 195.269 270.559 176.669 284.828 161.688C284.872 161.693 284.916 161.689 284.958 161.676C285 161.663 285.039 161.642 285.072 161.613C285.101 161.58 285.122 161.541 285.136 161.499C285.149 161.457 285.152 161.413 285.147 161.369C285.144 161.325 285.15 161.28 285.164 161.239C285.179 161.197 285.201 161.158 285.231 161.125C285.261 161.091 285.299 161.064 285.341 161.048C285.384 161.031 285.43 161.026 285.475 161.031C282.25 144.531 272.294 126.203 255.578 106C244.846 113.671 235.864 123.532 229.225 134.931C224.516 143.242 221.564 152.432 220.553 161.931C220.943 162.501 221.162 163.172 221.181 163.862C220.743 167.527 220.851 171.236 221.5 174.869H221.509V174.878ZM163.375 219.269L163.159 219.025C146.566 220.919 127.525 229.216 106 243.906C113.463 256.15 122.359 265.75 132.681 272.706C141.676 278.632 151.84 282.555 162.484 284.209L162.728 284.003L165.447 284.247L165.662 284.519C184.281 285.616 202.694 281.322 220.9 271.628C218.475 266.019 217.421 259.913 217.825 253.816C195.372 246.981 177.222 235.478 163.375 219.269ZM211.694 170.331C211.626 167.6 211.711 164.868 211.947 162.147C199.187 153.25 181.366 146.528 158.5 141.953C154.923 154.664 154.225 168.013 156.456 181.028C158.382 191.716 162.816 201.796 169.394 210.438L171.241 212.659C183.709 227.228 199.919 237.588 219.841 243.709C221.95 237.564 225.593 232.059 230.425 227.716C218.828 209.444 212.584 190.328 211.675 170.341L211.694 170.331ZM216.025 334.544L216.278 334.328C227.087 322.656 235.384 308.453 241.169 291.719C235.556 289.352 230.587 285.682 226.675 281.012L226.187 280.45C206.2 291.109 185.875 295.797 165.241 294.512C165.194 294.419 165.119 294.391 165.016 294.381C164.971 294.375 164.926 294.379 164.884 294.394C164.841 294.408 164.803 294.433 164.772 294.466C164.743 294.501 164.705 294.528 164.662 294.545C164.619 294.561 164.573 294.566 164.528 294.559C164.444 294.559 164.369 294.503 164.322 294.428C153.747 307.497 146.106 326.922 141.381 352.694C154.152 355.99 167.478 356.533 180.475 354.287C189.871 352.561 198.812 348.924 206.744 343.6C206.916 342.927 207.288 342.322 207.812 341.866C210.897 339.846 213.665 337.378 216.025 334.544Z" fill="white"/>
<path d="M265.535 283.001C266.023 282.832 266.538 282.701 267.007 282.494C272.993 280.053 277.955 275.622 281.056 269.95C284.158 264.277 285.208 257.708 284.032 251.351C283.89 250.51 283.718 249.675 283.516 248.847C283.297 248.002 283.041 247.167 282.748 246.344C280.707 240.741 277.025 235.883 272.182 232.404C271.779 232.132 271.376 231.851 270.944 231.597C270.033 231.025 269.088 230.512 268.113 230.06C267.435 229.707 266.741 229.388 266.032 229.104C262.695 227.769 259.135 227.079 255.541 227.069C255.204 227.069 254.885 227.154 254.566 227.163V227.257C250.758 227.424 247.012 228.271 243.504 229.76C236.981 232.595 231.74 237.746 228.792 244.219C225.845 250.692 225.401 258.028 227.546 264.809C229.689 271.591 234.269 277.339 240.403 280.941C246.536 284.543 253.786 285.744 260.754 284.313L262.001 284.069C263.202 283.791 264.383 283.431 265.535 282.991V283.001Z" fill="white" fill-opacity="0.5"/>
</g>
<defs>
<clipPath id="clip0_112_3569">
<rect width="512" height="512" fill="white"/>
</clipPath>
</defs>
</svg>
