<svg width="512" height="512" viewBox="0 0 512 512" fill="none" xmlns="http://www.w3.org/2000/svg">
<g clip-path="url(#clip0_111_3418)">
<path d="M0 0H512V512H0V0Z" fill="#2B2F3C"/>
<path fill-rule="evenodd" clip-rule="evenodd" d="M86 259.4C86 259.4 186.715 281.145 200.867 234.34C214.744 188.447 168.726 178.957 168.726 178.957H148.51V255.91H126.849V181.458H107.668V173.591C107.668 173.591 180.339 173.302 188.363 174.24C228.711 178.957 248.348 251.24 183.728 265.643C133.466 276.845 86 259.4 86 259.4ZM126.726 275.979V322.171C126.726 322.171 126.6 332.001 117.733 332.001H106.693V339.711H169.205V331.228H155.377C155.377 331.228 148.244 330.42 148.244 323.167V275.555H126.85L126.726 275.979ZM206.621 340.094H269.581V330.44H251.482C251.482 330.44 245.603 327.119 245.603 320.396V204.134L315.778 339.947L384.426 206.735L382.917 321.655C382.917 321.655 384.638 331.153 374.926 331.153C365.214 331.153 363.154 331.447 363.154 331.447L363.037 338.842H426V330.052H411.303C411.303 330.052 405.176 330.653 405.176 323.925V184.442C405.176 184.442 405.266 181.395 410.688 181.395H423.447V172H384.382L320.065 305.294L256.151 172.941H221.194V180.907H232.293C232.293 180.907 236.141 180.483 236.141 186.331C236.141 192.181 234.633 321.014 234.633 321.014C234.633 321.014 235.14 331.015 224.163 331.015H206.644V340.735L206.621 340.094Z" fill="#96A0AF"/>
<path d="M0 0H512V512H0V0Z" fill="#DC3218"/>
<path fill-rule="evenodd" clip-rule="evenodd" d="M86 259.4C86 259.4 186.715 281.145 200.867 234.34C214.744 188.447 168.726 178.957 168.726 178.957H148.51V255.91H126.849V181.458H107.668V173.591C107.668 173.591 180.339 173.302 188.363 174.24C228.711 178.957 248.348 251.24 183.728 265.643C133.466 276.845 86 259.4 86 259.4ZM126.726 275.979V322.171C126.726 322.171 126.6 332.001 117.733 332.001H106.693V339.711H169.205V331.228H155.377C155.377 331.228 148.244 330.42 148.244 323.167V275.555H126.85L126.726 275.979ZM206.621 340.094H269.581V330.44H251.482C251.482 330.44 245.603 327.119 245.603 320.396V204.134L315.778 339.947L384.426 206.735L382.917 321.655C382.917 321.655 384.638 331.153 374.926 331.153C365.214 331.153 363.154 331.447 363.154 331.447L363.037 338.842H426V330.052H411.303C411.303 330.052 405.176 330.653 405.176 323.925V184.442C405.176 184.442 405.266 181.395 410.688 181.395H423.447V172H384.382L320.065 305.294L256.151 172.941H221.194V180.907H232.293C232.293 180.907 236.141 180.483 236.141 186.331C236.141 192.181 234.633 321.014 234.633 321.014C234.633 321.014 235.14 331.015 224.163 331.015H206.644V340.735L206.621 340.094Z" fill="white"/>
</g>
<defs>
<clipPath id="clip0_111_3418">
<rect width="512" height="512" fill="white"/>
</clipPath>
</defs>
</svg>
