<svg width="512" height="512" viewBox="0 0 512 512" fill="none" xmlns="http://www.w3.org/2000/svg">
<g clip-path="url(#clip0_111_3294)">
<path d="M0 0H512V512H0V0Z" fill="#FF8C00"/>
<path d="M322.49 293.895C323.051 298.306 321.797 300.011 320.4 300.011C319.003 300.011 317.045 298.306 314.955 294.896C312.865 291.486 312.018 287.636 313.14 285.656C313.833 284.369 315.373 283.797 317.188 284.512C320.818 285.942 322.215 291.475 322.49 293.895ZM302.943 303.575C307.266 307.271 308.531 311.528 306.287 314.663C305.583 315.486 304.704 316.142 303.715 316.584C302.725 317.025 301.65 317.241 300.567 317.215C298.156 317.239 295.82 316.378 294 314.795C290.095 311.385 288.973 305.698 291.481 302.574C292.017 301.912 292.702 301.386 293.48 301.039C294.258 300.693 295.108 300.537 295.958 300.583C298.191 300.583 300.71 301.573 302.943 303.564V303.575ZM151 243.834C151 189.791 194.01 146 247.074 146C300.149 146 343.159 189.802 343.159 243.834C343.161 261.471 338.488 278.794 329.618 294.038C329.332 294.467 328.628 294.324 328.496 293.752C325.152 269.717 310.764 256.495 289.82 252.513C287.994 252.227 287.719 251.083 290.095 250.808C296.519 250.236 305.594 250.379 310.335 251.237C310.625 248.732 310.768 246.213 310.764 243.691C310.764 207.996 282.274 178.989 247.217 178.989C212.171 178.989 183.681 207.996 183.681 243.691C183.681 279.397 212.171 308.404 247.217 308.404H250.154C249.157 302.63 248.733 296.772 248.889 290.914C249.032 286.932 249.879 286.36 251.551 289.484C260.351 304.994 272.913 318.931 297.498 324.464C317.606 329.029 337.714 334.287 359.362 362.304C361.309 364.724 358.383 367.276 356.15 365.285C334.084 345.375 313.976 338.83 295.683 338.83C275.146 338.984 261.187 341.69 247.074 341.69C194.01 341.69 151 297.866 151 243.823V243.834Z" fill="white"/>
</g>
<defs>
<clipPath id="clip0_111_3294">
<rect width="512" height="512" fill="white"/>
</clipPath>
</defs>
</svg>
