<svg width="512" height="512" viewBox="0 0 512 512" fill="none" xmlns="http://www.w3.org/2000/svg">
<g clip-path="url(#clip0_111_3533)">
<path d="M0 0H512V512H0V0Z" fill="#2B2F3C"/>
<path d="M362.05 126H405.45L315.167 219.633C307.546 227.663 298.37 234.058 288.198 238.429C278.026 242.799 267.071 245.053 256 245.054C244.929 245.054 233.974 242.8 223.802 238.429C213.63 234.059 204.454 227.664 196.833 219.633L106.567 126H149.95L218.533 197.133C223.36 202.219 229.172 206.269 235.615 209.036C242.057 211.804 248.996 213.231 256.008 213.231C263.02 213.231 269.959 211.804 276.401 209.036C282.844 206.269 288.656 202.219 293.483 197.133L362.05 126ZM149.4 386.383H106L196.833 292.167C204.454 284.137 213.63 277.742 223.802 273.371C233.974 269.001 244.929 266.747 256 266.746C267.071 266.746 278.026 269 288.198 273.371C298.37 277.741 307.546 284.136 315.167 292.167L406 386.383H362.617L293.483 314.667C288.656 309.581 282.844 305.531 276.401 302.764C269.958 299.996 263.02 298.568 256.008 298.568C248.996 298.568 242.057 299.995 235.614 302.763C229.172 305.53 223.36 309.581 218.533 314.667L149.4 386.383Z" fill="#96A0AF"/>
<path d="M0 0H512V512H0V0Z" fill="#0C93CA"/>
<path d="M362.05 126H405.45L315.167 219.633C307.546 227.663 298.37 234.058 288.198 238.429C278.026 242.799 267.071 245.053 256 245.054C244.929 245.054 233.974 242.8 223.802 238.429C213.63 234.059 204.454 227.664 196.833 219.633L106.567 126H149.95L218.533 197.133C223.36 202.219 229.172 206.269 235.615 209.036C242.057 211.804 248.996 213.231 256.008 213.231C263.02 213.231 269.959 211.804 276.401 209.036C282.844 206.269 288.656 202.219 293.483 197.133L362.05 126ZM149.4 386.383H106L196.833 292.167C204.454 284.137 213.63 277.742 223.802 273.371C233.974 269.001 244.929 266.747 256 266.746C267.071 266.746 278.026 269 288.198 273.371C298.37 277.741 307.546 284.136 315.167 292.167L406 386.383H362.617L293.483 314.667C288.656 309.581 282.844 305.531 276.401 302.764C269.958 299.996 263.02 298.568 256.008 298.568C248.996 298.568 242.057 299.995 235.614 302.763C229.172 305.53 223.36 309.581 218.533 314.667L149.4 386.383Z" fill="white"/>
</g>
<defs>
<clipPath id="clip0_111_3533">
<rect width="512" height="512" fill="white"/>
</clipPath>
</defs>
</svg>
