<svg width="512" height="512" viewBox="0 0 512 512" fill="none" xmlns="http://www.w3.org/2000/svg">
<g clip-path="url(#clip0_111_3313)">
<path d="M0 0H512V512H0V0Z" fill="#0F0738"/>
<path d="M167 193.887L193.642 241.507V270.555L167.031 318.082L167 193.887Z" fill="#5B57A2"/>
<path d="M269.295 224.179L294.259 208.878L345.351 208.83L269.295 255.422V224.179Z" fill="#D90751"/>
<path d="M269.153 193.606L269.294 256.654L242.59 240.246V146L269.153 193.606Z" fill="#FAB718"/>
<path d="M345.35 208.83L294.257 208.878L269.153 193.606L242.59 146L345.35 208.83Z" fill="#ED6F26"/>
<path d="M269.294 318.346V287.757L242.59 271.66L242.605 366L269.294 318.346Z" fill="#63B22F"/>
<path d="M294.197 303.184L193.64 241.507L167 193.887L345.242 303.122L294.197 303.184Z" fill="#1487C9"/>
<path d="M242.607 366L269.293 318.346L294.195 303.185L345.24 303.122L242.607 366Z" fill="#017F36"/>
<path d="M167.031 318.082L242.808 271.662L217.332 256.031L193.642 270.555L167.031 318.082Z" fill="#984995"/>
</g>
<defs>
<clipPath id="clip0_111_3313">
<rect width="512" height="512" fill="white"/>
</clipPath>
</defs>
</svg>
