<svg width="512" height="512" viewBox="0 0 512 512" fill="none" xmlns="http://www.w3.org/2000/svg">
<g clip-path="url(#clip0_111_3402)">
<path d="M0 0H512V512H0V0Z" fill="#2B2F3C"/>
<path d="M335.999 161.077C315.692 161.077 299.076 177.692 299.076 198C299.076 218.308 315.692 234.923 335.999 234.923C356.307 234.923 372.923 218.308 372.923 198C372.923 177.692 356.307 161.077 335.999 161.077Z" fill="#96A0AF"/>
<path fill-rule="evenodd" clip-rule="evenodd" d="M351.987 276.414C388.587 269.042 416 236.83 416 198C416 153.692 380.307 118 335.999 118C297.821 118 266.04 144.5 257.977 180.177L211.692 247.231C251.692 249.692 284.307 281.693 286.769 322.308L351.987 276.414ZM335.999 247.231C308.922 247.231 286.768 225.077 286.768 198C286.768 170.923 308.922 148.769 335.999 148.769C363.077 148.769 385.231 170.923 385.231 198C385.231 225.077 363.077 247.231 335.999 247.231Z" fill="#96A0AF"/>
<path d="M206.769 259.538C191.999 259.538 179.691 263.23 168.614 271.23L204.922 286.615C224.615 293.999 235.692 315.538 228.307 334.615C222.769 349.384 209.231 358.615 192.615 358.615C187.692 358.615 183.384 358 178.461 356.153L140.307 340.769C148.307 370.923 174.769 394.923 206.769 394.923C215.666 394.949 224.48 393.215 232.704 389.822C240.929 386.43 248.401 381.444 254.692 375.153C260.983 368.862 265.968 361.39 269.361 353.165C272.754 344.941 274.487 336.127 274.461 327.23C274.487 318.333 272.754 309.519 269.361 301.295C265.968 293.07 260.983 285.598 254.692 279.307C248.401 273.016 240.929 268.031 232.704 264.638C224.48 261.245 215.666 259.512 206.769 259.538Z" fill="#96A0AF"/>
<path d="M200.615 297.692L96 253.385V309.385L183.385 344.462C197.538 349.385 212.307 343.231 217.23 330.308C222.154 317.385 214.769 303.231 200.615 297.692Z" fill="#96A0AF"/>
<path d="M0 0H512V512H0V0Z" fill="black"/>
<path d="M335.999 161.077C315.692 161.077 299.076 177.692 299.076 198C299.076 218.308 315.692 234.923 335.999 234.923C356.307 234.923 372.923 218.308 372.923 198C372.923 177.692 356.307 161.077 335.999 161.077Z" fill="white"/>
<path fill-rule="evenodd" clip-rule="evenodd" d="M351.987 276.414C388.587 269.042 416 236.83 416 198C416 153.692 380.307 118 335.999 118C297.821 118 266.04 144.5 257.977 180.177L211.692 247.231C251.692 249.692 284.307 281.693 286.769 322.308L351.987 276.414ZM335.999 247.231C308.922 247.231 286.768 225.077 286.768 198C286.768 170.923 308.922 148.769 335.999 148.769C363.077 148.769 385.231 170.923 385.231 198C385.231 225.077 363.077 247.231 335.999 247.231Z" fill="white"/>
<path d="M206.769 259.538C191.999 259.538 179.691 263.23 168.614 271.23L204.922 286.615C224.615 293.999 235.692 315.538 228.307 334.615C222.769 349.384 209.231 358.615 192.615 358.615C187.692 358.615 183.384 358 178.461 356.153L140.307 340.769C148.307 370.923 174.769 394.923 206.769 394.923C215.666 394.949 224.48 393.215 232.704 389.822C240.929 386.43 248.401 381.444 254.692 375.153C260.983 368.862 265.968 361.39 269.361 353.165C272.754 344.941 274.487 336.127 274.461 327.23C274.487 318.333 272.754 309.519 269.361 301.295C265.968 293.07 260.983 285.598 254.692 279.307C248.401 273.016 240.929 268.031 232.704 264.638C224.48 261.245 215.666 259.512 206.769 259.538Z" fill="white"/>
<path d="M200.615 297.692L96 253.385V309.385L183.385 344.462C197.538 349.385 212.307 343.231 217.23 330.308C222.154 317.385 214.769 303.231 200.615 297.692Z" fill="white"/>
</g>
<defs>
<clipPath id="clip0_111_3402">
<rect width="512" height="512" fill="white"/>
</clipPath>
</defs>
</svg>
