<svg width="512" height="512" viewBox="0 0 512 512" fill="none" xmlns="http://www.w3.org/2000/svg">
<g clip-path="url(#clip0_111_3541)">
<path d="M0 0H512V512H0V0Z" fill="#2B2F3C"/>
<path d="M381.747 185C369.58 176.483 356.58 167.417 343.864 158.417C343.57 158.189 343.264 157.978 342.947 157.783C341.451 156.569 339.76 155.617 337.947 154.967L337.814 154.9C303.798 146.667 269.215 138.234 235.749 130.084L144.716 107.934C143.919 107.714 143.119 107.503 142.316 107.301C139.583 106.534 136.417 105.684 133.05 106.117C132.122 106.253 131.235 106.588 130.45 107.101L129.617 107.801C128.548 108.876 127.728 110.173 127.217 111.601L127 112.151V115.401L127.133 115.884C146.333 169.667 166.016 224.216 184.999 276.998C199.616 317.631 214.799 359.747 229.632 401.08C230.549 403.88 233.132 405.713 236.382 405.997H237.082C238.493 406.038 239.888 405.701 241.125 405.021C242.361 404.341 243.394 403.343 244.115 402.13L299.781 320.931L340.497 261.599C346.047 253.532 351.597 245.366 357.164 237.282C366.28 223.932 375.713 210.149 385.063 196.733L385.563 196.016V195.183C385.763 192.716 385.83 187.65 381.747 184.983M316.514 214.583C303.448 221.399 290.081 228.416 276.665 235.382L300.148 210.216C309.914 199.683 320.097 188.783 330.081 178.1L330.297 177.883C331.131 176.766 332.197 175.716 333.314 174.583C334.097 173.816 334.931 173.033 335.714 172.117C340.914 175.7 346.18 179.366 351.247 182.95C354.914 185.55 358.63 188.15 362.413 190.75C346.964 198.616 331.497 206.699 316.514 214.583ZM282.915 211.199C272.697 222.277 262.435 233.317 252.132 244.316C232.099 219.983 211.632 195.316 191.799 171.483L164.749 138.934L164.683 138.867C162.633 136.55 160.683 134.034 158.7 131.634C157.433 130.017 156.1 128.467 154.766 126.85C162.933 128.967 171.149 130.934 179.233 132.834C186.333 134.5 193.716 136.267 200.949 138.1L323.331 167.833C309.764 182.316 296.131 197 282.915 211.199ZM247.565 348.197C248.332 340.831 249.182 333.248 249.882 325.781L251.782 307.865C252.765 298.515 253.815 288.815 254.665 279.315L254.865 277.648C255.565 271.599 256.282 265.332 256.698 259.082C257.515 258.626 258.362 258.226 259.232 257.882C260.282 257.382 261.332 256.965 262.398 256.332C278.631 247.832 294.864 239.332 311.181 230.882C327.667 222.309 344.139 213.71 360.597 205.083C345.608 226.79 330.68 248.54 315.814 270.332C303.231 288.665 290.298 307.581 277.431 326.214C272.365 333.664 267.098 341.248 262.098 348.564C256.482 356.731 250.715 365.081 245.098 373.447C245.798 365.014 246.648 356.514 247.565 348.214M149.566 143.434C148.65 140.917 147.666 138.317 146.816 135.85C165.816 158.767 184.916 181.816 203.549 204.183C213.182 215.783 222.815 227.299 232.449 238.966C234.349 241.149 236.249 243.466 238.065 245.716C240.465 248.599 242.848 251.632 245.448 254.515C244.615 261.749 243.898 269.065 243.115 276.082C242.632 281.015 242.148 285.932 241.582 290.915V290.998C241.365 294.165 240.948 297.332 240.598 300.415L238.982 314.415L238.915 314.898C237.648 329.098 236.099 343.431 234.615 357.347C233.999 363.114 233.432 369.014 232.782 374.93C232.449 373.864 232.015 372.814 231.665 371.83C230.595 368.962 229.567 366.079 228.582 363.181L221.049 342.314C197.216 276.015 173.383 209.799 149.55 143.434" fill="#96A0AF"/>
<path d="M0 0H512V512H0V0Z" fill="#B01210"/>
<path d="M381.747 185C369.58 176.483 356.58 167.417 343.864 158.417C343.57 158.189 343.264 157.978 342.947 157.783C341.451 156.569 339.76 155.617 337.947 154.967L337.814 154.9C303.798 146.667 269.215 138.234 235.749 130.084L144.716 107.934C143.919 107.714 143.119 107.503 142.316 107.301C139.583 106.534 136.417 105.684 133.05 106.117C132.122 106.253 131.235 106.588 130.45 107.101L129.617 107.801C128.548 108.876 127.728 110.173 127.217 111.601L127 112.151V115.401L127.133 115.884C146.333 169.667 166.016 224.216 184.999 276.998C199.616 317.631 214.799 359.747 229.632 401.08C230.549 403.88 233.132 405.713 236.382 405.997H237.082C238.493 406.038 239.888 405.701 241.125 405.021C242.361 404.341 243.394 403.343 244.115 402.13L299.781 320.931L340.497 261.599C346.047 253.532 351.597 245.366 357.164 237.282C366.28 223.932 375.713 210.149 385.063 196.733L385.563 196.016V195.183C385.763 192.716 385.83 187.65 381.747 184.983M316.514 214.583C303.448 221.399 290.081 228.416 276.665 235.382L300.148 210.216C309.914 199.683 320.097 188.783 330.081 178.1L330.297 177.883C331.131 176.766 332.197 175.716 333.314 174.583C334.097 173.816 334.931 173.033 335.714 172.117C340.914 175.7 346.18 179.366 351.247 182.95C354.914 185.55 358.63 188.15 362.413 190.75C346.964 198.616 331.497 206.699 316.514 214.583ZM282.915 211.199C272.697 222.277 262.435 233.317 252.132 244.316C232.099 219.983 211.632 195.316 191.799 171.483L164.749 138.934L164.683 138.867C162.633 136.55 160.683 134.034 158.7 131.634C157.433 130.017 156.1 128.467 154.766 126.85C162.933 128.967 171.149 130.934 179.233 132.834C186.333 134.5 193.716 136.267 200.949 138.1L323.331 167.833C309.764 182.316 296.131 197 282.915 211.199ZM247.565 348.197C248.332 340.831 249.182 333.248 249.882 325.781L251.782 307.865C252.765 298.515 253.815 288.815 254.665 279.315L254.865 277.648C255.565 271.599 256.282 265.332 256.698 259.082C257.515 258.626 258.362 258.226 259.232 257.882C260.282 257.382 261.332 256.965 262.398 256.332C278.631 247.832 294.864 239.332 311.181 230.882C327.667 222.309 344.139 213.71 360.597 205.083C345.608 226.79 330.68 248.54 315.814 270.332C303.231 288.665 290.298 307.581 277.431 326.214C272.365 333.664 267.098 341.248 262.098 348.564C256.482 356.731 250.715 365.081 245.098 373.447C245.798 365.014 246.648 356.514 247.565 348.214M149.566 143.434C148.65 140.917 147.666 138.317 146.816 135.85C165.816 158.767 184.916 181.816 203.549 204.183C213.182 215.783 222.815 227.299 232.449 238.966C234.349 241.149 236.249 243.466 238.065 245.716C240.465 248.599 242.848 251.632 245.448 254.515C244.615 261.749 243.898 269.065 243.115 276.082C242.632 281.015 242.148 285.932 241.582 290.915V290.998C241.365 294.165 240.948 297.332 240.598 300.415L238.982 314.415L238.915 314.898C237.648 329.098 236.099 343.431 234.615 357.347C233.999 363.114 233.432 369.014 232.782 374.93C232.449 373.864 232.015 372.814 231.665 371.83C230.595 368.962 229.567 366.079 228.582 363.181L221.049 342.314C197.216 276.015 173.383 209.799 149.55 143.434" fill="white"/>
</g>
<defs>
<clipPath id="clip0_111_3541">
<rect width="512" height="512" fill="white"/>
</clipPath>
</defs>
</svg>
