<svg width="512" height="512" viewBox="0 0 512 512" fill="none" xmlns="http://www.w3.org/2000/svg">
<g clip-path="url(#clip0_111_3461)">
<path d="M0 0H512V512H0V0Z" fill="#2B2F3C"/>
<path d="M285.363 211.639V175.751H367.49V121H143.829V175.751H225.996V211.639C159.215 214.697 109 227.925 109 243.771C109 259.617 159.235 272.845 225.996 275.922V391H285.403V275.902C352.044 272.845 402.139 259.617 402.139 243.791C402.139 227.965 352.044 214.757 285.403 211.679M285.403 266.171V266.131C283.725 266.251 275.112 266.77 255.929 266.77C240.603 266.77 229.813 266.331 226.016 266.131V266.171C167.028 263.573 122.988 253.282 122.988 240.993C122.988 228.704 167.028 218.453 226.016 215.816V255.94C229.873 256.2 240.923 256.859 256.189 256.859C274.493 256.859 283.705 256.1 285.403 255.94V215.836C344.271 218.453 388.212 228.744 388.212 240.993C388.212 253.222 344.251 263.513 285.403 266.151" fill="#96A0AF"/>
<path d="M0 0H512V512H0V0Z" fill="#B01210"/>
<path d="M285.363 211.639V175.751H367.49V121H143.829V175.751H225.996V211.639C159.215 214.697 109 227.925 109 243.771C109 259.617 159.235 272.845 225.996 275.922V391H285.403V275.902C352.044 272.845 402.139 259.617 402.139 243.791C402.139 227.965 352.044 214.757 285.403 211.679M285.403 266.171V266.131C283.725 266.251 275.112 266.77 255.929 266.77C240.603 266.77 229.813 266.331 226.016 266.131V266.171C167.028 263.573 122.988 253.282 122.988 240.993C122.988 228.704 167.028 218.453 226.016 215.816V255.94C229.873 256.2 240.923 256.859 256.189 256.859C274.493 256.859 283.705 256.1 285.403 255.94V215.836C344.271 218.453 388.212 228.744 388.212 240.993C388.212 253.222 344.251 263.513 285.403 266.151" fill="white"/>
</g>
<defs>
<clipPath id="clip0_111_3461">
<rect width="512" height="512" fill="white"/>
</clipPath>
</defs>
</svg>
