<svg width="512" height="512" viewBox="0 0 512 512" fill="none" xmlns="http://www.w3.org/2000/svg">
<g clip-path="url(#clip0_111_3353)">
<path d="M0 0H512V512H0V0Z" fill="#2B2F3C"/>
<path d="M220.145 202.845L201.849 310.211H231.111L249.421 202.845H220.145ZM177.316 202.964L148.657 276.185L145.601 265.129C139.949 251.808 123.904 232.677 105.066 220.621L131.272 310.158L162.234 310.105L208.316 202.942L177.316 202.964Z" fill="#96A0AF"/>
<path d="M134.492 210.649C132.791 204.109 127.862 202.159 121.743 201.926H76.376L76 204.063C111.305 212.628 134.665 233.264 144.359 258.078L134.492 210.649ZM308.727 223.428C318.3 223.277 325.239 225.369 330.628 227.537L333.27 228.779L337.228 205.508C331.433 203.333 322.349 201 311.015 201C282.1 201 261.72 215.563 261.562 236.433C261.373 251.853 276.079 260.463 287.188 265.603C298.59 270.872 302.413 274.221 302.36 278.924C302.27 286.112 293.269 289.408 284.862 289.408C273.144 289.408 266.92 287.79 257.309 283.786L253.539 282.07L249.422 306.101C256.271 309.104 268.907 311.685 282.025 311.821C312.784 311.821 332.773 297.431 332.984 275.131C333.112 262.932 325.307 253.622 308.396 245.983C298.161 241.001 291.899 237.689 291.959 232.662C291.959 228.199 297.273 223.428 308.727 223.428ZM412.323 202.964H389.715C382.693 202.964 377.47 204.876 374.384 211.875L330.937 310.27H361.665C361.665 310.27 366.678 297.039 367.814 294.142C371.178 294.142 401.034 294.187 405.286 294.187C406.159 297.935 408.853 310.27 408.853 310.27H436L412.323 202.964ZM376.236 272.166C378.644 266.002 387.893 242.16 387.893 242.16C387.735 242.453 390.279 235.951 391.792 231.909L393.764 241.166L400.545 272.166H376.236Z" fill="#96A0AF"/>
<path d="M0 0H512V512H0V0Z" fill="#293688"/>
<path d="M220.145 202.845L201.849 310.211H231.111L249.421 202.845H220.145ZM177.316 202.964L148.657 276.185L145.601 265.129C139.949 251.808 123.904 232.677 105.066 220.621L131.272 310.158L162.234 310.105L208.316 202.942L177.316 202.964Z" fill="white"/>
<path d="M134.492 210.649C132.791 204.109 127.862 202.159 121.743 201.926H76.376L76 204.063C111.305 212.628 134.665 233.264 144.359 258.078L134.492 210.649ZM308.727 223.428C318.3 223.277 325.239 225.369 330.628 227.537L333.27 228.779L337.228 205.508C331.433 203.333 322.349 201 311.015 201C282.1 201 261.72 215.563 261.562 236.433C261.373 251.853 276.079 260.463 287.188 265.603C298.59 270.872 302.413 274.221 302.36 278.924C302.27 286.112 293.269 289.408 284.862 289.408C273.144 289.408 266.92 287.79 257.309 283.786L253.539 282.07L249.422 306.101C256.271 309.104 268.907 311.685 282.025 311.821C312.784 311.821 332.773 297.431 332.984 275.131C333.112 262.932 325.307 253.622 308.396 245.983C298.161 241.001 291.899 237.689 291.959 232.662C291.959 228.199 297.273 223.428 308.727 223.428ZM412.323 202.964H389.715C382.693 202.964 377.47 204.876 374.384 211.875L330.937 310.27H361.665C361.665 310.27 366.678 297.039 367.814 294.142C371.178 294.142 401.034 294.187 405.286 294.187C406.159 297.935 408.853 310.27 408.853 310.27H436L412.323 202.964ZM376.236 272.166C378.644 266.002 387.893 242.16 387.893 242.16C387.735 242.453 390.279 235.951 391.792 231.909L393.764 241.166L400.545 272.166H376.236Z" fill="white"/>
</g>
<defs>
<clipPath id="clip0_111_3353">
<rect width="512" height="512" fill="white"/>
</clipPath>
</defs>
</svg>
