<svg width="512" height="512" viewBox="0 0 512 512" fill="none" xmlns="http://www.w3.org/2000/svg">
<g clip-path="url(#clip0_111_3272)">
<path d="M0 0H512V512H0V0Z" fill="#2B2F3C"/>
<path d="M298.172 152C240.248 152 194.172 198.734 194.172 256C194.172 313.924 240.907 360 298.172 360C355.438 360 402.172 313.266 402.172 256C402.172 198.734 355.438 152 298.172 152ZM298.172 294.836C277.109 294.836 259.337 277.063 259.337 256C259.337 234.937 277.109 217.164 298.172 217.164C319.236 217.164 337.008 234.937 337.008 256C336.351 277.063 319.236 294.836 298.172 294.836ZM193.276 182.483V334H156.405L109 182.483H193.276Z" fill="#96A0AF"/>
<path d="M0 0H512V512H0V0Z" fill="#8B3FFD"/>
<path d="M298.172 152C240.248 152 194.172 198.734 194.172 256C194.172 313.924 240.907 360 298.172 360C355.438 360 402.172 313.266 402.172 256C402.172 198.734 355.438 152 298.172 152ZM298.172 294.836C277.109 294.836 259.337 277.063 259.337 256C259.337 234.937 277.109 217.164 298.172 217.164C319.236 217.164 337.008 234.937 337.008 256C336.351 277.063 319.236 294.836 298.172 294.836ZM193.276 182.483V334H156.405L109 182.483H193.276Z" fill="white"/>
</g>
<defs>
<clipPath id="clip0_111_3272">
<rect width="512" height="512" fill="white"/>
</clipPath>
</defs>
</svg>
