<svg width="512" height="512" viewBox="0 0 512 512" fill="none" xmlns="http://www.w3.org/2000/svg">
<g clip-path="url(#clip0_111_3509)">
<path d="M0 0H512V512H0V0Z" fill="#2B2F3C"/>
<path d="M256.015 406C235.765 406 216.115 402.025 197.635 394.21C161.685 378.972 133.065 350.358 117.82 314.41C109.981 295.926 105.96 276.048 106 255.97C105.976 226.3 114.76 197.29 131.24 172.617C147.72 147.945 171.154 128.72 198.571 117.379C216.775 109.849 236.285 105.982 255.985 106C285.657 105.968 314.671 114.745 339.349 131.219C364.028 147.693 383.26 171.123 394.608 198.539C402.143 216.743 406.014 236.254 406 255.955C406 276.205 402.025 295.84 394.21 314.335C378.973 350.286 350.358 378.906 314.41 394.15C295.944 402.016 276.072 406.048 256 406H256.015ZM256.015 139.3C224.86 139.3 195.55 151.45 173.515 173.47C162.647 184.279 154.031 197.136 148.166 211.297C142.3 225.458 139.302 240.642 139.345 255.97C139.345 287.14 151.495 316.45 173.5 338.5C184.315 349.358 197.174 357.967 211.334 363.829C225.494 369.691 240.675 372.691 256 372.655C287.17 372.655 316.48 360.505 338.53 338.5C349.389 327.685 357.997 314.826 363.86 300.666C369.722 286.506 372.721 271.325 372.685 256C372.685 224.83 360.535 195.52 338.53 173.47C327.712 162.608 314.848 153.997 300.683 148.134C286.518 142.272 271.331 139.274 256 139.315L256.015 139.3Z" fill="#96A0AF"/>
<path d="M247 293.335H311.995V325.99H271.975C272.62 335.335 272.98 343.99 273.625 353.32H239.965V326.32H199.945C199.945 315.64 198.595 304.99 200.59 294.985C201.61 289.645 207.595 284.995 211.27 280.33C223.945 265.33 236.62 250.675 249.595 235.66C254.62 229.99 259.6 224.65 265.27 218.335H202.945V185.68H239.935V158.365H272.26V185.035H312.61C312.61 196.03 313.96 206.68 311.965 216.715C310.96 222.055 304.96 226.705 300.955 231.37C288.295 246.37 275.62 261.025 262.63 276.04C257.68 281.995 252.7 287.305 247 293.335Z" fill="#96A0AF"/>
<path d="M0 0H512V512H0V0Z" fill="#DBA91B"/>
<path d="M256.015 406C235.765 406 216.115 402.025 197.635 394.21C161.685 378.972 133.065 350.358 117.82 314.41C109.981 295.926 105.96 276.048 106 255.97C105.976 226.3 114.76 197.29 131.24 172.617C147.72 147.945 171.154 128.72 198.571 117.379C216.775 109.849 236.285 105.982 255.985 106C285.657 105.968 314.671 114.745 339.349 131.219C364.028 147.693 383.26 171.123 394.608 198.539C402.143 216.743 406.014 236.254 406 255.955C406 276.205 402.025 295.84 394.21 314.335C378.973 350.286 350.358 378.906 314.41 394.15C295.944 402.016 276.072 406.048 256 406H256.015ZM256.015 139.3C224.86 139.3 195.55 151.45 173.515 173.47C162.647 184.279 154.031 197.136 148.166 211.297C142.3 225.458 139.302 240.642 139.345 255.97C139.345 287.14 151.495 316.45 173.5 338.5C184.315 349.358 197.174 357.967 211.334 363.829C225.494 369.691 240.675 372.691 256 372.655C287.17 372.655 316.48 360.505 338.53 338.5C349.389 327.685 357.997 314.826 363.86 300.666C369.722 286.506 372.721 271.325 372.685 256C372.685 224.83 360.535 195.52 338.53 173.47C327.712 162.608 314.848 153.997 300.683 148.134C286.518 142.272 271.331 139.274 256 139.315L256.015 139.3Z" fill="white"/>
<path d="M247 293.335H311.995V325.99H271.975C272.62 335.335 272.98 343.99 273.625 353.32H239.965V326.32H199.945C199.945 315.64 198.595 304.99 200.59 294.985C201.61 289.645 207.595 284.995 211.27 280.33C223.945 265.33 236.62 250.675 249.595 235.66C254.62 229.99 259.6 224.65 265.27 218.335H202.945V185.68H239.935V158.365H272.26V185.035H312.61C312.61 196.03 313.96 206.68 311.965 216.715C310.96 222.055 304.96 226.705 300.955 231.37C288.295 246.37 275.62 261.025 262.63 276.04C257.68 281.995 252.7 287.305 247 293.335Z" fill="white"/>
</g>
<defs>
<clipPath id="clip0_111_3509">
<rect width="512" height="512" fill="white"/>
</clipPath>
</defs>
</svg>
