<svg width="230" height="76" viewBox="0 0 230 76" fill="none" xmlns="http://www.w3.org/2000/svg">
<path d="M0 0H230L195.624 65.3149C192.165 71.886 185.351 76 177.925 76H115H52.0746C44.6491 76 37.8347 71.886 34.3763 65.3149L0 0Z" fill="#1C202F"/>
<path d="M103.895 10.2915H95.2306C90.8461 10.2915 87.2917 13.8458 87.2917 18.2303V26.8943C87.2917 31.2788 90.8461 34.8332 95.2306 34.8332H103.895C108.279 34.8332 111.833 31.2788 111.833 26.8943V18.2303C111.833 13.8458 108.279 10.2915 103.895 10.2915Z" fill="#222637" fill-opacity="0.25"/>
<path d="M103.895 41.1665H95.2306C90.8461 41.1665 87.2917 44.7208 87.2917 49.1053V57.7693C87.2917 62.1538 90.8461 65.7082 95.2306 65.7082H103.895C108.279 65.7082 111.833 62.1538 111.833 57.7693V49.1053C111.833 44.7208 108.279 41.1665 103.895 41.1665Z" fill="#526184" fill-opacity="0.1"/>
<path d="M134.77 41.1665H126.106C121.721 41.1665 118.167 44.7208 118.167 49.1053V57.7693C118.167 62.1538 121.721 65.7082 126.106 65.7082H134.77C139.154 65.7082 142.708 62.1538 142.708 57.7693V49.1053C142.708 44.7208 139.154 41.1665 134.77 41.1665Z" fill="#222637" fill-opacity="0.25"/>
<path d="M134.77 10.2915H126.106C121.721 10.2915 118.167 13.8458 118.167 18.2303V26.8943C118.167 31.2788 121.721 34.8332 126.106 34.8332H134.77C139.154 34.8332 142.708 31.2788 142.708 26.8943V18.2303C142.708 13.8458 139.154 10.2915 134.77 10.2915Z" fill="#526184" fill-opacity="0.1"/>
<path d="M69.0318 25.604H65.1558C63.1943 25.604 61.6042 27.1941 61.6042 29.1556V33.0316C61.6042 34.9931 63.1943 36.5832 65.1558 36.5832H69.0318C70.9933 36.5832 72.5834 34.9931 72.5834 33.0316V29.1556C72.5834 27.1941 70.9933 25.604 69.0318 25.604Z" fill="#E7AE58"/>
<path d="M69.0318 39.4165H65.1558C63.1943 39.4165 61.6042 41.0066 61.6042 42.9681V46.8441C61.6042 48.8056 63.1943 50.3957 65.1558 50.3957H69.0318C70.9933 50.3957 72.5834 48.8056 72.5834 46.8441V42.9681C72.5834 41.0066 70.9933 39.4165 69.0318 39.4165Z" fill="#526184"/>
<path d="M82.8443 39.4165H78.9683C77.0068 39.4165 75.4167 41.0066 75.4167 42.9681V46.8441C75.4167 48.8056 77.0068 50.3957 78.9683 50.3957H82.8443C84.8058 50.3957 86.3959 48.8056 86.3959 46.8441V42.9681C86.3959 41.0066 84.8058 39.4165 82.8443 39.4165Z" fill="#E7AE58"/>
<path d="M82.8443 25.604H78.9683C77.0068 25.604 75.4167 27.1941 75.4167 29.1556V33.0316C75.4167 34.9931 77.0068 36.5832 78.9683 36.5832H82.8443C84.8058 36.5832 86.3959 34.9931 86.3959 33.0316V29.1556C86.3959 27.1941 84.8058 25.604 82.8443 25.604Z" fill="#526184"/>
<path d="M113.427 30.712L105.747 37.216L113.139 45.544V46H109.491L103.443 39.184L100.251 41.824V46H97.2509V30.256H100.251V38.032L109.419 30.256H113.427V30.712ZM130.478 30.256V32.944H119.774V36.76H129.998V39.448H119.774V43.312H130.478V46H116.774V30.256H130.478ZM149.694 30.256V46H146.742L137.046 34.456V46H134.118V30.256H137.07L146.766 41.776V30.256H149.694ZM162.278 46.288C160.422 46.288 158.798 45.96 157.406 45.304C156.03 44.648 154.966 43.72 154.214 42.52C153.462 41.304 153.086 39.888 153.086 38.272V38.008C153.086 36.392 153.462 34.976 154.214 33.76C154.966 32.544 156.038 31.608 157.43 30.952C158.822 30.296 160.438 29.968 162.278 29.968C164.118 29.968 165.726 30.296 167.102 30.952C168.494 31.608 169.566 32.544 170.318 33.76C171.07 34.976 171.446 36.392 171.446 38.008V38.272C171.446 39.888 171.07 41.304 170.318 42.52C169.566 43.72 168.502 44.648 167.126 45.304C165.75 45.96 164.134 46.288 162.278 46.288ZM162.278 43.504C164.23 43.504 165.734 43.056 166.79 42.16C167.862 41.248 168.398 39.968 168.398 38.32V37.984C168.398 36.336 167.862 35.056 166.79 34.144C165.734 33.216 164.23 32.752 162.278 32.752C160.326 32.752 158.814 33.216 157.742 34.144C156.67 35.056 156.134 36.336 156.134 37.984V38.32C156.134 39.968 156.67 41.248 157.742 42.16C158.814 43.056 160.326 43.504 162.278 43.504Z" fill="white"/>
</svg>
