<svg width="70" height="72" viewBox="0 0 70 72" fill="none" xmlns="http://www.w3.org/2000/svg">
<path d="M9.728 62.16C10.368 62.384 10.8693 62.736 11.232 63.216C11.5947 63.6853 11.776 64.256 11.776 64.928C11.776 65.9093 11.3813 66.6667 10.592 67.2C9.80267 67.7333 8.66133 68 7.168 68H1.12V56.8H6.848C8.27733 56.8 9.36533 57.0667 10.112 57.6C10.8587 58.1227 11.232 58.832 11.232 59.728C11.232 60.2613 11.0987 60.7413 10.832 61.168C10.576 61.584 10.208 61.9147 9.728 62.16ZM4.256 59.088V61.248H6.432C7.49867 61.248 8.032 60.8853 8.032 60.16C8.032 59.4453 7.49867 59.088 6.432 59.088H4.256ZM6.912 65.712C8.02133 65.712 8.576 65.3333 8.576 64.576C8.576 63.8187 8.02133 63.44 6.912 63.44H4.256V65.712H6.912ZM22.3929 59.328V68H19.4969V67.072C19.1769 67.424 18.7929 67.6907 18.3449 67.872C17.8969 68.0533 17.4222 68.144 16.9209 68.144C15.8009 68.144 14.9049 67.8133 14.2329 67.152C13.5715 66.4907 13.2409 65.4987 13.2409 64.176V59.328H16.2809V63.68C16.2809 64.3307 16.4035 64.8053 16.6489 65.104C16.8942 65.4027 17.2515 65.552 17.7209 65.552C18.2009 65.552 18.5902 65.3867 18.8889 65.056C19.1982 64.7147 19.3529 64.1973 19.3529 63.504V59.328H22.3929ZM29.807 59.184C30.5963 59.184 31.311 59.3653 31.951 59.728C32.6017 60.0907 33.1137 60.6133 33.487 61.296C33.871 61.968 34.063 62.752 34.063 63.648C34.063 64.544 33.871 65.3333 33.487 66.016C33.1137 66.6987 32.6017 67.2267 31.951 67.6C31.311 67.9627 30.5963 68.144 29.807 68.144C28.6657 68.144 27.8123 67.808 27.247 67.136V68H24.351V56.128H27.391V60.08C27.9777 59.4827 28.783 59.184 29.807 59.184ZM29.167 65.728C29.7003 65.728 30.1377 65.5467 30.479 65.184C30.8203 64.8107 30.991 64.2987 30.991 63.648C30.991 63.008 30.8203 62.5067 30.479 62.144C30.1377 61.7813 29.7003 61.6 29.167 61.6C28.6337 61.6 28.1963 61.7813 27.855 62.144C27.5137 62.5067 27.343 63.008 27.343 63.648C27.343 64.2987 27.5137 64.8107 27.855 65.184C28.1963 65.5467 28.6337 65.728 29.167 65.728ZM40.932 59.184C41.7213 59.184 42.436 59.3653 43.076 59.728C43.7267 60.0907 44.2387 60.6133 44.612 61.296C44.996 61.968 45.188 62.752 45.188 63.648C45.188 64.544 44.996 65.3333 44.612 66.016C44.2387 66.6987 43.7267 67.2267 43.076 67.6C42.436 67.9627 41.7213 68.144 40.932 68.144C39.7907 68.144 38.9373 67.808 38.372 67.136V68H35.476V56.128H38.516V60.08C39.1027 59.4827 39.908 59.184 40.932 59.184ZM40.292 65.728C40.8253 65.728 41.2627 65.5467 41.604 65.184C41.9453 64.8107 42.116 64.2987 42.116 63.648C42.116 63.008 41.9453 62.5067 41.604 62.144C41.2627 61.7813 40.8253 61.6 40.292 61.6C39.7587 61.6 39.3213 61.7813 38.98 62.144C38.6387 62.5067 38.468 63.008 38.468 63.648C38.468 64.2987 38.6387 64.8107 38.98 65.184C39.3213 65.5467 39.7587 65.728 40.292 65.728ZM46.601 56.128H49.641V68H46.601V56.128ZM60.4806 63.68C60.4806 63.7013 60.4646 63.952 60.4326 64.432H54.1286C54.2566 64.88 54.502 65.2267 54.8646 65.472C55.238 65.7067 55.702 65.824 56.2566 65.824C56.6726 65.824 57.03 65.7653 57.3286 65.648C57.638 65.5307 57.9473 65.3387 58.2566 65.072L59.8566 66.736C59.014 67.6747 57.782 68.144 56.1606 68.144C55.1473 68.144 54.2566 67.952 53.4886 67.568C52.7206 67.184 52.1233 66.6507 51.6966 65.968C51.2806 65.2853 51.0726 64.512 51.0726 63.648C51.0726 62.7947 51.2753 62.032 51.6806 61.36C52.0966 60.6773 52.6673 60.144 53.3926 59.76C54.118 59.376 54.934 59.184 55.8406 59.184C56.7046 59.184 57.4886 59.3653 58.1926 59.728C58.8966 60.08 59.4513 60.5973 59.8566 61.28C60.2726 61.952 60.4806 62.752 60.4806 63.68ZM55.8566 61.344C55.3873 61.344 54.9926 61.4773 54.6726 61.744C54.3633 62.0107 54.166 62.3733 54.0806 62.832H57.6326C57.5473 62.3733 57.3446 62.0107 57.0246 61.744C56.7153 61.4773 56.326 61.344 55.8566 61.344ZM65.0343 68.144C64.3089 68.144 63.5943 68.064 62.8903 67.904C62.1863 67.7333 61.6209 67.5147 61.1943 67.248L62.1063 65.168C62.5009 65.4133 62.9703 65.6107 63.5143 65.76C64.0583 65.8987 64.5969 65.968 65.1302 65.968C65.6209 65.968 65.9676 65.92 66.1703 65.824C66.3836 65.7173 66.4903 65.568 66.4903 65.376C66.4903 65.184 66.3623 65.0507 66.1063 64.976C65.8609 64.8907 65.4663 64.8107 64.9223 64.736C64.2289 64.6507 63.6369 64.5387 63.1463 64.4C62.6663 64.2613 62.2503 64.0053 61.8983 63.632C61.5463 63.2587 61.3703 62.736 61.3703 62.064C61.3703 61.5093 61.5356 61.0187 61.8663 60.592C62.1969 60.1547 62.6769 59.8133 63.3063 59.568C63.9463 59.312 64.7089 59.184 65.5943 59.184C66.2236 59.184 66.8476 59.248 67.4663 59.376C68.0849 59.504 68.6023 59.6853 69.0183 59.92L68.1063 61.984C67.3383 61.5573 66.5063 61.344 65.6102 61.344C65.1303 61.344 64.7783 61.4027 64.5543 61.52C64.3303 61.6267 64.2183 61.7707 64.2183 61.952C64.2183 62.1547 64.3409 62.2987 64.5863 62.384C64.8316 62.4587 65.2369 62.5387 65.8023 62.624C66.5169 62.7307 67.1089 62.8533 67.5783 62.992C68.0476 63.1307 68.4529 63.3867 68.7943 63.76C69.1463 64.1227 69.3223 64.6347 69.3223 65.296C69.3223 65.84 69.1569 66.3307 68.8263 66.768C68.4956 67.1947 68.0049 67.5307 67.3543 67.776C66.7143 68.0213 65.9409 68.144 65.0343 68.144Z" fill="url(#paint0_linear_1_25)"/>
<ellipse opacity="0.3" cx="17.7143" cy="36.3181" rx="6.71429" ry="6.40909" fill="url(#paint1_linear_1_25)"/>
<ellipse opacity="0.2" cx="53.5237" cy="42.7273" rx="4.47619" ry="4.27273" fill="url(#paint2_linear_1_25)"/>
<ellipse opacity="0.6" cx="22.1905" cy="4.27273" rx="4.47619" ry="4.27273" fill="url(#paint3_linear_1_25)"/>
<ellipse opacity="0.1" cx="49.0476" cy="10.6818" rx="2.2381" ry="2.13636" fill="url(#paint4_linear_1_25)"/>
<path d="M29.7326 32.0454L27.4017 29.0713L24.9026 32.0454H19.9524L24.9026 26.3694L20.0966 20.6934H25.239L27.5459 23.5628L29.9489 20.6934H34.7789L29.9729 26.2228L34.9471 32.0454H29.7326Z" fill="url(#paint5_linear_1_25)"/>
<path d="M49.0477 28.7571V32.0454H35.9513V29.4483L42.2472 24.3168C42.8559 23.8142 43.2644 23.3883 43.4727 23.0392C43.681 22.6762 43.7851 22.3131 43.7851 21.9501C43.7851 21.4753 43.6009 21.1053 43.2324 20.84C42.8639 20.5747 42.3273 20.4421 41.6224 20.4421C40.9976 20.4421 40.4209 20.5677 39.8922 20.8191C39.3796 21.0564 38.9551 21.4055 38.6186 21.8663L35.0862 20.1488C35.7431 19.1993 36.6642 18.4523 37.8497 17.9077C39.0352 17.3632 40.4369 17.0909 42.0549 17.0909C43.3365 17.0909 44.4659 17.2724 45.4432 17.6355C46.4364 17.9985 47.2054 18.5221 47.75 19.2063C48.3107 19.8765 48.5911 20.6585 48.5911 21.5521C48.5911 22.348 48.3908 23.102 47.9903 23.8142C47.6059 24.5123 46.8529 25.3082 45.7315 26.2019L42.5596 28.7571H49.0477Z" fill="url(#paint6_linear_1_25)"/>
<defs>
<linearGradient id="paint0_linear_1_25" x1="35" y1="52" x2="35" y2="72" gradientUnits="userSpaceOnUse">
<stop stop-color="#646A7B"/>
<stop offset="0.703125" stop-color="#39476C"/>
</linearGradient>
<linearGradient id="paint1_linear_1_25" x1="17.7143" y1="29.9091" x2="17.7143" y2="42.7272" gradientUnits="userSpaceOnUse">
<stop stop-color="#646A7B"/>
<stop offset="0.703125" stop-color="#39476C"/>
</linearGradient>
<linearGradient id="paint2_linear_1_25" x1="53.5237" y1="38.4546" x2="53.5237" y2="47" gradientUnits="userSpaceOnUse">
<stop stop-color="#646A7B"/>
<stop offset="0.703125" stop-color="#39476C"/>
</linearGradient>
<linearGradient id="paint3_linear_1_25" x1="22.1905" y1="0" x2="22.1905" y2="8.54545" gradientUnits="userSpaceOnUse">
<stop stop-color="#646A7B"/>
<stop offset="0.703125" stop-color="#39476C"/>
</linearGradient>
<linearGradient id="paint4_linear_1_25" x1="49.0476" y1="8.54545" x2="49.0476" y2="12.8182" gradientUnits="userSpaceOnUse">
<stop stop-color="#646A7B"/>
<stop offset="0.703125" stop-color="#39476C"/>
</linearGradient>
<linearGradient id="paint5_linear_1_25" x1="34.5" y1="17.0909" x2="34.5" y2="32.0454" gradientUnits="userSpaceOnUse">
<stop stop-color="#646A7B"/>
<stop offset="0.703125" stop-color="#39476C"/>
</linearGradient>
<linearGradient id="paint6_linear_1_25" x1="34.5" y1="17.0909" x2="34.5" y2="32.0454" gradientUnits="userSpaceOnUse">
<stop stop-color="#646A7B"/>
<stop offset="0.703125" stop-color="#39476C"/>
</linearGradient>
</defs>
</svg>
