<svg width="70" height="60" viewBox="0 0 70 60" fill="none" xmlns="http://www.w3.org/2000/svg">
<path d="M4.568 56.224C3.74667 56.224 3 56.0853 2.328 55.808C1.66667 55.52 1.11733 55.1093 0.68 54.576L2.408 52.528C2.70667 52.912 3.016 53.2053 3.336 53.408C3.656 53.6 3.992 53.696 4.344 53.696C5.28267 53.696 5.752 53.152 5.752 52.064V47.248H1.88V44.8H8.888V51.872C8.888 53.3333 8.52 54.4267 7.784 55.152C7.048 55.8667 5.976 56.224 4.568 56.224ZM16.1783 56V54.384L15.9703 53.984V51.008C15.9703 50.528 15.8209 50.16 15.5223 49.904C15.2343 49.6373 14.7703 49.504 14.1302 49.504C13.7143 49.504 13.2929 49.5733 12.8663 49.712C12.4396 49.84 12.0769 50.0213 11.7783 50.256L10.7543 48.192C11.2449 47.872 11.8316 47.6267 12.5143 47.456C13.2076 47.2747 13.8956 47.184 14.5783 47.184C15.9863 47.184 17.0743 47.5093 17.8423 48.16C18.6209 48.8 19.0103 49.808 19.0103 51.184V56H16.1783ZM13.6183 56.144C12.9249 56.144 12.3383 56.0267 11.8583 55.792C11.3783 55.5573 11.0103 55.2373 10.7543 54.832C10.5089 54.4267 10.3863 53.9733 10.3863 53.472C10.3863 52.9387 10.5196 52.48 10.7863 52.096C11.0636 51.7013 11.4849 51.4027 12.0503 51.2C12.6156 50.9867 13.3463 50.88 14.2423 50.88H16.2903V52.464H14.6583C14.1676 52.464 13.8209 52.544 13.6183 52.704C13.4263 52.864 13.3303 53.0773 13.3303 53.344C13.3303 53.6107 13.4316 53.824 13.6343 53.984C13.8369 54.144 14.1143 54.224 14.4663 54.224C14.7969 54.224 15.0956 54.144 15.3623 53.984C15.6396 53.8133 15.8423 53.5573 15.9703 53.216L16.3863 54.336C16.2263 54.9333 15.9116 55.3867 15.4423 55.696C14.9836 55.9947 14.3756 56.144 13.6183 56.144ZM25.4705 56.144C24.5105 56.144 23.6518 55.952 22.8945 55.568C22.1478 55.184 21.5612 54.656 21.1345 53.984C20.7078 53.3013 20.4945 52.5227 20.4945 51.648C20.4945 50.7733 20.7078 50 21.1345 49.328C21.5612 48.656 22.1478 48.1333 22.8945 47.76C23.6518 47.376 24.5105 47.184 25.4705 47.184C26.4518 47.184 27.2998 47.392 28.0145 47.808C28.7292 48.224 29.2358 48.8107 29.5345 49.568L27.1825 50.768C26.9798 50.3627 26.7292 50.0693 26.4305 49.888C26.1318 49.696 25.8065 49.6 25.4545 49.6C25.1025 49.6 24.7825 49.68 24.4945 49.84C24.2065 50 23.9772 50.2347 23.8065 50.544C23.6465 50.8427 23.5665 51.2107 23.5665 51.648C23.5665 52.096 23.6465 52.4747 23.8065 52.784C23.9772 53.0933 24.2065 53.328 24.4945 53.488C24.7825 53.648 25.1025 53.728 25.4545 53.728C25.8065 53.728 26.1318 53.6373 26.4305 53.456C26.7292 53.264 26.9798 52.9653 27.1825 52.56L29.5345 53.76C29.2358 54.5173 28.7292 55.104 28.0145 55.52C27.2998 55.936 26.4518 56.144 25.4705 56.144ZM33.1759 54.4L33.2559 50.768L36.7919 47.328H40.3919L36.4719 51.376L34.9199 52.624L33.1759 54.4ZM30.6479 56V44.128H33.6879V56H30.6479ZM37.0159 56L34.3599 52.672L36.2479 50.336L40.6959 56H37.0159ZM47.0414 56.144C46.3054 56.144 45.676 55.984 45.1534 55.664C44.6307 55.3333 44.2307 54.8427 43.9534 54.192C43.6867 53.5307 43.5534 52.688 43.5534 51.664C43.5534 50.6293 43.6814 49.7867 43.9374 49.136C44.1934 48.4747 44.5774 47.984 45.0894 47.664C45.612 47.344 46.2627 47.184 47.0414 47.184C47.8307 47.184 48.5454 47.3707 49.1854 47.744C49.836 48.1067 50.348 48.624 50.7214 49.296C51.1054 49.9573 51.2974 50.7467 51.2974 51.664C51.2974 52.5813 51.1054 53.376 50.7214 54.048C50.348 54.72 49.836 55.2373 49.1854 55.6C48.5454 55.9627 47.8307 56.144 47.0414 56.144ZM41.5854 59.104V47.328H44.4814V48.8L44.4654 51.664L44.6254 54.544V59.104H41.5854ZM46.4014 53.728C46.7427 53.728 47.0467 53.648 47.3134 53.488C47.5907 53.328 47.8094 53.0933 47.9694 52.784C48.14 52.4747 48.2254 52.1013 48.2254 51.664C48.2254 51.2267 48.14 50.8533 47.9694 50.544C47.8094 50.2347 47.5907 50 47.3134 49.84C47.0467 49.68 46.7427 49.6 46.4014 49.6C46.06 49.6 45.7507 49.68 45.4734 49.84C45.2067 50 44.988 50.2347 44.8174 50.544C44.6574 50.8533 44.5774 51.2267 44.5774 51.664C44.5774 52.1013 44.6574 52.4747 44.8174 52.784C44.988 53.0933 45.2067 53.328 45.4734 53.488C45.7507 53.648 46.06 53.728 46.4014 53.728ZM57.0624 56.144C56.113 56.144 55.2704 55.952 54.5344 55.568C53.7984 55.184 53.217 54.656 52.7904 53.984C52.3744 53.3013 52.1664 52.5227 52.1664 51.648C52.1664 50.7733 52.3744 50 52.7904 49.328C53.217 48.656 53.7984 48.1333 54.5344 47.76C55.2704 47.376 56.113 47.184 57.0624 47.184C58.0117 47.184 58.8544 47.376 59.5904 47.76C60.337 48.1333 60.9184 48.656 61.3344 49.328C61.7504 50 61.9584 50.7733 61.9584 51.648C61.9584 52.5227 61.7504 53.3013 61.3344 53.984C60.9184 54.656 60.337 55.184 59.5904 55.568C58.8544 55.952 58.0117 56.144 57.0624 56.144ZM57.0624 53.728C57.4144 53.728 57.7237 53.648 57.9904 53.488C58.2677 53.328 58.4864 53.0933 58.6464 52.784C58.8064 52.464 58.8864 52.0853 58.8864 51.648C58.8864 51.2107 58.8064 50.8427 58.6464 50.544C58.4864 50.2347 58.2677 50 57.9904 49.84C57.7237 49.68 57.4144 49.6 57.0624 49.6C56.721 49.6 56.4117 49.68 56.1344 49.84C55.8677 50 55.649 50.2347 55.4784 50.544C55.3184 50.8427 55.2384 51.2107 55.2384 51.648C55.2384 52.0853 55.3184 52.464 55.4784 52.784C55.649 53.0933 55.8677 53.328 56.1344 53.488C56.4117 53.648 56.721 53.728 57.0624 53.728ZM67.2386 56.144C66.1293 56.144 65.2653 55.872 64.6466 55.328C64.028 54.7733 63.7186 53.9413 63.7186 52.832V45.392H66.7586V52.8C66.7586 53.1093 66.844 53.3547 67.0146 53.536C67.1853 53.7067 67.404 53.792 67.6706 53.792C68.0333 53.792 68.3426 53.7013 68.5986 53.52L69.3506 55.648C69.0946 55.8187 68.78 55.9413 68.4066 56.016C68.0333 56.1013 67.644 56.144 67.2386 56.144ZM62.4546 49.92V47.648H68.7426V49.92H62.4546Z" fill="url(#paint0_linear_31_3)"/>
<path d="M46.3633 7.37449H43.9841L42.7991 4.26735C41.8235 1.70921 39.3368 0 36.5365 0H31.4635C28.6851 0 26.1842 1.68905 25.2009 4.26735L24.0159 7.37449H21.6367C20.1828 7.37449 19 8.53752 19 9.96708V25.4074C19 26.837 20.1828 28 21.6367 28H46.3633C47.8172 28 49 26.837 49 25.4074V9.96708C49 8.53752 47.8172 7.37449 46.3633 7.37449ZM39.7422 11.0617H44.1308C44.7644 11.0617 45.1905 11.703 44.9354 12.2737L41.4285 20.1176C41.2327 20.5557 40.7134 20.7525 40.2702 20.561C39.8259 20.3689 39.624 19.859 39.8194 19.422L42.7844 12.7901H39.7422C39.2568 12.7901 38.8633 12.4032 38.8633 11.9259C38.8633 11.4487 39.2568 11.0617 39.7422 11.0617ZM36.8751 4.46675C36.9275 3.96978 37.3927 3.60601 37.9216 3.70395C38.4016 3.8023 38.7023 4.24534 38.6119 4.72025C38.5127 5.18576 38.0669 5.48881 37.5782 5.39893C37.1111 5.303 36.8311 4.88433 36.8751 4.46675ZM33.1251 4.46675C33.1775 3.96995 33.6426 3.60595 34.1716 3.70395C34.6484 3.8016 34.9526 4.2435 34.8619 4.72025C34.7618 5.18939 34.3133 5.48812 33.8282 5.39893C33.362 5.30323 33.081 4.88537 33.1251 4.46675ZM31.7734 11.0617H36.1621C36.7956 11.0617 37.2218 11.703 36.9666 12.2737L33.4598 20.1176C33.2639 20.5557 32.7446 20.7525 32.3015 20.561C31.8571 20.3689 31.6553 19.859 31.8506 19.422L34.8156 12.7901H31.7734C31.288 12.7901 30.8945 12.4032 30.8945 11.9259C30.8945 11.4487 31.288 11.0617 31.7734 11.0617ZM29.3751 4.46617C29.4294 3.96194 29.9 3.60733 30.4216 3.70395C30.9159 3.80518 31.2061 4.27115 31.1113 4.72025C31.0264 5.16156 30.5842 5.49198 30.0783 5.39893C29.6102 5.30283 29.3318 4.8849 29.3751 4.46617ZM23.8047 11.0617H28.1933C28.8269 11.0617 29.253 11.703 28.9979 12.2737L25.491 20.1176C25.2952 20.5557 24.7759 20.7525 24.3327 20.561C23.8884 20.3689 23.6865 19.859 23.8819 19.422L26.8469 12.7901H23.8047C23.3193 12.7901 22.9258 12.4032 22.9258 11.9259C22.9258 11.4487 23.3193 11.0617 23.8047 11.0617ZM44.3125 24.3128H23.6875C23.2021 24.3128 22.8086 23.9258 22.8086 23.4486C22.8086 22.9713 23.2021 22.5844 23.6875 22.5844H44.3125C44.7979 22.5844 45.1914 22.9713 45.1914 23.4486C45.1914 23.9258 44.7979 24.3128 44.3125 24.3128Z" fill="url(#paint1_linear_31_3)"/>
<defs>
<linearGradient id="paint0_linear_31_3" x1="35.5" y1="40" x2="35.5" y2="60" gradientUnits="userSpaceOnUse">
<stop stop-color="#646A7B"/>
<stop offset="0.703125" stop-color="#39476C"/>
</linearGradient>
<linearGradient id="paint1_linear_31_3" x1="34" y1="0" x2="34" y2="28" gradientUnits="userSpaceOnUse">
<stop stop-color="#646A7B"/>
<stop offset="0.703125" stop-color="#39476C"/>
</linearGradient>
</defs>
</svg>
