<svg width="152" height="39" viewBox="0 0 152 39" fill="none" xmlns="http://www.w3.org/2000/svg">
<path d="M9.308 22.032H6.968V29H1.846V10.8H6.968V17.872H9.438L13.78 10.8H19.188L13.494 19.588L19.24 29H13.442L9.308 22.032ZM33.7978 25.464H26.1018L24.6718 29H19.4198L27.4538 10.8H32.5238L40.5838 29H35.2278L33.7978 25.464ZM32.2898 21.668L29.9498 15.844L27.6098 21.668H32.2898ZM43.4495 10.8H48.5195V21.486L56.0335 10.8H60.8695V29H55.7995V18.34L48.3115 29H43.4495V10.8ZM52.1335 9.708C50.2961 9.708 48.9441 9.35267 48.0775 8.642C47.2281 7.93133 46.8035 6.874 46.8035 5.47H50.2615C50.2788 6.07667 50.4348 6.52733 50.7295 6.822C51.0241 7.11667 51.4921 7.264 52.1335 7.264C52.7748 7.264 53.2515 7.11667 53.5635 6.822C53.8755 6.52733 54.0401 6.07667 54.0575 5.47H57.5155C57.5155 6.874 57.0821 7.93133 56.2155 8.642C55.3488 9.35267 53.9881 9.708 52.1335 9.708ZM87.9696 19.848C87.9696 22.2227 87.1549 24.112 85.5256 25.516C83.9136 26.9027 81.5736 27.6827 78.5056 27.856V29.858H73.7996V27.856C70.7316 27.6307 68.3829 26.8333 66.7536 25.464C65.1416 24.0947 64.3356 22.2227 64.3356 19.848C64.3356 17.4733 65.1416 15.6013 66.7536 14.232C68.3656 12.8453 70.7142 12.0393 73.7996 11.814V9.942H78.5056V11.814C81.5736 12.022 83.9136 12.8193 85.5256 14.206C87.1549 15.5753 87.9696 17.456 87.9696 19.848ZM78.5056 23.852C80.0482 23.6787 81.1749 23.2627 81.8856 22.604C82.6136 21.9453 82.9776 21.018 82.9776 19.822C82.9776 18.626 82.6049 17.7073 81.8596 17.066C81.1316 16.4247 80.0136 16.0173 78.5056 15.844V23.852ZM69.3276 19.848C69.3276 21.0267 69.7002 21.9367 70.4456 22.578C71.1909 23.2193 72.3089 23.6353 73.7996 23.826V15.844C72.2396 16.0173 71.1042 16.4247 70.3936 17.066C69.6829 17.7073 69.3276 18.6347 69.3276 19.848ZM108.053 10.8L100.513 24.866C99.716 26.374 98.7367 27.518 97.5754 28.298C96.4314 29.078 95.1747 29.468 93.8054 29.468C92.8 29.468 91.7254 29.2427 90.5814 28.792L91.8034 24.996C92.514 25.204 93.1207 25.308 93.6234 25.308C94.126 25.308 94.568 25.1953 94.9494 24.97C95.348 24.7447 95.712 24.3893 96.0414 23.904L88.9694 10.8H94.4034L98.6414 19.588L103.035 10.8H108.053ZM127.107 10.8V29H122.037V14.882H116.811L116.707 17.846C116.621 20.446 116.404 22.5607 116.057 24.19C115.728 25.8193 115.156 27.0847 114.341 27.986C113.527 28.87 112.374 29.312 110.883 29.312C110.19 29.312 109.41 29.208 108.543 29L108.829 24.788C109.055 24.84 109.289 24.866 109.531 24.866C110.207 24.866 110.727 24.5973 111.091 24.06C111.455 23.5227 111.715 22.7773 111.871 21.824C112.027 20.8533 112.131 19.5967 112.183 18.054L112.443 10.8H127.107ZM131.78 10.8H136.85V21.486L144.364 10.8H149.2V29H144.13V18.34L136.642 29H131.78V10.8Z" fill="#102940"/>
<circle cx="116.5" cy="4.5" r="4.5" fill="#FF9A3E"/>
<circle cx="37" cy="36" r="3" fill="#7C3EFF"/>
</svg>
