<svg width="36" height="36" viewBox="0 0 36 36" fill="none" xmlns="http://www.w3.org/2000/svg">
<path d="M19.5 3.07581V0H16.5V3.07581C9.42444 3.78223 3.78223 9.42444 3.07581 16.5H0V19.5H3.07581C3.78223 26.5756 9.42444 32.2178 16.5 32.9242V36H19.5V32.9242C26.5756 32.2178 32.2178 26.5756 32.9242 19.5H36V16.5H32.9242C32.2178 9.42444 26.5756 3.78223 19.5 3.07581V3.07581ZM29.8956 16.5H26.8641C26.2291 12.7394 23.2606 9.77014 19.5 9.13586V6.10437C24.9174 6.78442 29.2156 11.0826 29.8956 16.5ZM23.8026 19.5C23.2584 21.6031 21.6031 23.2584 19.5 23.8026V21H16.5V23.8026C14.3969 23.2584 12.7416 21.6031 12.1974 19.5H15V16.5H12.1974C12.7416 14.3969 14.3969 12.7416 16.5 12.1974V15H19.5V12.1974C21.6031 12.7416 23.2584 14.3969 23.8026 16.5H21V19.5H23.8026ZM16.5 6.10437V9.13586C12.7394 9.77087 9.77014 12.7394 9.13586 16.5H6.10437C6.78442 11.0826 11.0826 6.78442 16.5 6.10437ZM6.10437 19.5H9.13586C9.77087 23.2606 12.7394 26.2299 16.5 26.8641V29.8956C11.0826 29.2156 6.78442 24.9174 6.10437 19.5V19.5ZM19.5 29.8956V26.8641C23.2606 26.2291 26.2299 23.2606 26.8641 19.5H29.8956C29.2156 24.9174 24.9174 29.2156 19.5 29.8956Z" fill="url(#paint0_linear_1_17)"/>
<defs>
<linearGradient id="paint0_linear_1_17" x1="18" y1="0" x2="18" y2="36" gradientUnits="userSpaceOnUse">
<stop stop-color="#646A7B"/>
<stop offset="0.703125" stop-color="#39476C"/>
</linearGradient>
</defs>
</svg>
