<svg width="32" height="40" viewBox="0 0 32 40" fill="none" xmlns="http://www.w3.org/2000/svg">
<path d="M12.9671 40C20.1287 40 25.9343 34.1944 25.9343 27.0328C25.9343 19.8713 20.1287 14.0657 12.9671 14.0657C5.80556 14.0657 -3.05176e-05 19.8713 -3.05176e-05 27.0328C-3.05176e-05 34.1944 5.80556 40 12.9671 40Z" fill="url(#paint0_radial_492_432)"/>
<path d="M22.9494 17.178L16.7106 13.576L15.6322 15.4438L15.63 15.4476C15.2321 16.1367 16.3061 17.5017 18.029 18.4963C19.7518 19.491 21.4709 19.7388 21.8688 19.0496L22.9494 17.178Z" fill="url(#paint1_linear_492_432)"/>
<path d="M22.9494 17.1781C23.3473 16.4889 22.2732 15.124 20.5504 14.1293C18.8275 13.1346 17.1085 12.887 16.7105 13.5761C16.3127 14.2652 17.3868 15.6302 19.1095 16.6249C20.8324 17.6195 22.5515 17.8672 22.9494 17.1781Z" fill="url(#paint2_linear_492_432)"/>
<path d="M22.713 8.94242C22.7382 8.8988 22.7797 8.86698 22.8283 8.85394C22.8769 8.84091 22.9288 8.84773 22.9724 8.87291L23.8912 9.4034C23.9348 9.42858 23.9667 9.47006 23.9797 9.51871C23.9927 9.56736 23.9859 9.61919 23.9607 9.66281L20.5486 15.5727C20.5361 15.5943 20.5195 15.6132 20.4998 15.6284C20.48 15.6436 20.4574 15.6548 20.4333 15.6612C20.4092 15.6677 20.3841 15.6693 20.3594 15.666C20.3346 15.6628 20.3108 15.6547 20.2892 15.6422L19.3704 15.1117C19.3268 15.0865 19.2949 15.0451 19.2819 14.9964C19.2689 14.9478 19.2757 14.8959 19.3009 14.8523L22.713 8.94242Z" fill="url(#paint3_linear_492_432)"/>
<path d="M26.2262 10.74L28.0166 10.6238C28.6393 10.5834 28.986 9.88528 28.6418 9.36483L27.6705 7.89592C27.5098 7.65274 27.4915 7.34207 27.6229 7.08178L28.279 5.78091C28.5621 5.21974 28.1281 4.56344 27.5009 4.60408L26.047 4.69835C25.7561 4.71718 25.4773 4.57884 25.3166 4.33568L24.3454 2.86677C24.0012 2.34622 23.2231 2.39184 22.9421 2.94903L22.1341 4.55095C22.0044 4.80795 21.7485 4.97721 21.4612 4.99588L19.6708 5.11202C19.048 5.1524 18.7014 5.85057 19.0455 6.371L20.0168 7.83992C20.1775 8.08309 20.1958 8.39377 20.0644 8.65396L19.4082 9.95481C19.1252 10.516 19.5592 11.1723 20.1864 11.1316L21.6403 11.0374C21.9312 11.0185 22.2099 11.1569 22.3707 11.4001L23.3419 12.869C23.6861 13.3895 24.4642 13.3439 24.7452 12.7867L25.5532 11.1848C25.6829 10.9279 25.9389 10.7586 26.2262 10.74Z" fill="url(#paint4_linear_492_432)"/>
<path d="M21.5231 8.26351L21.0217 9.2783C20.8473 9.63117 21.1194 10.0408 21.5123 10.017L22.6211 9.94985C22.8047 9.93871 22.9802 10.0268 23.0809 10.1807L23.5846 10.9495C23.8018 11.2812 24.2973 11.2512 24.4729 10.8957L24.8801 10.0717C24.9615 9.9068 25.125 9.79824 25.3086 9.7871L26.4175 9.71992C26.8104 9.69613 27.031 9.2566 26.8153 8.92729L26.1951 7.98051C26.0956 7.82858 26.0839 7.6354 26.1643 7.47256L26.6657 6.45777C26.8401 6.1049 26.568 5.69524 26.1751 5.71902L25.0662 5.7862C24.8827 5.79734 24.7072 5.70925 24.6064 5.5554L24.1028 4.78656C23.8855 4.45488 23.3901 4.48488 23.2145 4.84035L22.8073 5.66437C22.7259 5.82926 22.5623 5.93782 22.3787 5.94896L21.2698 6.01613C20.8769 6.03992 20.6563 6.47946 20.872 6.80867L21.4923 7.75545C21.5918 7.90749 21.6036 8.10067 21.5231 8.26351Z" fill="url(#paint5_linear_492_432)"/>
<path d="M22.0319 9.37101L22.1052 10.5006C22.1306 10.8934 22.5711 11.112 22.8995 10.895L23.8261 10.2823C23.9795 10.1809 24.1755 10.1694 24.3397 10.2522L25.1604 10.6661C25.5144 10.8446 25.9285 10.5709 25.9028 10.1752L25.8434 9.25795C25.8314 9.07442 25.9188 8.89861 26.0722 8.79718L26.9989 8.18449C27.3273 7.96734 27.2985 7.47655 26.947 7.29918L25.9364 6.78943C25.7742 6.70767 25.6675 6.54614 25.6557 6.36489L25.5824 5.23534C25.5569 4.84249 25.1165 4.62377 24.7881 4.84092L23.8615 5.4536C23.7081 5.55503 23.5121 5.56648 23.3479 5.48372L22.5272 5.06982C22.1732 4.89125 21.7591 5.16498 21.7848 5.56071L21.8442 6.47794C21.8561 6.66147 21.7688 6.83729 21.6154 6.93872L20.6887 7.5514C20.3603 7.76846 20.3891 8.25935 20.7406 8.43672L21.7512 8.94647C21.9134 9.02831 22.0201 9.18975 22.0319 9.37101Z" fill="url(#paint6_linear_492_432)"/>
<path d="M24.847 9.07735L25.6009 9.02847C25.8632 9.01144 26.0091 8.7175 25.8642 8.49832L25.4552 7.87974C25.3876 7.7773 25.3799 7.64654 25.4351 7.53695L25.7115 6.98919C25.8307 6.75288 25.648 6.47653 25.3838 6.49367L24.7716 6.53335C24.6491 6.54128 24.5317 6.48305 24.4641 6.38062L24.0551 5.76203C23.9102 5.54286 23.5824 5.56201 23.4642 5.79666L23.1239 6.47125C23.0693 6.57951 22.9616 6.65077 22.8406 6.65861L22.0866 6.70749C21.8244 6.72452 21.6784 7.01846 21.8233 7.23764L22.2324 7.85622C22.3 7.95866 22.3077 8.08942 22.2524 8.19901L21.9762 8.74679C21.857 8.9831 22.0397 9.25945 22.3038 9.24231L22.916 9.20263C23.0385 9.1947 23.1559 9.25293 23.2236 9.35536L23.6326 9.97395C23.7775 10.1931 24.1052 10.174 24.2235 9.93932L24.5637 9.26473C24.6182 9.15645 24.726 9.08519 24.847 9.07735Z" fill="url(#paint7_linear_492_432)"/>
<path d="M25.7499 10.1657L27.1824 10.0729C27.6805 10.0406 27.9579 9.48205 27.6825 9.06555L26.9055 7.89031C26.7768 7.6957 26.7622 7.44718 26.8673 7.23893L27.3923 6.1982C27.6187 5.74918 27.2716 5.2241 26.7698 5.25673L25.6066 5.33223C25.3738 5.34734 25.1509 5.23655 25.0222 5.04203L24.2451 3.86679C23.9697 3.45038 23.3472 3.48678 23.1224 3.93261L22.476 5.21421C22.3722 5.41989 22.1674 5.5553 21.9377 5.57014L20.5052 5.663C20.007 5.69529 19.7296 6.2539 20.005 6.67031L20.7821 7.84555C20.9108 8.04007 20.9253 8.28868 20.8203 8.49693L20.2953 9.53766C20.0688 9.98668 20.416 10.5118 20.9178 10.4791L22.081 10.4036C22.3137 10.3885 22.5367 10.4993 22.6654 10.6938L23.4424 11.8691C23.7177 12.2855 24.3403 12.2491 24.5652 11.8033L25.2117 10.5217C25.3152 10.316 25.52 10.1806 25.7499 10.1657Z" fill="url(#paint8_linear_492_432)"/>
<path d="M17.2376 5.11753C17.1311 5.63979 16.6214 5.97678 16.0991 5.87027C15.5769 5.76375 15.2399 5.25408 15.3464 4.73182C15.4529 4.20956 15.9626 3.87256 16.4848 3.97908C17.007 4.08548 17.3441 4.59527 17.2376 5.11753Z" fill="url(#paint9_linear_492_432)"/>
<path d="M26.1973 15.5877C26.7195 15.6942 27.2292 15.3572 27.3357 14.8349C27.4422 14.3127 27.1052 13.803 26.583 13.6965C26.0607 13.59 25.551 13.927 25.4445 14.4492C25.338 14.9715 25.675 15.4812 26.1973 15.5877Z" fill="url(#paint10_linear_492_432)"/>
<path d="M18.4979 3.47898C18.4447 3.74011 18.1898 3.9086 17.9287 3.85535C17.6676 3.80209 17.4991 3.54725 17.5523 3.28612C17.6056 3.02499 17.8604 2.85649 18.1216 2.90975C18.3826 2.96299 18.5512 3.21785 18.4979 3.47898Z" fill="url(#paint11_linear_492_432)"/>
<path d="M26.8597 12.0332C26.8065 12.2944 26.5516 12.4629 26.2905 12.4096C26.0294 12.3563 25.8609 12.1015 25.9141 11.8404C25.9674 11.5793 26.2222 11.4108 26.4834 11.464C26.7445 11.5173 26.913 11.7721 26.8597 12.0332Z" fill="url(#paint12_linear_492_432)"/>
<path d="M29.7943 7.32248C30.0554 7.37573 30.3103 7.20723 30.3635 6.94611C30.4168 6.68499 30.2483 6.43014 29.9871 6.37689C29.726 6.32363 29.4712 6.49213 29.4179 6.75325C29.3647 7.01437 29.5332 7.26922 29.7943 7.32248Z" fill="url(#paint13_linear_492_432)"/>
<path d="M27.1109 2.69504C27.0576 2.95617 26.8028 3.12467 26.5417 3.07141C26.2805 3.01815 26.112 2.76331 26.1653 2.50219C26.2185 2.24106 26.4734 2.07256 26.7345 2.12582C26.9956 2.17908 27.1641 2.43391 27.1109 2.69504Z" fill="url(#paint14_linear_492_432)"/>
<path d="M15.3202 24.8543C14.8864 24.6787 14.5298 24.6172 13.6842 24.5676C13.1772 24.5371 12.5736 24.4721 12.3402 24.4175C11.9587 24.3257 11.8603 24.2849 11.2642 23.9408C10.642 23.5869 10.595 23.549 10.4025 23.3042C10.2902 23.1591 10.1567 22.959 10.108 22.8506L10.0149 22.6631L9.94803 22.7422C9.84709 22.8712 9.72539 23.293 9.70926 23.5779C9.68853 23.9351 9.82812 24.4918 10.0206 24.8008C10.4427 25.4831 11.0831 25.8422 11.8937 25.8608C12.0728 25.8626 12.2119 25.8787 12.2003 25.8988C12.1609 25.967 11.619 26.1623 11.4054 26.1834C11.2872 26.1954 11.0995 26.1993 10.9849 26.1867C10.8127 26.1729 10.7561 26.1883 10.6691 26.2932C10.5711 26.4078 10.361 26.8268 10.2257 27.1713L10.1662 27.3295L9.78242 27.3058C9.21159 27.2758 8.72283 27.122 8.28535 26.8427C7.97437 26.6471 7.9025 26.5789 7.73189 26.3145C7.53809 26.0261 7.53246 26.0175 7.54609 26.1591C7.57002 26.4297 7.78348 27.0879 7.95577 27.4227C8.18804 27.8831 8.46694 28.226 8.88955 28.577C9.20055 28.8368 9.33964 28.9171 10.1218 29.3152C11.1001 29.8051 11.3644 29.9898 11.6271 30.3608C11.7082 30.4772 11.7735 30.5844 11.7665 30.5964C11.7619 30.6045 11.6198 30.5385 11.4529 30.4421C11.1509 30.2677 10.4419 30.0456 10.4026 30.1138C10.3655 30.178 10.9084 30.9355 11.1953 31.2188C11.5851 31.599 12.2448 31.9799 12.7673 32.1211C14.3167 32.5395 15.9108 31.9995 16.8881 30.7289C17.1154 30.4269 17.3021 30.0853 17.4794 29.6314L17.5412 29.4691L15.6814 28.3954L13.3443 28.139L13.3427 28.1417L13.3411 28.1445L14.8191 30.0907L14.6758 30.1738C14.4533 30.3021 14.0219 30.3794 13.657 30.3506C13.3475 30.327 13.2951 30.3075 12.8898 30.0734C12.4964 29.8463 12.4357 29.7953 12.2847 29.5797C12.0677 29.2672 11.9583 28.9794 11.9241 28.644C11.8301 27.6964 12.3913 26.8436 13.2968 26.5693C14.1331 26.3139 15.0431 26.6467 15.479 27.3692L15.6242 27.6134L16.6375 28.1985C17.7821 28.8593 17.6777 28.8472 17.6719 28.325C17.6569 27.0111 16.8893 25.7067 15.769 25.0866C15.5941 24.9856 15.3924 24.8852 15.3202 24.8543Z" fill="url(#paint15_linear_492_432)"/>
<defs>
<radialGradient id="paint0_radial_492_432" cx="0" cy="0" r="1" gradientUnits="userSpaceOnUse" gradientTransform="translate(12.9671 21.2696) rotate(110.171) scale(18.8029 13.4376)">
<stop stop-color="#FC5751"/>
<stop offset="1" stop-color="#7E2622"/>
</radialGradient>
<linearGradient id="paint1_linear_492_432" x1="15.63" y1="14.8496" x2="22.4737" y2="18.8118" gradientUnits="userSpaceOnUse">
<stop stop-color="#98312C"/>
<stop offset="0.263" stop-color="#F85A55"/>
<stop offset="1" stop-color="#902D29"/>
</linearGradient>
<linearGradient id="paint2_linear_492_432" x1="18.5115" y1="16.6507" x2="20.6727" y2="14.1293" gradientUnits="userSpaceOnUse">
<stop stop-color="#F3544E"/>
<stop offset="1" stop-color="#7F2723"/>
</linearGradient>
<linearGradient id="paint3_linear_492_432" x1="23.4318" y1="9.13811" x2="19.8298" y2="15.377" gradientUnits="userSpaceOnUse">
<stop stop-color="#EC1422"/>
<stop offset="1" stop-color="#2E2E2E"/>
</linearGradient>
<linearGradient id="paint4_linear_492_432" x1="24.481" y1="4.67612" x2="22.8459" y2="12.6935" gradientUnits="userSpaceOnUse">
<stop stop-color="#FFD945"/>
<stop offset="0.3043" stop-color="#FFCD3E"/>
<stop offset="0.8558" stop-color="#FFAD2B"/>
<stop offset="1" stop-color="#FFA325"/>
</linearGradient>
<linearGradient id="paint5_linear_492_432" x1="22.6677" y1="6.08927" x2="25.7254" y2="10.7138" gradientUnits="userSpaceOnUse">
<stop stop-color="#FF7044" stop-opacity="0"/>
<stop offset="1" stop-color="#FFA325"/>
</linearGradient>
<linearGradient id="paint6_linear_492_432" x1="26.5736" y1="9.66656" x2="18.5908" y2="4.39565" gradientUnits="userSpaceOnUse">
<stop stop-color="#FF7044" stop-opacity="0"/>
<stop offset="1" stop-color="#FFA325"/>
</linearGradient>
<linearGradient id="paint7_linear_492_432" x1="24.1055" y1="6.51737" x2="23.4169" y2="9.89355" gradientUnits="userSpaceOnUse">
<stop stop-color="#FF7044"/>
<stop offset="1" stop-color="#F82814"/>
</linearGradient>
<linearGradient id="paint8_linear_492_432" x1="24.3533" y1="8.53111" x2="19.2379" y2="1.87394" gradientUnits="userSpaceOnUse">
<stop stop-color="white" stop-opacity="0"/>
<stop offset="1" stop-color="white"/>
</linearGradient>
<linearGradient id="paint9_linear_492_432" x1="16.0728" y1="4.59319" x2="16.9418" y2="5.90755" gradientUnits="userSpaceOnUse">
<stop stop-color="#FFD945"/>
<stop offset="0.3043" stop-color="#FFCD3E"/>
<stop offset="0.8558" stop-color="#FFAD2B"/>
<stop offset="1" stop-color="#FFA325"/>
</linearGradient>
<linearGradient id="paint10_linear_492_432" x1="26.171" y1="14.3107" x2="27.04" y2="15.625" gradientUnits="userSpaceOnUse">
<stop stop-color="#FFD945"/>
<stop offset="0.3043" stop-color="#FFCD3E"/>
<stop offset="0.8558" stop-color="#FFAD2B"/>
<stop offset="1" stop-color="#FFA325"/>
</linearGradient>
<linearGradient id="paint11_linear_492_432" x1="17.9156" y1="3.21681" x2="18.35" y2="3.87398" gradientUnits="userSpaceOnUse">
<stop stop-color="#FFD945"/>
<stop offset="0.3043" stop-color="#FFCD3E"/>
<stop offset="0.8558" stop-color="#FFAD2B"/>
<stop offset="1" stop-color="#FFA325"/>
</linearGradient>
<linearGradient id="paint12_linear_492_432" x1="26.2773" y1="11.7711" x2="26.7119" y2="12.4283" gradientUnits="userSpaceOnUse">
<stop stop-color="#FFD945"/>
<stop offset="0.3043" stop-color="#FFCD3E"/>
<stop offset="0.8558" stop-color="#FFAD2B"/>
<stop offset="1" stop-color="#FFA325"/>
</linearGradient>
<linearGradient id="paint13_linear_492_432" x1="29.7811" y1="6.68403" x2="30.2157" y2="7.34113" gradientUnits="userSpaceOnUse">
<stop stop-color="#FFD945"/>
<stop offset="0.3043" stop-color="#FFCD3E"/>
<stop offset="0.8558" stop-color="#FFAD2B"/>
<stop offset="1" stop-color="#FFA325"/>
</linearGradient>
<linearGradient id="paint14_linear_492_432" x1="26.5285" y1="2.43297" x2="26.963" y2="3.09006" gradientUnits="userSpaceOnUse">
<stop stop-color="#FFD945"/>
<stop offset="0.3043" stop-color="#FFCD3E"/>
<stop offset="0.8558" stop-color="#FFAD2B"/>
<stop offset="1" stop-color="#FFA325"/>
</linearGradient>
<linearGradient id="paint15_linear_492_432" x1="10.6556" y1="31.7364" x2="11.6441" y2="23.2112" gradientUnits="userSpaceOnUse">
<stop stop-color="#BF534F"/>
<stop offset="1" stop-color="#F8736E"/>
</linearGradient>
</defs>
</svg>
