<svg width="34" height="34" viewBox="0 0 34 34" fill="none" xmlns="http://www.w3.org/2000/svg">
<rect width="34" height="34" rx="8" fill="#3B7BE6"/>
<path d="M16.8406 11.5813C17.6199 11.5813 18.3639 11.712 19.0449 11.9495C18.759 12.3955 18.5937 12.9253 18.5937 13.4938C18.5937 15.0781 19.8781 16.3625 21.4625 16.3625C21.9046 16.3625 22.3235 16.2625 22.6975 16.0838C22.7238 16.2791 22.7375 16.4788 22.7375 16.6813C22.7375 19.4979 20.0974 21.7813 16.8406 21.7813C16.2835 21.7813 15.7445 21.7145 15.2336 21.5896C14.5646 22.1853 13.4477 22.6794 11.8841 23.0713C11.8166 23.0882 11.7453 23.0787 11.6845 23.0448C11.5528 22.9713 11.5057 22.8049 11.5792 22.6732L11.6928 22.4665C12.195 21.5401 12.4957 20.7909 12.5951 20.2189C11.5723 19.303 10.9437 18.0556 10.9437 16.6813C10.9437 13.8646 13.5838 11.5813 16.8406 11.5813ZM21.4625 11.5813C22.5187 11.5813 23.375 12.4375 23.375 13.4938C23.375 14.55 22.5187 15.4063 21.4625 15.4063C20.4062 15.4063 19.55 14.55 19.55 13.4938C19.55 12.4375 20.4062 11.5813 21.4625 11.5813Z" fill="white"/>
</svg>
