<svg width="40" height="40" viewBox="0 0 40 40" fill="none" xmlns="http://www.w3.org/2000/svg">
<rect width="40" height="40" rx="10" fill="#3B7BE6" fill-opacity="0.15"/>
<path d="M19.8125 13.625C20.7293 13.625 21.6047 13.7788 22.4058 14.0583C22.0695 14.583 21.875 15.2063 21.875 15.875C21.875 17.739 23.386 19.25 25.25 19.25C25.7702 19.25 26.2629 19.1323 26.703 18.9221C26.734 19.1519 26.75 19.3868 26.75 19.625C26.75 22.9387 23.644 25.625 19.8125 25.625C19.1571 25.625 18.523 25.5464 17.922 25.3995C17.1348 26.1003 15.8209 26.6816 13.9813 27.1427C13.902 27.1626 13.818 27.1514 13.7466 27.1116C13.5916 27.025 13.5361 26.8293 13.6226 26.6743L13.7563 26.4311C14.3471 25.3412 14.7009 24.4598 14.8178 23.7869C13.6145 22.7093 12.875 21.2419 12.875 19.625C12.875 16.3113 15.981 13.625 19.8125 13.625ZM25.25 13.625C26.4926 13.625 27.5 14.6324 27.5 15.875C27.5 17.1176 26.4926 18.125 25.25 18.125C24.0074 18.125 23 17.1176 23 15.875C23 14.6324 24.0074 13.625 25.25 13.625Z" fill="#3B7BE6"/>
</svg>
