<svg width="68" height="63" viewBox="0 0 68 63" fill="none" xmlns="http://www.w3.org/2000/svg">
<path d="M1.2 59V47.8H10.56V50.248H4.32V52.056H7.216C8.58133 52.056 9.62133 52.344 10.336 52.92C11.0613 53.496 11.424 54.328 11.424 55.416C11.424 56.536 11.0187 57.416 10.208 58.056C9.39733 58.6853 8.26133 59 6.8 59H1.2ZM4.32 56.728H6.592C7.11467 56.728 7.51467 56.6213 7.792 56.408C8.08 56.1947 8.224 55.8907 8.224 55.496C8.224 54.7067 7.68 54.312 6.592 54.312H4.32V56.728ZM17.1554 59.144C16.206 59.144 15.3634 58.952 14.6274 58.568C13.8914 58.184 13.31 57.656 12.8834 56.984C12.4674 56.3013 12.2594 55.5227 12.2594 54.648C12.2594 53.7733 12.4674 53 12.8834 52.328C13.31 51.656 13.8914 51.1333 14.6274 50.76C15.3634 50.376 16.206 50.184 17.1554 50.184C18.1047 50.184 18.9474 50.376 19.6834 50.76C20.43 51.1333 21.0114 51.656 21.4274 52.328C21.8434 53 22.0514 53.7733 22.0514 54.648C22.0514 55.5227 21.8434 56.3013 21.4274 56.984C21.0114 57.656 20.43 58.184 19.6834 58.568C18.9474 58.952 18.1047 59.144 17.1554 59.144ZM17.1554 56.728C17.5074 56.728 17.8167 56.648 18.0834 56.488C18.3607 56.328 18.5794 56.0933 18.7394 55.784C18.8994 55.464 18.9794 55.0853 18.9794 54.648C18.9794 54.2107 18.8994 53.8427 18.7394 53.544C18.5794 53.2347 18.3607 53 18.0834 52.84C17.8167 52.68 17.5074 52.6 17.1554 52.6C16.814 52.6 16.5047 52.68 16.2274 52.84C15.9607 53 15.742 53.2347 15.5714 53.544C15.4114 53.8427 15.3314 54.2107 15.3314 54.648C15.3314 55.0853 15.4114 55.464 15.5714 55.784C15.742 56.0933 15.9607 56.328 16.2274 56.488C16.5047 56.648 16.814 56.728 17.1554 56.728ZM23.4771 59V50.328H26.5011V53.544H29.6211V50.328H32.6611V59H29.6211V55.96H26.5011V59H23.4771ZM36.3115 62.248C35.8528 62.248 35.3888 62.1733 34.9195 62.024C34.4608 61.8853 34.0875 61.6987 33.7995 61.464L34.8555 59.336C35.0368 59.496 35.2448 59.6187 35.4795 59.704C35.7248 59.8 35.9648 59.848 36.1995 59.848C36.5302 59.848 36.7915 59.7733 36.9835 59.624C37.1755 59.4747 37.3408 59.24 37.4795 58.92L37.8795 57.912L38.1195 57.608L41.0635 50.328H43.9595L40.2155 59.352C39.9168 60.0987 39.5702 60.68 39.1755 61.096C38.7915 61.5227 38.3595 61.8213 37.8795 61.992C37.4102 62.1627 36.8875 62.248 36.3115 62.248ZM37.4955 59.368L33.6715 50.328H36.7915L39.6075 57.336L37.4955 59.368ZM49.0635 59.144C48.1035 59.144 47.2448 58.952 46.4875 58.568C45.7408 58.184 45.1542 57.656 44.7275 56.984C44.3008 56.3013 44.0875 55.5227 44.0875 54.648C44.0875 53.7733 44.3008 53 44.7275 52.328C45.1542 51.656 45.7408 51.1333 46.4875 50.76C47.2448 50.376 48.1035 50.184 49.0635 50.184C50.0448 50.184 50.8928 50.392 51.6075 50.808C52.3222 51.224 52.8288 51.8107 53.1275 52.568L50.7755 53.768C50.5728 53.3627 50.3222 53.0693 50.0235 52.888C49.7248 52.696 49.3995 52.6 49.0475 52.6C48.6955 52.6 48.3755 52.68 48.0875 52.84C47.7995 53 47.5702 53.2347 47.3995 53.544C47.2395 53.8427 47.1595 54.2107 47.1595 54.648C47.1595 55.096 47.2395 55.4747 47.3995 55.784C47.5702 56.0933 47.7995 56.328 48.0875 56.488C48.3755 56.648 48.6955 56.728 49.0475 56.728C49.3995 56.728 49.7248 56.6373 50.0235 56.456C50.3222 56.264 50.5728 55.9653 50.7755 55.56L53.1275 56.76C52.8288 57.5173 52.3222 58.104 51.6075 58.52C50.8928 58.936 50.0448 59.144 49.0635 59.144ZM63.535 59V50.328H66.559V59H63.535ZM59.359 53.016C60.511 53.0267 61.3697 53.2827 61.935 53.784C62.511 54.2853 62.799 55 62.799 55.928C62.799 56.888 62.4683 57.6453 61.807 58.2C61.1457 58.744 60.2017 59.0107 58.975 59H54.399V50.328H57.423V53.016H59.359ZM58.671 56.92C59.0337 56.92 59.3163 56.8347 59.519 56.664C59.7217 56.4933 59.823 56.232 59.823 55.88C59.823 55.5173 59.7217 55.2613 59.519 55.112C59.327 54.9627 59.0443 54.8827 58.671 54.872H57.423V56.904L58.671 56.92Z" fill="url(#paint0_linear_1_20)"/>
<path d="M48.9375 8.25H36.6491V14.4375H51V10.3125C51 9.76549 50.7827 9.24089 50.3959 8.85409C50.0091 8.4673 49.4845 8.25 48.9375 8.25ZM20.0625 8.25C19.5155 8.25 18.9909 8.4673 18.6041 8.85409C18.2173 9.24089 18 9.76549 18 10.3125V14.4375H32.4375V8.25H20.0625ZM20.0625 16.5V30.9375C20.0625 31.4845 20.2798 32.0091 20.6666 32.3959C21.0534 32.7827 21.578 33 22.125 33H32.4375V16.5H20.0625ZM46.875 33C47.422 33 47.9466 32.7827 48.3334 32.3959C48.7202 32.0091 48.9375 31.4845 48.9375 30.9375V16.5H36.6491V33H46.875ZM34.4979 6.171H34.5041C34.5018 6.17621 34.5004 6.1818 34.5 6.1875H42.75C45.5983 6.1875 46.875 4.8015 46.875 3.09375C46.875 1.386 45.5983 0 42.75 0C40.0832 0 37.9836 1.20037 36.5625 2.59256C35.9217 2.20661 35.1883 2.00135 34.4402 1.99856C33.6936 1.99856 33.0026 2.20894 32.3962 2.55131C30.9772 1.17562 28.89 0 26.25 0C23.4017 0 22.125 1.386 22.125 3.09375C22.125 4.8015 23.4017 6.1875 26.25 6.1875H34.5L34.4979 6.171ZM44.8125 3.09375C44.8125 3.94556 43.6905 4.125 42.75 4.125H38.0661C38.0496 4.09612 38.0351 4.06519 38.0186 4.03837C39.0664 3.0195 40.6545 2.0625 42.75 2.0625C43.6905 2.0625 44.8125 2.24194 44.8125 3.09375ZM24.1875 3.09375C24.1875 2.24194 25.3095 2.0625 26.25 2.0625C28.3001 2.0625 29.8552 2.98031 30.903 3.96413C30.87 4.01569 30.8452 4.07137 30.8143 4.125H26.25C25.3095 4.125 24.1875 3.94556 24.1875 3.09375Z" fill="url(#paint1_linear_1_20)"/>
<defs>
<linearGradient id="paint0_linear_1_20" x1="34" y1="43" x2="34" y2="63" gradientUnits="userSpaceOnUse">
<stop stop-color="#646A7B"/>
<stop offset="0.703125" stop-color="#39476C"/>
</linearGradient>
<linearGradient id="paint1_linear_1_20" x1="34.5" y1="0" x2="34.5" y2="33" gradientUnits="userSpaceOnUse">
<stop stop-color="#646A7B"/>
<stop offset="0.716667" stop-color="#39476C"/>
</linearGradient>
</defs>
</svg>
