<svg width="77" height="92" viewBox="0 0 77 92" fill="none" xmlns="http://www.w3.org/2000/svg">
<path fill-rule="evenodd" clip-rule="evenodd" d="M1.71914 36.0515C1.93159 37.4158 3.20975 38.3495 4.57403 38.1371C26.9072 34.6594 49.7853 35.1739 72.1339 39.6616C73.4876 39.9334 74.8053 39.0564 75.0772 37.7027C75.349 36.349 74.4719 35.0312 73.1183 34.7594C50.1965 30.1567 26.7248 29.6275 3.80471 33.1966C2.44044 33.409 1.5067 34.6872 1.71914 36.0515Z" fill="#FDD823"/>
<g filter="url(#filter0_d)">
<path d="M40.3052 61.1515C39.5808 62.6701 37.4193 62.6701 36.6949 61.1515L24.8614 36.3455C24.2282 35.0182 25.1959 33.4844 26.6665 33.4844L50.3336 33.4843C51.8042 33.4843 52.7719 35.0182 52.1387 36.3455L40.3052 61.1515Z" fill="url(#paint0_radial)"/>
<path d="M38.5 60.2904L26.6665 35.4844L50.3336 35.4843L38.5 60.2904Z" stroke="url(#paint1_linear)" stroke-width="4"/>
</g>
<defs>
<filter id="filter0_d" x="4.66408" y="22.4844" width="67.6719" height="68.8061" filterUnits="userSpaceOnUse" color-interpolation-filters="sRGB">
<feFlood flood-opacity="0" result="BackgroundImageFix"/>
<feColorMatrix in="SourceAlpha" type="matrix" values="0 0 0 0 0 0 0 0 0 0 0 0 0 0 0 0 0 0 127 0"/>
<feOffset dy="9"/>
<feGaussianBlur stdDeviation="10"/>
<feColorMatrix type="matrix" values="0 0 0 0 0 0 0 0 0 0 0 0 0 0 0 0 0 0 0.15 0"/>
<feBlend mode="normal" in2="BackgroundImageFix" result="effect1_dropShadow"/>
<feBlend mode="normal" in="SourceGraphic" in2="effect1_dropShadow" result="shape"/>
</filter>
<radialGradient id="paint0_radial" cx="0" cy="0" r="1" gradientUnits="userSpaceOnUse" gradientTransform="translate(38.5 43.9681) rotate(-90) scale(20.9675 17.3246)">
<stop stop-color="#FBFF30"/>
<stop offset="1" stop-color="#FFBC10"/>
</radialGradient>
<linearGradient id="paint1_linear" x1="38.5" y1="64.9355" x2="38.5" y2="23.0006" gradientUnits="userSpaceOnUse">
<stop stop-color="#FFE91F"/>
<stop offset="1" stop-color="#FBD124"/>
</linearGradient>
</defs>
</svg>
