<?xml version="1.0" encoding="utf-8"?>
<!-- Generator: Adobe Illustrator 25.0.1, SVG Export Plug-In . SVG Version: 6.00 Build 0)  -->
<svg version="1.1" id="Слой_1" xmlns="http://www.w3.org/2000/svg" xmlns:xlink="http://www.w3.org/1999/xlink" x="0px" y="0px"
	 viewBox="0 0 140 80" style="enable-background:new 0 0 140 80;" xml:space="preserve">
<style type="text/css">
	.st0{fill:#24A84D;}
	.st1{fill:url(#SVGID_1_);}
	.st2{fill:#F59D1A;}
	.st3{fill:#E7001B;}
	.st4{fill:#FC5F01;}
	.st5{fill:#E30520;}
	.st6{fill:#0081C4;}
	.st7{fill:#0F5787;}
	.st8{fill:url(#SVGID_2_);}
</style>
<path class="st0" d="M51.9,47L48,55.2h-0.4l0.1-10h-5.4l-0.1,17h4.6c1.2,0,2.3-0.7,2.8-1.8l3.9-8.2h0.4l-0.1,10h5.4l0.1-17h-4.6
	C53.5,45.2,52.4,45.9,51.9,47"/>
<path class="st0" d="M31.6,47.3l-2.3,7.8h-0.4l-2.2-7.8c-0.4-1.3-1.6-2.3-3-2.3h-5.4l-0.1,17h5.4l0.1-10h0.4l3,10.1h3.9l3.2-10h0.4
	l-0.1,10h5.4l0.1-17h-5.4C33.2,45.1,31.9,46,31.6,47.3"/>
<path class="st0" d="M61.6,53l-0.1,9.3h5.4v-5.4h5.8c2.5,0,4.7-1.5,5.5-3.8L61.6,53z"/>
<linearGradient id="SVGID_1_" gradientUnits="userSpaceOnUse" x1="64.3437" y1="39.554" x2="82.1156" y2="39.554" gradientTransform="matrix(1 7.155789e-03 7.155789e-03 -1 -3.7803 87.8366)">
	<stop  offset="1.000000e-02" style="stop-color:#0FA5E1"/>
	<stop  offset="0.35" style="stop-color:#0C9CDA"/>
	<stop  offset="0.91" style="stop-color:#0483C6"/>
	<stop  offset="1" style="stop-color:#037EC2"/>
</linearGradient>
<path class="st1" d="M72.8,45.4l-12-0.1c0.7,4,4.2,7,8.3,7l9.3,0.1c0.1-0.4,0.1-0.8,0.1-1.2C78.6,48,76,45.4,72.8,45.4"/>
<g id="g3110">
	<path id="path2997" class="st2" d="M50.9,25.4c0,5.6-4.4,10.1-10,10.2s-10.1-4.4-10.2-10s4.4-10.1,10-10.2c0,0,0.1,0,0.1,0
		C46.3,15.3,50.8,19.7,50.9,25.4C50.9,25.3,50.9,25.3,50.9,25.4z"/>
	<path id="path2995" class="st3" d="M38.4,25.4c0,5.6-4.4,10.1-10,10.2s-10.1-4.4-10.2-10s4.4-10.1,10-10.2c0,0,0.1,0,0.1,0
		C33.9,15.3,38.4,19.7,38.4,25.4C38.4,25.3,38.4,25.3,38.4,25.4z"/>
	<path id="path2999" class="st4" d="M34.6,17.5c-4.3,3.4-5.1,9.7-1.7,14c0.5,0.6,1.1,1.2,1.7,1.7c4.3-3.4,5.1-9.7,1.7-14
		C35.8,18.6,35.2,18,34.6,17.5z"/>
</g>
<path id="path2997-2" class="st5" d="M121,53.3c0,5.6-4.5,10.1-10.1,10.1s-10.1-4.5-10.1-10.1s4.5-10.1,10.1-10.1c0,0,0.1,0,0.1,0
	C116.5,43.3,121,47.7,121,53.3C121,53.3,121,53.3,121,53.3z"/>
<path id="path2995-2" class="st6" d="M108.6,53.2c0,5.6-4.5,10.1-10.1,10.1c-5.6,0-10.1-4.5-10.1-10.1s4.5-10.1,10.1-10.1
	c0,0,0.1,0,0.1,0C104.1,43.2,108.6,47.6,108.6,53.2C108.6,53.2,108.6,53.2,108.6,53.2z"/>
<path id="path2999-2" class="st7" d="M104.8,45.3c-4.4,3.4-5.2,9.7-1.8,14c0.5,0.6,1.1,1.2,1.7,1.7c4.4-3.4,5.2-9.7,1.8-14
	C106,46.4,105.4,45.8,104.8,45.3z"/>
<linearGradient id="SVGID_2_" gradientUnits="userSpaceOnUse" x1="59.06" y1="56.6697" x2="121" y2="56.6697" gradientTransform="matrix(1 0 0 -1 0 82)">
	<stop  offset="0" style="stop-color:#241E5C"/>
	<stop  offset="1" style="stop-color:#004D9F"/>
</linearGradient>
<path class="st8" d="M82.6,15.7l-8.1,19.4h-5.3l-4-15.4c-0.1-0.7-0.5-1.4-1.2-1.7c-1.6-0.8-3.2-1.3-4.9-1.6l0.1-0.6h8.5
	c1.2,0,2.1,0.9,2.3,2l2.1,11.2l5.2-13.2L82.6,15.7z M103.3,28.7c0-5.1-7.1-5.4-7-7.7c0-0.7,0.7-1.4,2.1-1.6c1.7-0.2,3.4,0.1,4.9,0.9
	l0.9-4.1c-1.5-0.6-3.1-0.9-4.7-0.9c-4.9,0-8.4,2.6-8.5,6.4c0,2.8,2.5,4.3,4.4,5.3s2.6,1.6,2.6,2.4c0,1.3-1.6,1.9-3,1.9
	c-1.8,0-3.5-0.4-5.1-1.2l-0.9,4.2c1.8,0.7,3.7,1,5.6,1C99.9,35.3,103.3,32.7,103.3,28.7 M116.4,35h4.6l-4-19.3h-4.3
	c-0.9,0-1.8,0.6-2.1,1.4L103.1,35h5.2l1-2.9h6.4L116.4,35z M110.8,28.2l2.6-7.3l1.5,7.3L110.8,28.2z M89.8,15.7l-4.1,19.4h-5
	l4.1-19.3L89.8,15.7z"/>
</svg>
