<svg width="36" height="32" viewBox="0 0 36 32" fill="none" xmlns="http://www.w3.org/2000/svg">
<path d="M8.95725 1.42816L0 15.0804L7.605 29.6966L16.5623 16.0443L8.95725 1.42926V1.42816ZM4.46625 15.9801C3.75188 15.9801 3.1725 15.4095 3.1725 14.7059C3.1725 14.0024 3.75188 13.4318 4.46625 13.4318C5.18063 13.4318 5.76 14.0024 5.76 14.7059C5.76 15.4095 5.18063 15.9801 4.46625 15.9801ZM7.59938 22.0616C6.885 22.0616 6.30563 21.491 6.30563 20.7875C6.30563 20.0839 6.885 19.5133 7.59938 19.5133C8.31375 19.5133 8.89313 20.0839 8.89313 20.7875C8.89313 21.491 8.31375 22.0616 7.59938 22.0616V22.0616ZM8.02462 10.6175C7.31025 10.6175 6.73087 10.0469 6.73087 9.3434C6.73087 8.63984 7.31025 8.06925 8.02462 8.06925C8.739 8.06925 9.31837 8.63984 9.31837 9.3434C9.31837 10.0469 8.739 10.6175 8.02462 10.6175V10.6175ZM11.4683 16.9628C10.7539 16.9628 10.1756 16.3933 10.1756 15.6898C10.1756 14.9862 10.7539 14.4156 11.4683 14.4156C12.1826 14.4156 12.762 14.9862 12.762 15.6898C12.762 16.3933 12.1826 16.9639 11.4683 16.9639V16.9628ZM18.4241 17.2276L9.2925 31.1458L26.5883 32L35.7199 18.0807L18.4241 17.2276V17.2276ZM17.4847 28.9033C16.7704 28.9033 16.1921 28.3327 16.1921 27.6302C16.1921 26.9278 16.7715 26.3572 17.4847 26.3572C18.1991 26.3572 18.7774 26.9278 18.7774 27.6302C18.7774 28.3327 18.198 28.9033 17.4847 28.9033V28.9033ZM27.846 23.3347C27.1316 23.3347 26.5534 22.7641 26.5534 22.0616C26.5534 21.3592 27.1328 20.7886 27.846 20.7886C28.5604 20.7886 29.1386 21.3592 29.1386 22.0616C29.1386 22.7641 28.5593 23.3347 27.846 23.3347ZM28.1722 0.86199L10.7066 0L18.5344 15.0472L36 15.908L28.1722 0.86199V0.86199ZM24.03 9.32013C23.3156 9.32013 22.7362 8.74953 22.7362 8.04598C22.7362 7.34243 23.3156 6.77183 24.03 6.77183C24.7444 6.77183 25.3238 7.34243 25.3238 8.04598C25.3238 8.74953 24.7444 9.32013 24.03 9.32013Z" fill="url(#paint0_linear_1_22)"/>
<defs>
<linearGradient id="paint0_linear_1_22" x1="18" y1="0" x2="18" y2="32" gradientUnits="userSpaceOnUse">
<stop stop-color="#646A7B"/>
<stop offset="0.703125" stop-color="#39476C"/>
</linearGradient>
</defs>
</svg>
