<svg width="39" height="64" viewBox="0 0 39 64" fill="none" xmlns="http://www.w3.org/2000/svg">
<path d="M1.12 48.8H6.416C7.64267 48.8 8.73067 49.0293 9.68 49.488C10.6293 49.9467 11.3653 50.5973 11.888 51.44C12.4107 52.2827 12.672 53.2693 12.672 54.4C12.672 55.5307 12.4107 56.5173 11.888 57.36C11.3653 58.2027 10.6293 58.8533 9.68 59.312C8.73067 59.7707 7.64267 60 6.416 60H1.12V48.8ZM6.288 57.472C7.248 57.472 8.016 57.2 8.592 56.656C9.17867 56.112 9.472 55.36 9.472 54.4C9.472 53.44 9.17867 52.688 8.592 52.144C8.016 51.6 7.248 51.328 6.288 51.328H4.288V57.472H6.288ZM14.1948 51.328H17.2348V60H14.1948V51.328ZM15.7148 50.368C15.1601 50.368 14.7121 50.2133 14.3708 49.904C14.0294 49.5947 13.8588 49.2107 13.8588 48.752C13.8588 48.2933 14.0294 47.9093 14.3708 47.6C14.7121 47.2907 15.1601 47.136 15.7148 47.136C16.2694 47.136 16.7174 47.2853 17.0588 47.584C17.4001 47.872 17.5708 48.2453 17.5708 48.704C17.5708 49.184 17.4001 49.584 17.0588 49.904C16.7174 50.2133 16.2694 50.368 15.7148 50.368ZM23.6424 60.144C22.6824 60.144 21.8237 59.952 21.0664 59.568C20.309 59.184 19.717 58.6507 19.2904 57.968C18.8744 57.2853 18.6664 56.512 18.6664 55.648C18.6664 54.784 18.8744 54.016 19.2904 53.344C19.717 52.6613 20.309 52.1333 21.0664 51.76C21.8237 51.376 22.6824 51.184 23.6424 51.184C24.6237 51.184 25.4717 51.3973 26.1864 51.824C26.901 52.24 27.4077 52.8213 27.7064 53.568L25.3544 54.768C24.9597 53.9893 24.3837 53.6 23.6264 53.6C23.0824 53.6 22.629 53.7813 22.2664 54.144C21.9144 54.5067 21.7384 55.008 21.7384 55.648C21.7384 56.2987 21.9144 56.8107 22.2664 57.184C22.629 57.5467 23.0824 57.728 23.6264 57.728C24.3837 57.728 24.9597 57.3387 25.3544 56.56L27.7064 57.76C27.4077 58.5067 26.901 59.0933 26.1864 59.52C25.4717 59.936 24.6237 60.144 23.6424 60.144ZM37.6213 55.68C37.6213 55.7013 37.6053 55.952 37.5733 56.432H31.2693C31.3973 56.88 31.6426 57.2267 32.0052 57.472C32.3786 57.7067 32.8426 57.824 33.3973 57.824C33.8133 57.824 34.1706 57.7653 34.4693 57.648C34.7786 57.5307 35.0879 57.3387 35.3973 57.072L36.9973 58.736C36.1546 59.6747 34.9226 60.144 33.3013 60.144C32.2879 60.144 31.3973 59.952 30.6293 59.568C29.8613 59.184 29.2639 58.6507 28.8372 57.968C28.4213 57.2853 28.2133 56.512 28.2133 55.648C28.2133 54.7947 28.4159 54.032 28.8213 53.36C29.2373 52.6773 29.8079 52.144 30.5333 51.76C31.2586 51.376 32.0746 51.184 32.9813 51.184C33.8453 51.184 34.6293 51.3653 35.3333 51.728C36.0373 52.08 36.5919 52.5973 36.9973 53.28C37.4133 53.952 37.6213 54.752 37.6213 55.68ZM32.9973 53.344C32.5279 53.344 32.1333 53.4773 31.8133 53.744C31.5039 54.0107 31.3066 54.3733 31.2213 54.832H34.7733C34.6879 54.3733 34.4853 54.0107 34.1653 53.744C33.8559 53.4773 33.4666 53.344 32.9973 53.344Z" fill="url(#paint0_linear_1_20)"/>
<path d="M9.95725 1.42816L1 15.0804L8.605 29.6966L17.5623 16.0443L9.95725 1.42926V1.42816ZM5.46625 15.9801C4.75187 15.9801 4.1725 15.4095 4.1725 14.7059C4.1725 14.0024 4.75187 13.4318 5.46625 13.4318C6.18062 13.4318 6.76 14.0024 6.76 14.7059C6.76 15.4095 6.18062 15.9801 5.46625 15.9801ZM8.59938 22.0616C7.885 22.0616 7.30562 21.491 7.30562 20.7875C7.30562 20.0839 7.885 19.5133 8.59938 19.5133C9.31375 19.5133 9.89313 20.0839 9.89313 20.7875C9.89313 21.491 9.31375 22.0616 8.59938 22.0616ZM9.02462 10.6175C8.31025 10.6175 7.73088 10.0469 7.73088 9.3434C7.73088 8.63984 8.31025 8.06925 9.02462 8.06925C9.739 8.06925 10.3184 8.63984 10.3184 9.3434C10.3184 10.0469 9.739 10.6175 9.02462 10.6175ZM12.4683 16.9628C11.7539 16.9628 11.1756 16.3933 11.1756 15.6898C11.1756 14.9862 11.7539 14.4156 12.4683 14.4156C13.1826 14.4156 13.762 14.9862 13.762 15.6898C13.762 16.3933 13.1826 16.9639 12.4683 16.9639V16.9628ZM19.4241 17.2276L10.2925 31.1458L27.5883 32L36.7199 18.0807L19.4241 17.2276ZM18.4847 28.9033C17.7704 28.9033 17.1921 28.3327 17.1921 27.6302C17.1921 26.9278 17.7715 26.3572 18.4847 26.3572C19.1991 26.3572 19.7774 26.9278 19.7774 27.6302C19.7774 28.3327 19.198 28.9033 18.4847 28.9033ZM28.846 23.3347C28.1316 23.3347 27.5534 22.7641 27.5534 22.0616C27.5534 21.3592 28.1328 20.7886 28.846 20.7886C29.5604 20.7886 30.1386 21.3592 30.1386 22.0616C30.1386 22.7641 29.5593 23.3347 28.846 23.3347ZM29.1722 0.86199L11.7066 0L19.5344 15.0472L37 15.908L29.1722 0.86199ZM25.03 9.32013C24.3156 9.32013 23.7362 8.74953 23.7362 8.04598C23.7362 7.34243 24.3156 6.77183 25.03 6.77183C25.7444 6.77183 26.3237 7.34243 26.3237 8.04598C26.3237 8.74953 25.7444 9.32013 25.03 9.32013Z" fill="url(#paint1_linear_1_20)"/>
<defs>
<linearGradient id="paint0_linear_1_20" x1="19.5" y1="44" x2="19.5" y2="64" gradientUnits="userSpaceOnUse">
<stop stop-color="#646A7B"/>
<stop offset="0.703125" stop-color="#39476C"/>
</linearGradient>
<linearGradient id="paint1_linear_1_20" x1="19" y1="0" x2="19" y2="32" gradientUnits="userSpaceOnUse">
<stop stop-color="#646A7B"/>
<stop offset="0.703125" stop-color="#39476C"/>
</linearGradient>
</defs>
</svg>
