<svg width="33" height="33" viewBox="0 0 33 33" fill="none" xmlns="http://www.w3.org/2000/svg">
<path d="M30.9375 8.25H18.6491V14.4375H33V10.3125C33 9.76549 32.7827 9.24089 32.3959 8.85409C32.0091 8.4673 31.4845 8.25 30.9375 8.25ZM2.0625 8.25C1.51549 8.25 0.990886 8.4673 0.604092 8.85409C0.217299 9.24089 0 9.76549 0 10.3125L0 14.4375H14.4375V8.25H2.0625ZM2.0625 16.5V30.9375C2.0625 31.4845 2.2798 32.0091 2.66659 32.3959C3.05339 32.7827 3.57799 33 4.125 33H14.4375V16.5H2.0625ZM28.875 33C29.422 33 29.9466 32.7827 30.3334 32.3959C30.7202 32.0091 30.9375 31.4845 30.9375 30.9375V16.5H18.6491V33H28.875ZM16.4979 6.171H16.5041C16.5018 6.17621 16.5004 6.1818 16.5 6.1875H24.75C27.5983 6.1875 28.875 4.8015 28.875 3.09375C28.875 1.386 27.5983 0 24.75 0C22.0832 0 19.9836 1.20037 18.5625 2.59256C17.9217 2.20661 17.1883 2.00135 16.4402 1.99856C15.6936 1.99856 15.0026 2.20894 14.3963 2.55131C12.9772 1.17562 10.89 0 8.25 0C5.40169 0 4.125 1.386 4.125 3.09375C4.125 4.8015 5.40169 6.1875 8.25 6.1875H16.5L16.4979 6.171ZM26.8125 3.09375C26.8125 3.94556 25.6905 4.125 24.75 4.125H20.0661C20.0496 4.09612 20.0351 4.06519 20.0186 4.03837C21.0664 3.0195 22.6545 2.0625 24.75 2.0625C25.6905 2.0625 26.8125 2.24194 26.8125 3.09375ZM6.1875 3.09375C6.1875 2.24194 7.3095 2.0625 8.25 2.0625C10.3001 2.0625 11.8553 2.98031 12.903 3.96413C12.87 4.01569 12.8452 4.07137 12.8143 4.125H8.25C7.3095 4.125 6.1875 3.94556 6.1875 3.09375Z" fill="url(#paint0_linear_13_3)"/>
<defs>
<linearGradient id="paint0_linear_13_3" x1="16.5" y1="0" x2="16.5" y2="33" gradientUnits="userSpaceOnUse">
<stop stop-color="#646A7B"/>
<stop offset="0.716667" stop-color="#39476C"/>
</linearGradient>
</defs>
</svg>
