<svg width="1544" height="587" viewBox="0 0 1544 587" fill="none" xmlns="http://www.w3.org/2000/svg">
<path d="M351.87 506.881H354.229L445.056 268.923L509.933 97.2449C506.697 93.7175 503.146 90.4463 499.317 87.4657C488.512 78.9244 475.933 72.4969 462.347 68.5742C448.76 64.6516 434.45 63.3157 420.285 64.6478L328.279 305.866L263.402 475.37C274.542 486.515 288.314 495.152 303.653 500.615C318.992 506.079 335.489 508.222 351.87 506.881V506.881Z" fill="url(#paint0_linear_314_23)"/>
<path d="M525.267 507.968C532.1 507.294 538.72 505.376 544.742 502.327C550.764 499.277 556.069 495.156 560.349 490.203C564.628 485.25 567.798 479.564 569.672 473.474C571.547 467.383 572.09 461.011 571.27 454.726L534.704 150.487C532.198 129.316 522.258 109.477 506.394 93.9853L496.957 85.2927C486.112 77.273 473.645 71.3182 460.28 67.7741C446.916 64.2301 432.92 63.1674 419.106 64.6479L467.468 465.592C469.123 478.246 475.855 489.873 486.341 498.189C491.758 502.185 498.008 505.115 504.703 506.797C511.399 508.479 518.398 508.877 525.267 507.968V507.968Z" fill="#CA6CE6"/>
<path d="M125.392 505.795L225.656 335.203L294.071 218.941L288.173 213.508C277.703 204.825 265.344 198.298 251.919 194.364C238.494 190.429 224.313 189.176 210.321 190.69L207.962 192.863L108.878 363.454L40.4629 478.63L46.3608 482.977C57.0094 491.746 69.5692 498.319 83.1992 502.254C96.8291 506.189 111.215 507.396 125.392 505.795V505.795Z" fill="url(#paint1_linear_314_23)"/>
<path d="M126.572 505.795L105.339 333.03C104.552 326.633 102.37 320.448 98.924 314.847C95.4782 309.246 90.8397 304.343 85.2868 300.433C80.124 296.406 74.0813 293.448 67.5686 291.761C61.0559 290.073 54.2254 289.696 47.5404 290.654C40.6037 291.193 33.8556 293.012 27.6976 296.002C21.5395 298.992 16.0975 303.093 11.6954 308.061C7.29321 313.028 4.02084 318.761 2.07306 324.917C0.125271 331.073 -0.45813 337.528 0.357543 343.896L9.79411 421.042C12.8567 444.461 25.0056 466.072 44.0017 481.89C45.1813 482.977 47.5404 484.063 48.72 486.236C59.6547 494.066 72.163 499.824 85.5244 503.181C98.8858 506.538 112.836 507.426 126.572 505.795Z" fill="#CA6CE6"/>
<path d="M354.229 505.794L325.919 272.182C322.47 250.046 310.798 229.695 292.891 214.594C291.496 212.589 289.423 211.062 286.994 210.248C265.691 194.604 238.62 187.201 211.501 189.603H210.321L237.451 424.302C240.61 444.882 250.962 463.955 266.941 478.63C278.13 489.183 291.872 497.146 307.044 501.867C322.215 506.589 338.385 507.934 354.229 505.794V505.794Z" fill="#CA6CE6"/>
<path d="M755.406 356.336H699.741C697.967 356.336 697.598 355.624 697.598 353.534V207.762C697.598 203.76 694.865 200.469 691.577 200.469H690.986C687.662 200.469 684.928 203.76 684.928 207.762V364.296C684.928 368.298 687.662 371.589 690.986 371.589H755.406C758.73 371.589 761.427 368.298 761.427 364.296V363.584C761.427 359.626 758.73 356.336 755.406 356.336Z" fill="black"/>
<path d="M803.683 259.303H803.314C799.99 259.303 797.256 262.593 797.256 266.596V364.296C797.256 368.298 799.99 371.589 803.314 371.589H803.683C807.008 371.589 809.704 368.298 809.704 364.296V266.596C809.704 262.593 807.008 259.303 803.683 259.303Z" fill="black"/>
<path d="M892.445 256.501C884.873 256.501 874.161 258.858 867.549 267.752C866.958 268.464 865.961 268.197 865.961 267.041C865.961 266.596 865.961 267.041 865.961 266.329C865.961 261.882 863.043 259.303 860.124 259.303H859.349C856.061 259.303 853.328 262.371 853.328 266.329L853.513 364.296C853.513 368.298 856.246 371.589 859.57 371.589H860.124C863.449 371.589 866.182 368.298 866.182 364.296C866.182 364.296 866.182 302.438 866.182 299.637C866.182 280.159 874.752 270.554 892.445 270.554C905.89 270.554 920.481 280.648 920.481 303.817V364.296C920.481 368.298 923.214 371.589 926.502 371.589H926.908C930.232 371.589 932.929 368.298 932.929 364.296V302.883C932.929 266.596 910.175 256.501 892.445 256.501Z" fill="black"/>
<path d="M1069.41 303.595C1068.05 291.899 1063.95 281.804 1057.15 273.622C1047.4 261.882 1035.91 256.501 1022.28 256.501C1008.65 256.501 997.164 261.882 987.449 273.622C977.919 285.095 973.043 298.925 973.043 315.335C973.043 331.744 977.919 345.574 987.449 357.27C997.164 368.743 1008.65 374.613 1022.28 374.613C1035.91 374.613 1047.4 368.743 1057.15 357.047C1057.93 356.113 1058.7 355.179 1059.48 353.979C1062.4 350.243 1062.21 344.863 1058.7 342.016C1054.23 338.77 1051.5 341.083 1047.03 347.664C1042.52 354.246 1032.22 360.56 1022.28 360.56C1012.16 360.56 1003.59 354.69 996.61 346.241C990.182 338.77 986.673 329.165 985.898 317.425C985.676 313.912 986.267 312.978 989 312.978H1063.54C1069.01 312.978 1069.78 307.108 1069.41 303.595ZM1052.27 297.991H992.325C989.185 297.991 988.225 297.725 989.591 294.701C991.143 291.632 993.285 288.119 996.388 284.384C1003.59 275.712 1012.16 270.554 1022.28 270.554C1032.22 270.554 1040.79 275.712 1047.99 284.384C1050.72 287.452 1052.64 290.476 1054.01 293.544C1055.19 295.857 1056.38 297.991 1052.27 297.991Z" fill="black"/>
<path d="M1252.77 200.469H1217.17C1213.84 200.469 1211.11 203.76 1211.11 207.762V364.296C1211.11 368.298 1213.84 371.589 1217.17 371.589H1217.72C1221.04 371.589 1223.78 368.298 1223.78 364.296V309.242C1223.78 307.108 1224.37 306.663 1226.1 306.663H1252.77C1279.81 306.663 1301.83 285.318 1301.83 252.766C1301.83 220.169 1279.81 200.469 1252.77 200.469ZM1252.77 291.41H1225.92C1224.15 291.41 1223.78 290.698 1223.78 288.608V218.079C1223.78 216.212 1224.37 215.5 1226.1 215.5H1252.77C1273.02 215.5 1289.38 228.396 1289.38 252.766C1289.38 277.135 1273.02 291.41 1252.77 291.41Z" fill="black"/>
<path d="M1325.76 315.779C1325.76 348.598 1348.15 374.613 1375.41 374.613C1389.22 374.613 1401.89 367.809 1410.24 355.847C1410.65 355.179 1412.01 354.69 1412.01 357.492C1412.01 359.137 1412.01 364.518 1412.01 364.518C1412.01 368.52 1414.75 371.811 1418.03 371.811H1418.44C1421.73 371.811 1424.46 368.52 1424.46 364.518V266.596C1424.46 262.594 1421.73 259.303 1418.44 259.303H1418.03C1414.75 259.303 1412.01 262.594 1412.01 266.596C1412.01 269.397 1412.01 273.133 1412.01 273.355C1412.01 276.424 1410.05 275.712 1409.46 274.556C1401.89 263.083 1388.45 256.501 1375 256.501C1347.78 256.501 1325.76 282.961 1325.76 315.779ZM1338.21 315.779C1338.21 291.41 1354.57 270.554 1375 270.554C1395.28 270.554 1411.83 291.41 1411.83 315.779C1411.83 340.149 1395.65 360.56 1375.41 360.56C1354.98 360.56 1338.21 340.149 1338.21 315.779Z" fill="black"/>
<path d="M1490.84 390.533L1540.3 264.239C1541.26 261.437 1540.08 259.303 1537.56 259.303H1532.5C1529.95 259.303 1527.04 261.437 1525.89 264.239L1502.32 331.255C1500.18 336.902 1500.77 337.125 1498.45 331.255L1475.06 264.239C1473.92 261.437 1471 259.303 1468.45 259.303H1463.39C1460.88 259.303 1459.7 261.437 1460.66 264.239L1491.43 343.217C1493.16 347.886 1493.16 348.598 1491.43 353.267L1476.62 390.533C1475.47 393.379 1476.62 395.691 1479.16 395.691H1484.23C1486.96 395.691 1489.88 393.379 1490.84 390.533Z" fill="black"/>
<defs>
<linearGradient id="paint0_linear_314_23" x1="509.933" y1="64.1474" x2="-67.4761" y2="814.955" gradientUnits="userSpaceOnUse">
<stop stop-color="#7F00FF"/>
<stop offset="1" stop-color="#E100FF"/>
</linearGradient>
<linearGradient id="paint1_linear_314_23" x1="294.071" y1="190.067" x2="-283.338" y2="940.874" gradientUnits="userSpaceOnUse">
<stop stop-color="#7F00FF"/>
<stop offset="1" stop-color="#E100FF"/>
</linearGradient>
</defs>
</svg>
