<svg width="52" height="59" viewBox="0 0 52 59" fill="none" xmlns="http://www.w3.org/2000/svg">
<path d="M1.2 55V43.8H3.808L8.432 51.416H7.056L11.584 43.8H14.192L14.224 55H11.296L11.28 48.232H11.776L8.4 53.896H6.992L3.52 48.232H4.112V55H1.2ZM20.8943 55.144C19.8703 55.144 18.9743 54.952 18.2063 54.568C17.4489 54.1733 16.8569 53.64 16.4303 52.968C16.0143 52.2853 15.8063 51.512 15.8063 50.648C15.8063 49.784 16.0089 49.016 16.4143 48.344C16.8303 47.6613 17.4009 47.1333 18.1263 46.76C18.8516 46.376 19.6676 46.184 20.5743 46.184C21.4276 46.184 22.2063 46.36 22.9103 46.712C23.6143 47.0533 24.1743 47.56 24.5903 48.232C25.0063 48.904 25.2143 49.72 25.2143 50.68C25.2143 50.7867 25.2089 50.9093 25.1983 51.048C25.1876 51.1867 25.1769 51.3147 25.1663 51.432H18.3023V49.832H23.5503L22.3983 50.28C22.4089 49.8853 22.3343 49.544 22.1743 49.256C22.0249 48.968 21.8116 48.744 21.5343 48.584C21.2676 48.424 20.9529 48.344 20.5903 48.344C20.2276 48.344 19.9076 48.424 19.6302 48.584C19.3636 48.744 19.1556 48.9733 19.0063 49.272C18.8569 49.56 18.7823 49.9013 18.7823 50.296V50.76C18.7823 51.1867 18.8676 51.5547 19.0383 51.864C19.2196 52.1733 19.4756 52.4133 19.8063 52.584C20.1369 52.744 20.5316 52.824 20.9903 52.824C21.4169 52.824 21.7796 52.7653 22.0783 52.648C22.3876 52.52 22.6916 52.328 22.9903 52.072L24.5903 53.736C24.1743 54.1947 23.6623 54.5467 23.0543 54.792C22.4463 55.0267 21.7263 55.144 20.8943 55.144ZM26.8209 55V46.328H29.8449V49.544H32.9649V46.328H36.0049V55H32.9649V51.96H29.8449V55H26.8209ZM38.0553 55V46.328H41.0793V49.32H43.5913V51.88H41.0793V55H38.0553ZM46.5673 55.144C45.6499 55.144 44.8339 54.952 44.1193 54.568C43.4046 54.184 42.8446 53.656 42.4393 52.984C42.0339 52.3013 41.8313 51.5227 41.8313 50.648C41.8313 49.7733 42.0339 49 42.4393 48.328C42.8446 47.656 43.4046 47.1333 44.1193 46.76C44.8339 46.376 45.6499 46.184 46.5673 46.184C47.4846 46.184 48.3006 46.376 49.0153 46.76C49.7299 47.1333 50.2899 47.656 50.6953 48.328C51.1006 49 51.3033 49.7733 51.3033 50.648C51.3033 51.5227 51.1006 52.3013 50.6953 52.984C50.2899 53.656 49.7299 54.184 49.0153 54.568C48.3006 54.952 47.4846 55.144 46.5673 55.144ZM46.5673 52.728C46.8979 52.728 47.1913 52.648 47.4473 52.488C47.7139 52.328 47.9219 52.0933 48.0713 51.784C48.2313 51.464 48.3113 51.0907 48.3113 50.664C48.3113 50.216 48.2313 49.8427 48.0713 49.544C47.9219 49.2347 47.7139 49 47.4473 48.84C47.1913 48.68 46.8979 48.6 46.5673 48.6C46.2473 48.6 45.9539 48.68 45.6873 48.84C45.4206 49 45.2073 49.2347 45.0473 49.544C44.8979 49.8427 44.8233 50.216 44.8233 50.664C44.8233 51.0907 44.8979 51.464 45.0473 51.784C45.2073 52.0933 45.4206 52.328 45.6873 52.488C45.9539 52.648 46.2473 52.728 46.5673 52.728Z" fill="url(#paint0_linear_1_15)"/>
<path d="M13.8638 7.67602C15.985 7.67602 17.7045 5.95768 17.7045 3.83801C17.7045 1.71834 15.985 0 13.8638 0C11.7427 0 10.0231 1.71834 10.0231 3.83801C10.0231 5.95768 11.7427 7.67602 13.8638 7.67602Z" fill="url(#paint1_linear_1_15)"/>
<path d="M39.1593 7.67602C41.2805 7.67602 43 5.95768 43 3.83801C43 1.71834 41.2805 0 39.1593 0C37.0382 0 35.3186 1.71834 35.3186 3.83801C35.3186 5.95768 37.0382 7.67602 39.1593 7.67602Z" fill="url(#paint2_linear_1_15)"/>
<path d="M26.5116 7.67602C28.6327 7.67602 30.3523 5.95768 30.3523 3.83801C30.3523 1.71834 28.6327 0 26.5116 0C24.3904 0 22.6709 1.71834 22.6709 3.83801C22.6709 5.95768 24.3904 7.67602 26.5116 7.67602Z" fill="url(#paint3_linear_1_15)"/>
<path d="M13.8408 20.3381C15.962 20.3381 17.6815 18.6198 17.6815 16.5C17.6815 14.3803 15.962 12.662 13.8408 12.662C11.7196 12.662 10 14.3803 10 16.5C10 18.6198 11.7196 20.3381 13.8408 20.3381Z" fill="url(#paint4_linear_1_15)"/>
<path d="M39.1362 20.3381C41.2574 20.3381 42.9769 18.6198 42.9769 16.5C42.9769 14.3803 41.2574 12.662 39.1362 12.662C37.015 12.662 35.2954 14.3803 35.2954 16.5C35.2954 18.6198 37.015 20.3381 39.1362 20.3381Z" fill="url(#paint5_linear_1_15)"/>
<path d="M26.4885 20.3381C28.6097 20.3381 30.3293 18.6198 30.3293 16.5C30.3293 14.3803 28.6097 12.662 26.4885 12.662C24.3673 12.662 22.6478 14.3803 22.6478 16.5C22.6478 18.6198 24.3673 20.3381 26.4885 20.3381Z" fill="url(#paint6_linear_1_15)"/>
<path d="M13.8408 33C15.962 33 17.6815 31.2817 17.6815 29.162C17.6815 27.0423 15.962 25.324 13.8408 25.324C11.7197 25.324 10.0001 27.0423 10.0001 29.162C10.0001 31.2817 11.7197 33 13.8408 33Z" fill="url(#paint7_linear_1_15)"/>
<path d="M39.1362 33C41.2573 33 42.9769 31.2817 42.9769 29.162C42.9769 27.0423 41.2573 25.324 39.1362 25.324C37.015 25.324 35.2955 27.0423 35.2955 29.162C35.2955 31.2817 37.015 33 39.1362 33Z" fill="url(#paint8_linear_1_15)"/>
<path d="M26.4885 33C28.6097 33 30.3292 31.2817 30.3292 29.162C30.3292 27.0423 28.6097 25.324 26.4885 25.324C24.3674 25.324 22.6478 27.0423 22.6478 29.162C22.6478 31.2817 24.3674 33 26.4885 33Z" fill="url(#paint9_linear_1_15)"/>
<defs>
<linearGradient id="paint0_linear_1_15" x1="26" y1="39" x2="26" y2="59" gradientUnits="userSpaceOnUse">
<stop stop-color="#646A7B"/>
<stop offset="0.703125" stop-color="#39476C"/>
</linearGradient>
<linearGradient id="paint1_linear_1_15" x1="13.8638" y1="0" x2="13.8638" y2="7.67602" gradientUnits="userSpaceOnUse">
<stop stop-color="#646A7B"/>
<stop offset="0.7375" stop-color="#39476C"/>
</linearGradient>
<linearGradient id="paint2_linear_1_15" x1="39.1593" y1="0" x2="39.1593" y2="7.67602" gradientUnits="userSpaceOnUse">
<stop stop-color="#646A7B"/>
<stop offset="0.7375" stop-color="#39476C"/>
</linearGradient>
<linearGradient id="paint3_linear_1_15" x1="26.5116" y1="0" x2="26.5116" y2="7.67602" gradientUnits="userSpaceOnUse">
<stop stop-color="#646A7B"/>
<stop offset="0.7375" stop-color="#39476C"/>
</linearGradient>
<linearGradient id="paint4_linear_1_15" x1="13.8408" y1="12.662" x2="13.8408" y2="20.3381" gradientUnits="userSpaceOnUse">
<stop stop-color="#646A7B"/>
<stop offset="0.7375" stop-color="#39476C"/>
</linearGradient>
<linearGradient id="paint5_linear_1_15" x1="39.1362" y1="12.662" x2="39.1362" y2="20.3381" gradientUnits="userSpaceOnUse">
<stop stop-color="#646A7B"/>
<stop offset="0.7375" stop-color="#39476C"/>
</linearGradient>
<linearGradient id="paint6_linear_1_15" x1="26.4885" y1="12.662" x2="26.4885" y2="20.3381" gradientUnits="userSpaceOnUse">
<stop stop-color="#646A7B"/>
<stop offset="0.7375" stop-color="#39476C"/>
</linearGradient>
<linearGradient id="paint7_linear_1_15" x1="13.8408" y1="25.324" x2="13.8408" y2="33" gradientUnits="userSpaceOnUse">
<stop stop-color="#646A7B"/>
<stop offset="0.7375" stop-color="#39476C"/>
</linearGradient>
<linearGradient id="paint8_linear_1_15" x1="39.1362" y1="25.324" x2="39.1362" y2="33" gradientUnits="userSpaceOnUse">
<stop stop-color="#646A7B"/>
<stop offset="0.7375" stop-color="#39476C"/>
</linearGradient>
<linearGradient id="paint9_linear_1_15" x1="26.4885" y1="25.324" x2="26.4885" y2="33" gradientUnits="userSpaceOnUse">
<stop stop-color="#646A7B"/>
<stop offset="0.7375" stop-color="#39476C"/>
</linearGradient>
</defs>
</svg>
