<svg width="51" height="66" viewBox="0 0 51 66" fill="none" xmlns="http://www.w3.org/2000/svg">
<path d="M11.232 62L11.2 56.064L8.32 60.896H6.912L4.048 56.224V62H1.12V50.8H3.728L7.664 57.264L11.504 50.8H14.112L14.144 62H11.232ZM16.2416 53.328H19.2816V62H16.2416V53.328ZM17.7616 52.368C17.207 52.368 16.759 52.2133 16.4176 51.904C16.0763 51.5947 15.9056 51.2107 15.9056 50.752C15.9056 50.2933 16.0763 49.9093 16.4176 49.6C16.759 49.2907 17.207 49.136 17.7616 49.136C18.3163 49.136 18.7643 49.2853 19.1056 49.584C19.447 49.872 19.6176 50.2453 19.6176 50.704C19.6176 51.184 19.447 51.584 19.1056 51.904C18.7643 52.2133 18.3163 52.368 17.7616 52.368ZM26.9053 53.184C27.9826 53.184 28.8466 53.504 29.4973 54.144C30.1586 54.784 30.4893 55.7493 30.4893 57.04V62H27.4493V57.536C27.4493 56.352 26.9746 55.76 26.0253 55.76C25.5026 55.76 25.0813 55.9307 24.7613 56.272C24.4519 56.6133 24.2973 57.1253 24.2973 57.808V62H21.2573V53.328H24.1533V54.272C24.4946 53.92 24.8999 53.6533 25.3693 53.472C25.8386 53.28 26.3506 53.184 26.9053 53.184ZM41.3869 57.68C41.3869 57.7013 41.3709 57.952 41.3389 58.432H35.0349C35.1629 58.88 35.4082 59.2267 35.7709 59.472C36.1442 59.7067 36.6082 59.824 37.1629 59.824C37.5789 59.824 37.9362 59.7653 38.2349 59.648C38.5442 59.5307 38.8535 59.3387 39.1629 59.072L40.7629 60.736C39.9202 61.6747 38.6882 62.144 37.0669 62.144C36.0535 62.144 35.1629 61.952 34.3949 61.568C33.6269 61.184 33.0295 60.6507 32.6029 59.968C32.1869 59.2853 31.9789 58.512 31.9789 57.648C31.9789 56.7947 32.1815 56.032 32.5869 55.36C33.0029 54.6773 33.5735 54.144 34.2989 53.76C35.0242 53.376 35.8402 53.184 36.7469 53.184C37.6109 53.184 38.3949 53.3653 39.0989 53.728C39.8029 54.08 40.3575 54.5973 40.7629 55.28C41.1789 55.952 41.3869 56.752 41.3869 57.68ZM36.7629 55.344C36.2935 55.344 35.8989 55.4773 35.5789 55.744C35.2695 56.0107 35.0722 56.3733 34.9869 56.832H38.5389C38.4535 56.3733 38.2509 56.0107 37.9309 55.744C37.6215 55.4773 37.2322 55.344 36.7629 55.344ZM45.9405 62.144C45.2152 62.144 44.5005 62.064 43.7965 61.904C43.0925 61.7333 42.5272 61.5147 42.1005 61.248L43.0125 59.168C43.4072 59.4133 43.8765 59.6107 44.4205 59.76C44.9645 59.8987 45.5032 59.968 46.0365 59.968C46.5272 59.968 46.8738 59.92 47.0765 59.824C47.2898 59.7173 47.3965 59.568 47.3965 59.376C47.3965 59.184 47.2685 59.0507 47.0125 58.976C46.7672 58.8907 46.3725 58.8107 45.8285 58.736C45.1352 58.6507 44.5432 58.5387 44.0525 58.4C43.5725 58.2613 43.1565 58.0053 42.8045 57.632C42.4525 57.2587 42.2765 56.736 42.2765 56.064C42.2765 55.5093 42.4418 55.0187 42.7725 54.592C43.1032 54.1547 43.5832 53.8133 44.2125 53.568C44.8525 53.312 45.6152 53.184 46.5005 53.184C47.1298 53.184 47.7538 53.248 48.3725 53.376C48.9912 53.504 49.5085 53.6853 49.9245 53.92L49.0125 55.984C48.2445 55.5573 47.4125 55.344 46.5165 55.344C46.0365 55.344 45.6845 55.4027 45.4605 55.52C45.2365 55.6267 45.1245 55.7707 45.1245 55.952C45.1245 56.1547 45.2472 56.2987 45.4925 56.384C45.7378 56.4587 46.1432 56.5387 46.7085 56.624C47.4232 56.7307 48.0152 56.8533 48.4845 56.992C48.9538 57.1307 49.3592 57.3867 49.7005 57.76C50.0525 58.1227 50.2285 58.6347 50.2285 59.296C50.2285 59.84 50.0632 60.3307 49.7325 60.768C49.4018 61.1947 48.9112 61.5307 48.2605 61.776C47.6205 62.0213 46.8472 62.144 45.9405 62.144Z" fill="url(#paint0_linear_1_15)"/>
<path d="M26.5 3.07581V0H23.5V3.07581C16.4244 3.78223 10.7822 9.42444 10.0758 16.5H7V19.5H10.0758C10.7822 26.5756 16.4244 32.2178 23.5 32.9242V36H26.5V32.9242C33.5756 32.2178 39.2178 26.5756 39.9242 19.5H43V16.5H39.9242C39.2178 9.42444 33.5756 3.78223 26.5 3.07581V3.07581ZM36.8956 16.5H33.8641C33.2291 12.7394 30.2606 9.77014 26.5 9.13586V6.10437C31.9174 6.78442 36.2156 11.0826 36.8956 16.5ZM30.8026 19.5C30.2584 21.6031 28.6031 23.2584 26.5 23.8026V21H23.5V23.8026C21.3969 23.2584 19.7416 21.6031 19.1974 19.5H22V16.5H19.1974C19.7416 14.3969 21.3969 12.7416 23.5 12.1974V15H26.5V12.1974C28.6031 12.7416 30.2584 14.3969 30.8026 16.5H28V19.5H30.8026ZM23.5 6.10437V9.13586C19.7394 9.77087 16.7701 12.7394 16.1359 16.5H13.1044C13.7844 11.0826 18.0826 6.78442 23.5 6.10437ZM13.1044 19.5H16.1359C16.7709 23.2606 19.7394 26.2299 23.5 26.8641V29.8956C18.0826 29.2156 13.7844 24.9174 13.1044 19.5V19.5ZM26.5 29.8956V26.8641C30.2606 26.2291 33.2299 23.2606 33.8641 19.5H36.8956C36.2156 24.9174 31.9174 29.2156 26.5 29.8956Z" fill="url(#paint1_linear_1_15)"/>
<defs>
<linearGradient id="paint0_linear_1_15" x1="25.5" y1="46" x2="25.5" y2="66" gradientUnits="userSpaceOnUse">
<stop stop-color="#646A7B"/>
<stop offset="0.703125" stop-color="#39476C"/>
</linearGradient>
<linearGradient id="paint1_linear_1_15" x1="25" y1="0" x2="25" y2="36" gradientUnits="userSpaceOnUse">
<stop stop-color="#646A7B"/>
<stop offset="0.703125" stop-color="#39476C"/>
</linearGradient>
</defs>
</svg>
