<svg id="Слой_1" data-name="Слой 1" xmlns="http://www.w3.org/2000/svg" xmlns:xlink="http://www.w3.org/1999/xlink" viewBox="0 0 30.33 9.51"><defs><style>.cls-1{fill:#fff;}.cls-1,.cls-3{fill-rule:evenodd;}.cls-2{mask:url(#mask);}.cls-3{fill:#ff8c00;}</style><mask id="mask" x="0" y="0" width="30.33" height="9.51" maskUnits="userSpaceOnUse"><g transform="translate(-99.67 -1.73)"><g id="mask-8"><polygon id="path-7" class="cls-1" points="99.67 1.73 130 1.73 130 11.24 99.67 11.24 99.67 1.73"/></g></g></mask></defs><g id="Demo-Pages-28.09.2017"><g id="_4.1.-Pay_QIWI_Wallet-Copy-2" data-name="4.1.-Pay_QIWI_Wallet-Copy-2"><g id="Group-9"><g id="Group-3"><g class="cls-2"><path id="Fill-1" class="cls-3" d="M105.61,8.81l-.94-1.14a.18.18,0,0,1,.14-.3h2a2.8,2.8,0,0,0,.15-.88,2.51,2.51,0,1,0-5,0,2.54,2.54,0,0,0,2.51,2.62A2.47,2.47,0,0,0,105.61,8.81Zm4.27,1.91a.18.18,0,0,1-.14.3h-2.15a.3.3,0,0,1-.23-.11l-.36-.43a4.76,4.76,0,1,1,1.42-1.43ZM129.76,2H128a.24.24,0,0,0-.23.24v8.6A.23.23,0,0,0,128,11h1.76a.23.23,0,0,0,.24-.23V2.19A.24.24,0,0,0,129.76,2Zm-2.95,0h-2a.23.23,0,0,0-.22.17L123.06,7.2l-1.71-5.09a.24.24,0,0,0-.22-.16h-1.37a.24.24,0,0,0-.22.16L117.83,7.2l-1.56-5.08a.23.23,0,0,0-.22-.17h-2a.23.23,0,0,0-.22.31l2.89,8.6A.22.22,0,0,0,117,11h1.56a.22.22,0,0,0,.22-.16l1.69-5,1.7,5a.22.22,0,0,0,.22.16h1.56a.22.22,0,0,0,.22-.16L127,2.26a.23.23,0,0,0-.22-.31Zm-13.69.24v8.6a.23.23,0,0,1-.24.23h-1.75a.23.23,0,0,1-.24-.23V2.19a.24.24,0,0,1,.24-.24h1.75A.24.24,0,0,1,113.12,2.19Z" transform="translate(-99.67 -1.73)"/></g></g></g></g></g></svg>