<svg width="108" height="108" viewBox="0 0 108 108" fill="none" xmlns="http://www.w3.org/2000/svg">
<path fill-rule="evenodd" clip-rule="evenodd" d="M103.902 74.6705L100.208 73.1383C102.65 67.2485 104 60.7869 104 54C104 47.2131 102.65 40.7515 100.208 34.8617L103.902 33.3295C106.543 39.6965 108 46.6781 108 54C108 61.3219 106.543 68.3035 103.902 74.6705ZM74.6705 4.09755L73.1383 7.79245C67.2485 5.35004 60.7869 4 54 4C47.2131 4 40.7515 5.35004 34.8617 7.79245L33.3295 4.09755C39.6965 1.45725 46.6781 0 54 0C61.3219 0 68.3035 1.45725 74.6705 4.09755ZM4.09755 33.3295C1.45725 39.6965 0 46.6781 0 54C0 61.3219 1.45725 68.3035 4.09755 74.6705L7.79245 73.1383C5.35004 67.2485 4 60.7869 4 54C4 47.2131 5.35004 40.7515 7.79245 34.8617L4.09755 33.3295ZM33.3295 103.902L34.8617 100.208C40.7515 102.65 47.2131 104 54 104C60.7869 104 67.2485 102.65 73.1383 100.208L74.6705 103.902C68.3035 106.543 61.3219 108 54 108C46.6781 108 39.6965 106.543 33.3295 103.902Z" fill="#E24B57"/>
</svg>
