<?xml version="1.0" encoding="utf-8"?>
<!-- Svg Vector Icons : http://www.onlinewebfonts.com/icon -->
<!DOCTYPE svg PUBLIC "-//W3C//DTD SVG 1.1//EN" "http://www.w3.org/Graphics/SVG/1.1/DTD/svg11.dtd">
<svg fill="#1e9540" version="1.1" xmlns="http://www.w3.org/2000/svg" xmlns:xlink="http://www.w3.org/1999/xlink" x="0px" y="0px" viewBox="0 0 1000 1000" enable-background="new 0 0 1000 1000" xml:space="preserve">
<metadata> Svg Vector Icons : http://www.onlinewebfonts.com/icon </metadata>
<g><path d="M961.1,715.2c-21-12.8-23.1-40.7,10.5-74.9c33.6-34.2,16.8-77-14.7-92c-31.5-15-42-39,0-55.7c37.8-15,37.8-85.6-2.1-132.7c-36.2-42.8-287.8-21.4-287.8-21.4s2.1-2.1,2.1-141.3c0-139.1-39.9-173.4-107.1-171.2c-67.2,2.1-46.2,42.8-86.1,207.6c-39.9,164.8-199.6,278.2-199.6,278.2v376.7c27.3,38.5,86.1,51.4,105,59.9c18.9,8.6,212.2,25.7,212.2,25.7s315.1-23.6,329.8-68.5c14.7-44.9-21.6-65.9,23.1-83.5C1001,800.8,982.1,728,961.1,715.2L961.1,715.2z M10,505.3v369.8c0,37.2,29.6,67.3,66.1,67.3h130.8V437.9H76.1C39.6,437.9,10,468.1,10,505.3L10,505.3z"/></g>
</svg>