<svg xmlns="http://www.w3.org/2000/svg" viewBox="0 0 840.53 176"><defs><style>.a{fill:#8b3ffd;}</style></defs><path class="a" d="M239,162a88,88,0,1,0,88,88A88,88,0,0,0,239,162Zm.5,121.5a33,33,0,1,1,33-33A33,33,0,0,1,239.5,283.5Z" transform="translate(-79 -162)"/><polygon class="a" points="72 88 72 154.01 40.22 154.01 0 25 72 25 72 88"/><path d="M504.78,244.31q0-2.72-.18-5.1a25.57,25.57,0,0,0-.61-4.13,11.72,11.72,0,0,0-3.78-6.24q-2.82-2.37-7.91-2.46a21.7,21.7,0,0,0-5.63.79,30.63,30.63,0,0,0-5.76,2.25,31.09,31.09,0,0,0-5.44,3.51,32.59,32.59,0,0,0-4.71,4.61v58.63H449.93V244.31c0-1.81-.06-3.51-.17-5.1a25.49,25.49,0,0,0-.62-4.13,11.77,11.77,0,0,0-3.73-6.24q-2.78-2.37-8-2.46a21.63,21.63,0,0,0-5.62.79,30.11,30.11,0,0,0-5.76,2.25,31.55,31.55,0,0,0-5.45,3.51,32.52,32.52,0,0,0-4.7,4.61v58.63H395.09V211h17.23l1.93,11.87h.35a31,31,0,0,1,4.66-5.19,32.56,32.56,0,0,1,6.37-4.48,37.1,37.1,0,0,1,7.82-3.12,33.51,33.51,0,0,1,9-1.19,30.67,30.67,0,0,1,15.16,3.74,23.84,23.84,0,0,1,10.24,11.64h.35a42.07,42.07,0,0,1,5.5-6.24,33.75,33.75,0,0,1,6.72-4.83,35.55,35.55,0,0,1,7.95-3.16,34.74,34.74,0,0,1,9.1-1.15q9.15.09,15.34,3.83A25.12,25.12,0,0,1,522.36,223a21.8,21.8,0,0,1,1.49,3.64,31.79,31.79,0,0,1,1,4.44q.39,2.46.57,5.45t.18,6.86v52.82H504.78Z" transform="translate(-79 -162)"/><path d="M629.67,253.63a53.47,53.47,0,0,1-3,18.28,40,40,0,0,1-8.57,14.15,38,38,0,0,1-13.49,9.1A46.56,46.56,0,0,1,587,298.37a47.7,47.7,0,0,1-18-3.21,37.46,37.46,0,0,1-13.49-9.1A39.83,39.83,0,0,1,547,271.91a57.74,57.74,0,0,1,0-36.56,40,40,0,0,1,8.57-14.15,38,38,0,0,1,13.49-9.1,46.65,46.65,0,0,1,17.67-3.21,47.64,47.64,0,0,1,18,3.21,37.37,37.37,0,0,1,13.49,9.1,39.85,39.85,0,0,1,8.49,14.15A54.21,54.21,0,0,1,629.67,253.63Zm-21.53,0a40.78,40.78,0,0,0-1.59-11.95,25.73,25.73,0,0,0-4.39-8.71,17.91,17.91,0,0,0-6.77-5.27,21,21,0,0,0-8.61-1.76,20.44,20.44,0,0,0-8.48,1.76,18,18,0,0,0-6.73,5.27,25.92,25.92,0,0,0-4.39,8.71,46,46,0,0,0,0,23.9,24.66,24.66,0,0,0,4.44,8.66,18.94,18.94,0,0,0,6.77,5.27,20.21,20.21,0,0,0,8.57,1.8,20,20,0,0,0,8.52-1.8,18.73,18.73,0,0,0,6.68-5.27,25.11,25.11,0,0,0,4.39-8.66A40.83,40.83,0,0,0,608.14,253.63Z" transform="translate(-79 -162)"/><path d="M667.29,222.87h.35a31,31,0,0,1,4.66-5.19,32,32,0,0,1,6.41-4.48,37.91,37.91,0,0,1,8-3.12,35.14,35.14,0,0,1,9.27-1.19,37.79,37.79,0,0,1,9,1.06,27,27,0,0,1,7.95,3.29,24.43,24.43,0,0,1,6.37,5.8,28.4,28.4,0,0,1,5.54,14.42q.32,3.21.31,7.42v55.29H704.29v-52a58,58,0,0,0-.26-5.89,17.46,17.46,0,0,0-1-4.31,10.79,10.79,0,0,0-4.79-5.8,16,16,0,0,0-7.78-1.76,25.35,25.35,0,0,0-11.65,2.86,30,30,0,0,0-9.88,8.3v58.63H648.13V211h17.22Z" transform="translate(-79 -162)"/><path d="M791.83,281.58a68.93,68.93,0,0,0,12.65-1.23,96.72,96.72,0,0,0,13.36-3.52v16.61a61.28,61.28,0,0,1-12.39,3.34,92.41,92.41,0,0,1-17.31,1.59A62.23,62.23,0,0,1,771,296a37.4,37.4,0,0,1-14.19-7.52,36.18,36.18,0,0,1-9.62-13.45q-3.57-8.25-3.56-20a56.44,56.44,0,0,1,3.34-20.31,41.22,41.22,0,0,1,9-14.41,36.77,36.77,0,0,1,12.88-8.57,40.61,40.61,0,0,1,15-2.86,43.57,43.57,0,0,1,14.9,2.46,29.9,29.9,0,0,1,11.78,7.74,36,36,0,0,1,7.73,13.58,62.12,62.12,0,0,1,2.77,19.64q-.09,4.4-.26,7.47H764.85a25.51,25.51,0,0,0,2.63,10.06,19.44,19.44,0,0,0,5.76,6.77,23.64,23.64,0,0,0,8.3,3.78A42.47,42.47,0,0,0,791.83,281.58Zm-8.35-56.43a15.95,15.95,0,0,0-12.35,5.41,19.47,19.47,0,0,0-3.56,5.84,28.46,28.46,0,0,0-1.76,7.12H799.3a24.61,24.61,0,0,0-1-7.12,17.64,17.64,0,0,0-3-5.84,14.22,14.22,0,0,0-4.92-4A15.55,15.55,0,0,0,783.48,225.15Z" transform="translate(-79 -162)"/><path d="M828.83,211h22.32l12.75,30.85q7.2,17.58,10.19,26h.36q2.19-6.6,9.31-24.44L897,211h22.58L864.69,337H844.12l19.51-45.62Z" transform="translate(-79 -162)"/></svg>